999
dxfrw 0.6.3
  0
SECTION
  2
HEADER
  9
$ACADVER
  1
AC1021
  9
$DWGCODEPAGE
  3
ANSI_1252
  9
$INSBASE
 10
0
 20
0
 30
0
  9
$EXTMIN
 10
0.9069371888993771
 20
-144.8493434175955
 30
0
  9
$EXTMAX
 10
181.1373605445595
 20
-1.287412522446814
 30
0
  9
$LIMMIN
 10
0
 20
0
  9
$LIMMAX
 10
12
 20
9
  9
$ORTHOMODE
 70
    0
  9
$REGENMODE
 70
    1
  9
$FILLMODE
 70
    1
  9
$QTEXTMODE
 70
    0
  9
$MIRRTEXT
 70
    0
  9
$LTSCALE
 40
1
  9
$ATTMODE
 70
    1
  9
$TEXTSIZE
 40
0.2
  9
$TRACEWID
 40
0.05
  9
$TEXTSTYLE
  7
STANDARD
  9
$CLAYER
  8
0
  9
$CELTYPE
  6
BYLAYER
  9
$CECOLOR
 62
  256
  9
$CELTSCALE
 40
1
  9
$DISPSILH
 70
    0
  9
$DIMSCALE
 40
1
  9
$DIMASZ
 40
2.5
  9
$DIMEXO
 40
0.625
  9
$DIMDLI
 40
5
  9
$DIMRND
 40
0
  9
$DIMDLE
 40
0
  9
$DIMEXE
 40
1.25
  9
$DIMTP
 40
0
  9
$DIMTM
 40
0
  9
$DIMTXT
 40
2.5
  9
$DIMCEN
 40
0.09
  9
$DIMTSZ
 40
0
  9
$DIMTOL
 70
    0
  9
$DIMLIM
 70
    0
  9
$DIMTIH
 70
    1
  9
$DIMTOH
 70
    1
  9
$DIMSE1
 70
    0
  9
$DIMSE2
 70
    0
  9
$DIMTAD
 70
    0
  9
$DIMZIN
 70
    8
  9
$DIMBLK
  1

  9
$DIMASO
 70
    1
  9
$DIMSHO
 70
    1
  9
$DIMPOST
  1

  9
$DIMAPOST
  1

  9
$DIMALT
 70
    0
  9
$DIMALTD
 70
    2
  9
$DIMALTF
 40
25.4
  9
$DIMLFAC
 40
1
  9
$DIMTOFL
 70
    0
  9
$DIMTVP
 40
0
  9
$DIMTIX
 70
    0
  9
$DIMSOXD
 70
    0
  9
$DIMSAH
 70
    0
  9
$DIMBLK1
  1

  9
$DIMBLK2
  1

  9
$DIMSTYLE
  2
STANDARD
  9
$DIMCLRD
 70
    0
  9
$DIMCLRE
 70
    0
  9
$DIMCLRT
 70
    0
  9
$DIMTFAC
 40
1
  9
$DIMGAP
 40
0.625
  9
$DIMJUST
 70
    0
  9
$DIMSD1
 70
    0
  9
$DIMSD2
 70
    0
  9
$DIMTOLJ
 70
    0
  9
$DIMTZIN
 70
    8
  9
$DIMALTZ
 70
    0
  9
$DIMALTTZ
 70
    0
  9
$DIMUPT
 70
    0
  9
$DIMDEC
 70
    4
  9
$DIMTDEC
 70
    2
  9
$DIMALTU
 70
    2
  9
$DIMALTTD
 70
    3
  9
$DIMTXSTY
  7
STANDARD
  9
$DIMAUNIT
 70
    0
  9
$DIMADEC
 70
    0
  9
$DIMALTRND
 40
0
  9
$DIMAZIN
 70
    0
  9
$DIMDSEP
 70
   44
  9
$DIMATFIT
 70
    3
  9
$DIMFRAC
 70
    0
  9
$DIMLDRBLK
  1
STANDARD
  9
$DIMLUNIT
 70
    2
  9
$DIMLWD
 70
   -2
  9
$DIMLWE
 70
   -2
  9
$DIMTMOVE
 70
    0
  9
$DIMFXL
 40
1
  9
$DIMFXLON
 70
    0
  9
$DIMJOGANG
 40
0.7854
  9
$DIMTFILL
 70
    0
  9
$DIMTFILLCLR
 70
    0
  9
$DIMARCSYM
 70
    0
  9
$DIMLTYPE
  6

  9
$DIMLTEX1
  6

  9
$DIMLTEX2
  6

  9
$LUNITS
 70
    2
  9
$LUPREC
 70
    4
  9
$SKETCHINC
 40
0.1
  9
$FILLETRAD
 40
0.5
  9
$AUNITS
 70
    0
  9
$AUPREC
 70
    0
  9
$MENU
  1
.
  9
$ELEVATION
 40
0
  9
$PELEVATION
 40
0
  9
$THICKNESS
 40
0
  9
$LIMCHECK
 70
    0
  9
$CHAMFERA
 40
0
  9
$CHAMFERB
 40
0
  9
$CHAMFERC
 40
0
  9
$CHAMFERD
 40
0
  9
$SKPOLY
 70
    0
  9
$USRTIMER
 70
    1
  9
$ANGBASE
 50
0
  9
$ANGDIR
 70
    0
  9
$PDMODE
 70
    0
  9
$PDSIZE
 40
0
  9
$PLINEWID
 40
0
  9
$SPLFRAME
 70
    0
  9
$SPLINETYPE
 70
    6
  9
$SPLINESEGS
 70
    8
  9
$HANDSEED
  5
20000
  9
$SURFTAB1
 70
    6
  9
$SURFTAB2
 70
    6
  9
$SURFTYPE
 70
    6
  9
$SURFU
 70
    6
  9
$SURFV
 70
    6
  9
$UCSBASE
  2

  9
$UCSNAME
  2

  9
$UCSORG
 10
0
 20
0
 30
0
  9
$UCSXDIR
 10
1
 20
0
 30
0
  9
$UCSYDIR
 10
0
 20
1
 30
0
  9
$UCSORTHOREF
  2

  9
$UCSORTHOVIEW
 70
    0
  9
$UCSORGTOP
 10
0
 20
0
 30
0
  9
$UCSORGBOTTOM
 10
0
 20
0
 30
0
  9
$UCSORGLEFT
 10
0
 20
0
 30
0
  9
$UCSORGRIGHT
 10
0
 20
0
 30
0
  9
$UCSORGFRONT
 10
0
 20
0
 30
0
  9
$UCSORGBACK
 10
0
 20
0
 30
0
  9
$PUCSBASE
  2

  9
$PUCSNAME
  2

  9
$PUCSORG
 10
0
 20
0
 30
0
  9
$PUCSXDIR
 10
1
 20
0
 30
0
  9
$PUCSYDIR
 10
0
 20
1
 30
0
  9
$PUCSORTHOREF
  2

  9
$PUCSORTHOVIEW
 70
    0
  9
$PUCSORGTOP
 10
0
 20
0
 30
0
  9
$PUCSORGBOTTOM
 10
0
 20
0
 30
0
  9
$PUCSORGLEFT
 10
0
 20
0
 30
0
  9
$PUCSORGRIGHT
 10
0
 20
0
 30
0
  9
$PUCSORGFRONT
 10
0
 20
0
 30
0
  9
$PUCSORGBACK
 10
0
 20
0
 30
0
  9
$USERI1
 70
    0
  9
$USERI2
 70
    0
  9
$USERI3
 70
    0
  9
$USERI4
 70
    0
  9
$USERI5
 70
    0
  9
$USERR1
 40
0
  9
$USERR2
 40
0
  9
$USERR3
 40
0
  9
$USERR4
 40
0
  9
$USERR5
 40
0
  9
$WORLDVIEW
 70
    1
  9
$SHADEDGE
 70
    3
  9
$SHADEDIF
 70
   70
  9
$TILEMODE
 70
    1
  9
$MAXACTVP
 70
   64
  9
$PINSBASE
 10
0
 20
0
 30
0
  9
$PLIMCHECK
 70
    0
  9
$PEXTMIN
 10
0
 20
0
 30
0
  9
$PEXTMAX
 10
0
 20
0
 30
0
  9
$GRIDMODE
 70
    1
  9
$SNAPSTYLE
 70
    0
  9
$PLIMMIN
 10
0
 20
0
  9
$PLIMMAX
 10
297
 20
210
  9
$UNITMODE
 70
    0
  9
$VISRETAIN
 70
    1
  9
$PLINEGEN
 70
    0
  9
$PSLTSCALE
 70
    1
  9
$TREEDEPTH
 70
 3020
  9
$CMLSTYLE
  2
Standard
  9
$CMLJUST
 70
    0
  9
$CMLSCALE
 40
20
  9
$PROXYGRAPHICS
 70
    1
  9
$MEASUREMENT
 70
    1
  9
$CELWEIGHT
370
   -1
  9
$ENDCAPS
280
    0
  9
$JOINSTYLE
280
    0
  9
$LWDISPLAY
290
    0
  9
$INSUNITS
 70
    4
  9
$HYPERLINKBASE
  1

  9
$STYLESHEET
  1

  9
$XEDIT
290
    1
  9
$CEPSNTYPE
380
    0
  9
$PSTYLEMODE
290
    1
  9
$EXTNAMES
290
    1
  9
$PSVPSCALE
 40
1
  9
$OLESTARTUP
290
    0
  9
$SORTENTS
280
  127
  9
$INDEXCTL
280
    0
  9
$HIDETEXT
280
    1
  9
$XCLIPFRAME
290
    0
  9
$HALOGAP
280
    0
  9
$OBSCOLOR
 70
  257
  9
$OBSLTYPE
280
    0
  9
$INTERSECTIONDISPLAY
280
    0
  9
$INTERSECTIONCOLOR
 70
  257
  9
$DIMASSOC
280
    1
  9
$PROJECTNAME
  1

  9
$CAMERADISPLAY
290
    0
  9
$LENSLENGTH
 40
50
  9
$CAMERAHEIGHT
 40
0
  9
$STEPSPERSEC
 40
2
  9
$STEPSIZE
 40
50
  9
$3DDWFPREC
 40
2
  9
$PSOLWIDTH
 40
5
  9
$PSOLHEIGHT
 40
80
  9
$LOFTANG1
 40
1.570796326794897
  9
$LOFTANG2
 40
1.570796326794897
  9
$LOFTMAG1
 40
0
  9
$LOFTMAG2
 40
0
  9
$LOFTPARAM
 70
    7
  9
$LOFTNORMALS
280
    1
  9
$LATITUDE
 40
1
  9
$LONGITUDE
 40
1
  9
$NORTHDIRECTION
 40
0
  9
$TIMEZONE
 70
-8000
  9
$LIGHTGLYPHDISPLAY
280
    1
  9
$TILEMODELIGHTSYNCH
280
    1
  9
$SOLIDHIST
280
    1
  9
$SHOWHIST
280
    1
  9
$DWFFRAME
280
    2
  9
$DGNFRAME
280
    0
  9
$REALWORLDSCALE
290
    1
  9
$INTERFERECOLOR
 62
    1
  9
$CSHADOW
280
    0
  9
$SHADOWPLANELOCATION
 40
0
  0
ENDSEC
  0
SECTION
  2
CLASSES
  0
ENDSEC
  0
SECTION
  2
TABLES
  0
TABLE
  2
VPORT
  5
8
330
0
100
AcDbSymbolTable
 70
    1
  0
VPORT
  5
31
330
2
100
AcDbSymbolTableRecord
100
AcDbViewportTableRecord
  2
*ACTIVE
 70
    0
 10
0
 20
0
 11
1
 21
1
 12
111.5274504474709
 22
0.2542419083149032
 13
0
 23
0
 14
10
 24
10
 15
10
 25
10
 16
0
 26
0
 36
1
 17
0
 27
0
 37
0
 40
146.9518230060141
 41
1.794694348327566
 42
50
 43
0
 44
0
 50
0
 51
0
 71
    0
 72
  100
 73
    1
 74
    3
 75
    0
 76
    1
 77
    0
 78
    0
281
    0
 65
    1
110
0
120
0
130
0
111
1
121
0
131
0
112
0
122
1
132
0
 79
    0
146
0
348
10020
 60
    7
 61
    5
292
1
282
    1
141
0
142
0
 63
  250
421
3358443
  0
ENDTAB
  0
TABLE
  2
LTYPE
  5
5
330
0
100
AcDbSymbolTable
 70
    4
  0
LTYPE
  5
14
330
5
100
AcDbSymbolTableRecord
100
AcDbLinetypeTableRecord
  2
ByBlock
 70
    0
  3

 72
   65
 73
    0
 40
0
  0
LTYPE
  5
15
330
5
100
AcDbSymbolTableRecord
100
AcDbLinetypeTableRecord
  2
ByLayer
 70
    0
  3

 72
   65
 73
    0
 40
0
  0
LTYPE
  5
16
330
5
100
AcDbSymbolTableRecord
100
AcDbLinetypeTableRecord
  2
Continuous
 70
    0
  3
Solid line
 72
   65
 73
    0
 40
0
  0
LTYPE
  5
32
330
5
100
AcDbSymbolTableRecord
100
AcDbLinetypeTableRecord
  2
DOT
 70
    0
  3
Dot . . . . . . . . . . . . . . . . . . . . . .
 72
   65
 73
    2
 40
6.35
 49
0
 74
    0
 49
-6.35
 74
    0
  0
LTYPE
  5
33
330
5
100
AcDbSymbolTableRecord
100
AcDbLinetypeTableRecord
  2
DOTTINY
 70
    0
  3
Dot (.15x) .....................................
 72
   65
 73
    2
 40
0.9525
 49
0
 74
    0
 49
-0.9525
 74
    0
  0
LTYPE
  5
34
330
5
100
AcDbSymbolTableRecord
100
AcDbLinetypeTableRecord
  2
DOT2
 70
    0
  3
Dot (.5x) .....................................
 72
   65
 73
    2
 40
3.175
 49
0
 74
    0
 49
-3.175
 74
    0
  0
LTYPE
  5
35
330
5
100
AcDbSymbolTableRecord
100
AcDbLinetypeTableRecord
  2
DOTX2
 70
    0
  3
Dot (2x) .  .  .  .  .  .  .  .  .  .  .  .  .
 72
   65
 73
    2
 40
12.7
 49
0
 74
    0
 49
-12.7
 74
    0
  0
LTYPE
  5
36
330
5
100
AcDbSymbolTableRecord
100
AcDbLinetypeTableRecord
  2
DASHED
 70
    0
  3
Dashed _ _ _ _ _ _ _ _ _ _ _ _ _ _ _ _ _
 72
   65
 73
    2
 40
19.05
 49
12.7
 74
    0
 49
-6.35
 74
    0
  0
LTYPE
  5
37
330
5
100
AcDbSymbolTableRecord
100
AcDbLinetypeTableRecord
  2
DASHEDTINY
 70
    0
  3
Dashed (.15x) _ _ _ _ _ _ _ _ _ _ _ _ _ _ _ _ _
 72
   65
 73
    2
 40
2.8575
 49
1.905
 74
    0
 49
-0.9525
 74
    0
  0
LTYPE
  5
38
330
5
100
AcDbSymbolTableRecord
100
AcDbLinetypeTableRecord
  2
DASHED2
 70
    0
  3
Dashed (.5x) _ _ _ _ _ _ _ _ _ _ _ _ _ _ _ _ _
 72
   65
 73
    2
 40
9.524999999999999
 49
6.35
 74
    0
 49
-3.175
 74
    0
  0
LTYPE
  5
39
330
5
100
AcDbSymbolTableRecord
100
AcDbLinetypeTableRecord
  2
DASHEDX2
 70
    0
  3
Dashed (2x) ____  ____  ____  ____  ____  ___
 72
   65
 73
    2
 40
38.09999999999999
 49
25.4
 74
    0
 49
-12.7
 74
    0
  0
LTYPE
  5
3A
330
5
100
AcDbSymbolTableRecord
100
AcDbLinetypeTableRecord
  2
DASHDOT
 70
    0
  3
Dash dot __ . __ . __ . __ . __ . __ . __ . __
 72
   65
 73
    4
 40
25.4
 49
12.7
 74
    0
 49
-6.35
 74
    0
 49
0
 74
    0
 49
-6.35
 74
    0
  0
LTYPE
  5
3B
330
5
100
AcDbSymbolTableRecord
100
AcDbLinetypeTableRecord
  2
DASHDOTTINY
 70
    0
  3
Dash dot (.15x) _._._._._._._._._._._._._._._.
 72
   65
 73
    4
 40
3.81
 49
1.905
 74
    0
 49
-0.9525
 74
    0
 49
0
 74
    0
 49
-0.9525
 74
    0
  0
LTYPE
  5
3C
330
5
100
AcDbSymbolTableRecord
100
AcDbLinetypeTableRecord
  2
DASHDOT2
 70
    0
  3
Dash dot (.5x) _._._._._._._._._._._._._._._.
 72
   65
 73
    4
 40
12.7
 49
6.35
 74
    0
 49
-3.175
 74
    0
 49
0
 74
    0
 49
-3.175
 74
    0
  0
LTYPE
  5
3D
330
5
100
AcDbSymbolTableRecord
100
AcDbLinetypeTableRecord
  2
DASHDOTX2
 70
    0
  3
Dash dot (2x) ____  .  ____  .  ____  .  ___
 72
   65
 73
    4
 40
50.8
 49
25.4
 74
    0
 49
-12.7
 74
    0
 49
0
 74
    0
 49
-12.7
 74
    0
  0
LTYPE
  5
3E
330
5
100
AcDbSymbolTableRecord
100
AcDbLinetypeTableRecord
  2
DIVIDE
 70
    0
  3
Divide ____ . . ____ . . ____ . . ____ . . ____
 72
   65
 73
    6
 40
31.75
 49
12.7
 74
    0
 49
-6.35
 74
    0
 49
0
 74
    0
 49
-6.35
 74
    0
 49
0
 74
    0
 49
-6.35
 74
    0
  0
LTYPE
  5
3F
330
5
100
AcDbSymbolTableRecord
100
AcDbLinetypeTableRecord
  2
DIVIDETINY
 70
    0
  3
Divide (.15x) __..__..__..__..__..__..__..__.._
 72
   65
 73
    6
 40
4.7625
 49
1.905
 74
    0
 49
-0.9525
 74
    0
 49
0
 74
    0
 49
-0.9525
 74
    0
 49
0
 74
    0
 49
-0.9525
 74
    0
  0
LTYPE
  5
40
330
5
100
AcDbSymbolTableRecord
100
AcDbLinetypeTableRecord
  2
DIVIDE2
 70
    0
  3
Divide (.5x) __..__..__..__..__..__..__..__.._
 72
   65
 73
    6
 40
15.875
 49
6.35
 74
    0
 49
-3.175
 74
    0
 49
0
 74
    0
 49
-3.175
 74
    0
 49
0
 74
    0
 49
-3.175
 74
    0
  0
LTYPE
  5
41
330
5
100
AcDbSymbolTableRecord
100
AcDbLinetypeTableRecord
  2
DIVIDEX2
 70
    0
  3
Divide (2x) ________  .  .  ________  .  .  _
 72
   65
 73
    6
 40
63.5
 49
25.4
 74
    0
 49
-12.7
 74
    0
 49
0
 74
    0
 49
-12.7
 74
    0
 49
0
 74
    0
 49
-12.7
 74
    0
  0
LTYPE
  5
42
330
5
100
AcDbSymbolTableRecord
100
AcDbLinetypeTableRecord
  2
BORDER
 70
    0
  3
Border __ __ . __ __ . __ __ . __ __ . __ __ .
 72
   65
 73
    6
 40
44.45
 49
12.7
 74
    0
 49
-6.35
 74
    0
 49
12.7
 74
    0
 49
-6.35
 74
    0
 49
0
 74
    0
 49
-6.35
 74
    0
  0
LTYPE
  5
43
330
5
100
AcDbSymbolTableRecord
100
AcDbLinetypeTableRecord
  2
BORDERTINY
 70
    0
  3
Border (.15x) __.__.__.__.__.__.__.__.__.__.__.
 72
   65
 73
    6
 40
6.6675
 49
1.905
 74
    0
 49
-0.9525
 74
    0
 49
1.905
 74
    0
 49
-0.9525
 74
    0
 49
0
 74
    0
 49
-0.9525
 74
    0
  0
LTYPE
  5
44
330
5
100
AcDbSymbolTableRecord
100
AcDbLinetypeTableRecord
  2
BORDER2
 70
    0
  3
Border (.5x) __.__.__.__.__.__.__.__.__.__.__.
 72
   65
 73
    6
 40
22.225
 49
6.35
 74
    0
 49
-3.175
 74
    0
 49
6.35
 74
    0
 49
-3.175
 74
    0
 49
0
 74
    0
 49
-3.175
 74
    0
  0
LTYPE
  5
45
330
5
100
AcDbSymbolTableRecord
100
AcDbLinetypeTableRecord
  2
BORDERX2
 70
    0
  3
Border (2x) ____  ____  .  ____  ____  .  ___
 72
   65
 73
    6
 40
88.89999999999999
 49
25.4
 74
    0
 49
-12.7
 74
    0
 49
25.4
 74
    0
 49
-12.7
 74
    0
 49
0
 74
    0
 49
-12.7
 74
    0
  0
LTYPE
  5
46
330
5
100
AcDbSymbolTableRecord
100
AcDbLinetypeTableRecord
  2
CENTER
 70
    0
  3
Center ____ _ ____ _ ____ _ ____ _ ____ _ ____
 72
   65
 73
    4
 40
50.8
 49
31.75
 74
    0
 49
-6.35
 74
    0
 49
6.35
 74
    0
 49
-6.35
 74
    0
  0
LTYPE
  5
47
330
5
100
AcDbSymbolTableRecord
100
AcDbLinetypeTableRecord
  2
CENTERTINY
 70
    0
  3
Center (.15x) ___ _ ___ _ ___ _ ___ _ ___ _ ___
 72
   65
 73
    4
 40
7.62
 49
4.7625
 74
    0
 49
-0.9525
 74
    0
 49
0.9525
 74
    0
 49
-0.9525
 74
    0
  0
LTYPE
  5
48
330
5
100
AcDbSymbolTableRecord
100
AcDbLinetypeTableRecord
  2
CENTER2
 70
    0
  3
Center (.5x) ___ _ ___ _ ___ _ ___ _ ___ _ ___
 72
   65
 73
    4
 40
28.575
 49
19.05
 74
    0
 49
-3.175
 74
    0
 49
3.175
 74
    0
 49
-3.175
 74
    0
  0
LTYPE
  5
49
330
5
100
AcDbSymbolTableRecord
100
AcDbLinetypeTableRecord
  2
CENTERX2
 70
    0
  3
Center (2x) ________  __  ________  __  _____
 72
   65
 73
    4
 40
101.6
 49
63.5
 74
    0
 49
-12.7
 74
    0
 49
12.7
 74
    0
 49
-12.7
 74
    0
  0
ENDTAB
  0
TABLE
  2
LAYER
  5
2
330
0
100
AcDbSymbolTable
 70
    1
  0
LAYER
  5
10
330
2
100
AcDbSymbolTableRecord
100
AcDbLayerTableRecord
  2
0
 70
    0
 62
  256
  6
CONTINUOUS
370
   -3
390
F
  0
ENDTAB
  0
TABLE
  2
STYLE
  5
3
330
0
100
AcDbSymbolTable
 70
    3
  0
STYLE
  5
4A
330
2
100
AcDbSymbolTableRecord
100
AcDbTextStyleTableRecord
  2
Standard
 70
    0
 40
0
 41
1
 50
0
 71
    0
 42
1
  3
txt
  4

  0
ENDTAB
  0
TABLE
  2
VIEW
  5
6
330
0
100
AcDbSymbolTable
 70
    0
  0
ENDTAB
  0
TABLE
  2
UCS
  5
7
330
0
100
AcDbSymbolTable
 70
    0
  0
ENDTAB
  0
TABLE
  2
APPID
  5
9
330
0
100
AcDbSymbolTable
 70
    1
  0
APPID
  5
12
330
9
100
AcDbSymbolTableRecord
100
AcDbRegAppTableRecord
  2
ACAD
 70
    0
  0
APPID
  5
4B
330
9
100
AcDbSymbolTableRecord
100
AcDbRegAppTableRecord
  2
LibreCad
 70
    0
  0
ENDTAB
  0
TABLE
  2
DIMSTYLE
  5
A
330
0
100
AcDbSymbolTable
 70
    1
100
AcDbDimStyleTable
 71
    1
  0
DIMSTYLE
105
4C
330
A
100
AcDbSymbolTableRecord
100
AcDbDimStyleTableRecord
  2
Standard
 70
    0
 40
1
 41
2.5
 42
0.625
 43
0.38
 44
1.25
 45
0
 46
0
 47
0
 48
0
 49
1
140
2.5
141
0.09
142
0
143
25.4
144
1
145
0
146
1
147
0.625
148
0
 71
    0
 72
    0
 73
    1
 74
    1
 75
    0
 76
    0
 77
    0
 78
    8
 79
    0
170
    0
171
    2
172
    0
173
    0
174
    0
175
    0
176
    0
177
    0
178
    0
179
    0
271
    4
272
    4
273
    2
274
    2
275
    0
276
    0
277
    2
278
    0
279
    0
280
    0
281
    0
282
    0
283
    1
284
    0
285
    0
286
    0
288
    0
289
    3
340
standard
341

371
   -2
372
   -2
  0
ENDTAB
  0
TABLE
  2
BLOCK_RECORD
  5
1
330
0
100
AcDbSymbolTable
 70
    2
  0
BLOCK_RECORD
  5
1F
330
1
100
AcDbSymbolTableRecord
100
AcDbBlockTableRecord
  2
*Model_Space
 70
    0
280
    1
281
    0
  0
BLOCK_RECORD
  5
1E
330
1
100
AcDbSymbolTableRecord
100
AcDbBlockTableRecord
  2
*Paper_Space
 70
    0
280
    1
281
    0
  0
ENDTAB
  0
ENDSEC
  0
SECTION
  2
BLOCKS
  0
BLOCK
  5
20
330
1F
100
AcDbEntity
  8
0
100
AcDbBlockBegin
  2
*Model_Space
 70
    0
 10
0
 20
0
 30
0
  3
*Model_Space
  1

  0
ENDBLK
  5
21
330
1F
100
AcDbEntity
  8
0
100
AcDbBlockEnd
  0
BLOCK
  5
1C
330
1B
100
AcDbEntity
  8
0
100
AcDbBlockBegin
  2
*Paper_Space
 70
    0
 10
0
 20
0
 30
0
  3
*Paper_Space
  1

  0
ENDBLK
  5
1D
330
1F
100
AcDbEntity
  8
0
100
AcDbBlockEnd
  0
ENDSEC
  0
SECTION
  2
ENTITIES
  0
CIRCLE
  5
4D
100
AcDbEntity
  8
0
  6
ByLayer
 62
  256
370
   -1
100
AcDbCircle
 10
14.75999999999999
 20
-17.24000000000001
 40
1
  0
CIRCLE
  5
4E
100
AcDbEntity
  8
0
  6
ByLayer
 62
  256
370
   -1
100
AcDbCircle
 10
14.76
 20
-8.759999999999998
 40
1
  0
CIRCLE
  5
4F
100
AcDbEntity
  8
0
  6
ByLayer
 62
  256
370
   -1
100
AcDbCircle
 10
23.24
 20
-17.23999999999999
 40
1
  0
CIRCLE
  5
50
100
AcDbEntity
  8
0
  6
ByLayer
 62
  256
370
   -1
100
AcDbCircle
 10
23.23999999999999
 20
-8.760000000000012
 40
1
  0
CIRCLE
  5
51
100
AcDbEntity
  8
0
  6
ByLayer
 62
  256
370
   -1
100
AcDbCircle
 10
19
 20
-13
 40
2.5
  0
CIRCLE
  5
52
100
AcDbEntity
  8
0
  6
ByLayer
 62
  256
370
   -1
100
AcDbCircle
 10
99.9914596076834
 20
-13.00000000000001
 40
1.5
  0
CIRCLE
  5
53
100
AcDbEntity
  8
0
  6
ByLayer
 62
  256
370
   -1
100
AcDbCircle
 10
109
 20
-13.00000000000001
 40
1.5
  0
CIRCLE
  5
54
100
AcDbEntity
  8
0
  6
ByLayer
 62
  256
370
   -1
100
AcDbCircle
 10
14.75999999999999
 20
-44.24000000000001
 40
1
  0
CIRCLE
  5
55
100
AcDbEntity
  8
0
  6
ByLayer
 62
  256
370
   -1
100
AcDbCircle
 10
14.76
 20
-35.76
 40
1
  0
CIRCLE
  5
56
100
AcDbEntity
  8
0
  6
ByLayer
 62
  256
370
   -1
100
AcDbCircle
 10
23.24
 20
-44.23999999999999
 40
1
  0
CIRCLE
  5
57
100
AcDbEntity
  8
0
  6
ByLayer
 62
  256
370
   -1
100
AcDbCircle
 10
23.23999999999999
 20
-35.76000000000001
 40
1
  0
CIRCLE
  5
58
100
AcDbEntity
  8
0
  6
ByLayer
 62
  256
370
   -1
100
AcDbCircle
 10
19
 20
-40
 40
2.5
  0
CIRCLE
  5
59
100
AcDbEntity
  8
0
  6
ByLayer
 62
  256
370
   -1
100
AcDbCircle
 10
99.9914596076834
 20
-40.00000000000001
 40
1.5
  0
CIRCLE
  5
5A
100
AcDbEntity
  8
0
  6
ByLayer
 62
  256
370
   -1
100
AcDbCircle
 10
109
 20
-40.00000000000001
 40
1.5
  0
CIRCLE
  5
5B
100
AcDbEntity
  8
0
  6
ByLayer
 62
  256
370
   -1
100
AcDbCircle
 10
130.24
 20
-48.76000000000002
 40
1
  0
CIRCLE
  5
5C
100
AcDbEntity
  8
0
  6
ByLayer
 62
  256
370
   -1
100
AcDbCircle
 10
130.24
 20
-57.24000000000004
 40
1
  0
CIRCLE
  5
5D
100
AcDbEntity
  8
0
  6
ByLayer
 62
  256
370
   -1
100
AcDbCircle
 10
121.76
 20
-48.76000000000003
 40
1
  0
CIRCLE
  5
5E
100
AcDbEntity
  8
0
  6
ByLayer
 62
  256
370
   -1
100
AcDbCircle
 10
121.76
 20
-57.24000000000001
 40
1
  0
CIRCLE
  5
5F
100
AcDbEntity
  8
0
  6
ByLayer
 62
  256
370
   -1
100
AcDbCircle
 10
126
 20
-53.00000000000003
 40
2.5
  0
CIRCLE
  5
60
100
AcDbEntity
  8
0
  6
ByLayer
 62
  256
370
   -1
100
AcDbCircle
 10
45.0085403923166
 20
-53
 40
1.5
  0
CIRCLE
  5
61
100
AcDbEntity
  8
0
  6
ByLayer
 62
  256
370
   -1
100
AcDbCircle
 10
36
 20
-53
 40
1.5
  0
LWPOLYLINE
  5
62
100
AcDbEntity
  8
0
  6
ByLayer
 62
  256
370
   -1
100
AcDbPolyline
 90
  113
 70
    0
 43
0
 10
36.00000000000006
 20
-48.76000000000002
 10
49.88114589368746
 20
-48.75247378095851
 10
62.23285683450197
 20
-48.74726134100975
 10
73.0551328224434
 20
-48.74436268015377
 10
82.34797385751202
 20
-48.74377779839067
 10
90.11137993970769
 20
-48.74550669572029
 10
96.34535106903041
 20
-48.74954937214275
 10
101.0498872454802
 20
-48.755905827658
 10
104.2249884690571
 20
-48.76457606226604
 10
106.5271327434729
 20
-48.7331919935913
 10
108.6127980724395
 20
-48.61938553925823
 10
110.481984455957
 20
-48.42315669926684
 10
112.1346918940253
 20
-48.14450547361709
 10
113.5709203866445
 20
-47.78343186230899
 10
114.7906699338144
 20
-47.33993586534254
 10
115.7939405355353
 20
-46.81401748271777
 10
116.5807321918069
 20
-46.20567671443465
 10
117.2514046184314
 20
-45.57765843181866
 10
117.9063175312108
 20
-44.99270750619534
 10
118.5454709301451
 20
-44.45082393756469
 10
119.1688648152343
 20
-43.95200772592666
 10
119.7764991864785
 20
-43.49625887128131
 10
120.3683740438775
 20
-43.08357737362859
 10
120.9444893874315
 20
-42.71396323296852
 10
121.5048452171404
 20
-42.38741644930111
 10
122.0672762865109
 20
-42.10352758513703
 10
122.6496173490498
 20
-41.86188720298696
 10
123.251868404757
 20
-41.66249530285091
 10
123.8740294536327
 20
-41.50535188472887
 10
124.5161004956767
 20
-41.39045694862085
 10
125.178081530889
 20
-41.31781049452684
 10
125.8599725592697
 20
-41.28741252244683
 10
126.5617735808188
 20
-41.29926303238085
 10
127.2891693889522
 20
-41.36454213127359
 10
128.0478447770858
 20
-41.49442992606978
 10
128.8377997452196
 20
-41.68892641676943
 10
129.6590342933537
 20
-41.94803160337254
 10
130.5115484214881
 20
-42.27174548587908
 10
131.3953421296227
 20
-42.66006806428909
 10
132.3104154177575
 20
-43.11299933860252
 10
133.2567682858925
 20
-43.63053930881942
 10
134.2132326833057
 20
-44.17613179756528
 10
135.1586405592749
 20
-44.71322062746553
 10
136.0929919138001
 20
-45.24180579852023
 10
137.0162867468814
 20
-45.76188731072936
 10
137.9285250585187
 20
-46.27346516409293
 10
138.8297068487121
 20
-46.7765393586109
 10
139.7198321174615
 20
-47.27110989428333
 10
140.5989008647669
 20
-47.75717677111017
 10
141.4178450709389
 20
-48.26068405054012
 10
142.1275967162879
 20
-48.80757579402187
 10
142.728155800814
 20
-49.39785200155542
 10
143.2195223245172
 20
-50.03151267314075
 10
143.6016962873974
 20
-50.70855780877787
 10
143.8746776894548
 20
-51.42898740846681
 10
144.0384665306892
 20
-52.19280147220752
 10
144.0930628111006
 20
-53.00000000000003
 10
144.0384665306892
 20
-53.80719852779252
 10
143.8746776894548
 20
-54.57101259153323
 10
143.6016962873974
 20
-55.29144219122216
 10
143.2195223245172
 20
-55.9684873268593
 10
142.728155800814
 20
-56.60214799844462
 10
142.1275967162879
 20
-57.19242420597817
 10
141.4178450709389
 20
-57.73931594945992
 10
140.5989008647669
 20
-58.24282322888988
 10
139.7198321174615
 20
-58.72889010571672
 10
138.8297068487121
 20
-59.22346064138914
 10
137.9285250585187
 20
-59.72653483590713
 10
137.0162867468814
 20
-60.23811268927068
 10
136.0929919138001
 20
-60.75819420147982
 10
135.1586405592749
 20
-61.28677937253451
 10
134.2132326833057
 20
-61.82386820243478
 10
133.2567682858925
 20
-62.36946069118062
 10
132.3104154177574
 20
-62.88700066139752
 10
131.3953421296226
 20
-63.33993193571098
 10
130.5115484214881
 20
-63.72825451412098
 10
129.6590342933537
 20
-64.0519683966275
 10
128.8377997452196
 20
-64.31107358323061
 10
128.0478447770858
 20
-64.50557007393027
 10
127.2891693889522
 20
-64.63545786872646
 10
126.5617735808188
 20
-64.70073696761921
 10
125.8599725592697
 20
-64.71258747755321
 10
125.178081530889
 20
-64.68218950547322
 10
124.5161004956767
 20
-64.60954305137919
 10
123.8740294536327
 20
-64.49464811527118
 10
123.251868404757
 20
-64.33750469714913
 10
122.6496173490498
 20
-64.13811279701309
 10
122.0672762865109
 20
-63.89647241486301
 10
121.5048452171404
 20
-63.61258355069893
 10
120.9444893874315
 20
-63.28603676703152
 10
120.3683740438775
 20
-62.91642262637146
 10
119.7764991864785
 20
-62.50374112871873
 10
119.1688648152343
 20
-62.04799227407337
 10
118.5454709301451
 20
-61.54917606243535
 10
117.9063175312108
 20
-61.0072924938047
 10
117.2514046184314
 20
-60.42234156818139
 10
116.5807321918069
 20
-59.79432328556541
 10
115.7939405355352
 20
-59.1859825172823
 10
114.7906699338144
 20
-58.66006413465752
 10
113.5709203866445
 20
-58.21656813769107
 10
112.1346918940253
 20
-57.85549452638297
 10
110.481984455957
 20
-57.5768433007332
 10
108.6127980724395
 20
-57.38061446074181
 10
106.5271327434729
 20
-57.26680800640874
 10
104.2249884690571
 20
-57.235423937734
 10
101.0498872454802
 20
-57.24409417234205
 10
96.34535106903041
 20
-57.2504506278573
 10
90.11137993970769
 20
-57.25449330427973
 10
82.34797385751202
 20
-57.2562222016094
 10
73.05513282244343
 20
-57.25563731984629
 10
62.23285683450189
 20
-57.25273865899034
 10
49.8811458936874
 20
-57.24752621904157
 10
36
 20
-57.24000000000005
  0
LWPOLYLINE
  5
63
100
AcDbEntity
  8
0
  6
ByLayer
 62
  256
370
   -1
100
AcDbPolyline
 90
    2
 70
    0
 43
0
 10
36.00000000000003
 20
-48.75999999999997
 42
0.9999999999999977
 10
35.99999999999995
 20
-57.24
 42
0.9999999999999977
  0
CIRCLE
  5
64
100
AcDbEntity
  8
0
  6
ByLayer
 62
  256
370
   -1
100
AcDbCircle
 10
130.24
 20
-21.76000000000002
 40
1
  0
CIRCLE
  5
65
100
AcDbEntity
  8
0
  6
ByLayer
 62
  256
370
   -1
100
AcDbCircle
 10
130.24
 20
-30.24000000000004
 40
1
  0
CIRCLE
  5
66
100
AcDbEntity
  8
0
  6
ByLayer
 62
  256
370
   -1
100
AcDbCircle
 10
121.76
 20
-21.76000000000002
 40
1
  0
CIRCLE
  5
67
100
AcDbEntity
  8
0
  6
ByLayer
 62
  256
370
   -1
100
AcDbCircle
 10
121.76
 20
-30.24000000000001
 40
1
  0
CIRCLE
  5
68
100
AcDbEntity
  8
0
  6
ByLayer
 62
  256
370
   -1
100
AcDbCircle
 10
126
 20
-26.00000000000003
 40
2.5
  0
CIRCLE
  5
69
100
AcDbEntity
  8
0
  6
ByLayer
 62
  256
370
   -1
100
AcDbCircle
 10
45.0085403923166
 20
-26
 40
1.5
  0
CIRCLE
  5
6A
100
AcDbEntity
  8
0
  6
ByLayer
 62
  256
370
   -1
100
AcDbCircle
 10
36
 20
-26
 40
1.5
  0
CIRCLE
  5
6B
100
AcDbEntity
  8
0
  6
ByLayer
 62
  256
370
   -1
100
AcDbCircle
 10
5
 20
-72
 40
1
  0
CIRCLE
  5
6C
100
AcDbEntity
  8
0
  6
ByLayer
 62
  256
370
   -1
100
AcDbCircle
 10
16.99253100892385
 20
-72
 40
1
  0
CIRCLE
  5
6D
100
AcDbEntity
  8
0
  6
ByLayer
 62
  256
370
   -1
100
AcDbCircle
 10
165.1448295356357
 20
-72
 40
1
  0
CIRCLE
  5
6E
100
AcDbEntity
  8
0
  6
ByLayer
 62
  256
370
   -1
100
AcDbCircle
 10
177.1373605445595
 20
-72
 40
1
  0
CIRCLE
  5
6F
100
AcDbEntity
  8
0
  6
ByLayer
 62
  256
370
   -1
100
AcDbCircle
 10
5
 20
-83
 40
1
  0
CIRCLE
  5
70
100
AcDbEntity
  8
0
  6
ByLayer
 62
  256
370
   -1
100
AcDbCircle
 10
16.99253100892385
 20
-83
 40
1
  0
CIRCLE
  5
71
100
AcDbEntity
  8
0
  6
ByLayer
 62
  256
370
   -1
100
AcDbCircle
 10
165.1448295356357
 20
-83
 40
1
  0
CIRCLE
  5
72
100
AcDbEntity
  8
0
  6
ByLayer
 62
  256
370
   -1
100
AcDbCircle
 10
177.1373605445595
 20
-83
 40
1
  0
CIRCLE
  5
73
100
AcDbEntity
  8
0
  6
ByLayer
 62
  256
370
   -1
100
AcDbCircle
 10
28.3046717087978
 20
-117.8046717087977
 40
5.119751269282875
  0
CIRCLE
  5
74
100
AcDbEntity
  8
0
  6
ByLayer
 62
  256
370
   -1
100
AcDbCircle
 10
38.3046717087978
 20
-107.8046717087977
 40
1
  0
CIRCLE
  5
75
100
AcDbEntity
  8
0
  6
ByLayer
 62
  256
370
   -1
100
AcDbCircle
 10
44.73934341759539
 20
-101.3700000000001
 40
1.5
  0
CIRCLE
  5
76
100
AcDbEntity
  8
0
  6
ByLayer
 62
  256
370
   -1
100
AcDbCircle
 10
51.10934341759551
 20
-94.9999999999999
 40
1.5
  0
CIRCLE
  5
77
100
AcDbEntity
  8
0
  6
ByLayer
 62
  256
370
   -1
100
AcDbCircle
 10
18.3046717087978
 20
-107.8046717087977
 40
1
  0
CIRCLE
  5
78
100
AcDbEntity
  8
0
  6
ByLayer
 62
  256
370
   -1
100
AcDbCircle
 10
11.8700000000002
 20
-101.3700000000001
 40
1.5
  0
CIRCLE
  5
79
100
AcDbEntity
  8
0
  6
ByLayer
 62
  256
370
   -1
100
AcDbCircle
 10
5.5
 20
-95
 40
1.5
  0
CIRCLE
  5
7A
100
AcDbEntity
  8
0
  6
ByLayer
 62
  256
370
   -1
100
AcDbCircle
 10
18.3046717087978
 20
-127.8046717087977
 40
1
  0
CIRCLE
  5
7B
100
AcDbEntity
  8
0
  6
ByLayer
 62
  256
370
   -1
100
AcDbCircle
 10
11.8700000000002
 20
-134.2393434175953
 40
1.5
  0
CIRCLE
  5
7C
100
AcDbEntity
  8
0
  6
ByLayer
 62
  256
370
   -1
100
AcDbCircle
 10
5.500000000000099
 20
-140.6093434175955
 40
1.5
  0
CIRCLE
  5
7D
100
AcDbEntity
  8
0
  6
ByLayer
 62
  256
370
   -1
100
AcDbCircle
 10
38.3046717087978
 20
-127.8046717087977
 40
1
  0
CIRCLE
  5
7E
100
AcDbEntity
  8
0
  6
ByLayer
 62
  256
370
   -1
100
AcDbCircle
 10
44.73934341759539
 20
-134.2393434175953
 40
1.5
  0
CIRCLE
  5
7F
100
AcDbEntity
  8
0
  6
ByLayer
 62
  256
370
   -1
100
AcDbCircle
 10
51.1093434175956
 20
-140.6093434175954
 40
1.5
  0
CIRCLE
  5
80
100
AcDbEntity
  8
0
  6
ByLayer
 62
  256
370
   -1
100
AcDbCircle
 10
86.8046717087978
 20
-117.8046717087977
 40
5.119751269282875
  0
CIRCLE
  5
81
100
AcDbEntity
  8
0
  6
ByLayer
 62
  256
370
   -1
100
AcDbCircle
 10
96.8046717087978
 20
-107.8046717087977
 40
1
  0
CIRCLE
  5
82
100
AcDbEntity
  8
0
  6
ByLayer
 62
  256
370
   -1
100
AcDbCircle
 10
103.2393434175954
 20
-101.3700000000001
 40
1.5
  0
CIRCLE
  5
83
100
AcDbEntity
  8
0
  6
ByLayer
 62
  256
370
   -1
100
AcDbCircle
 10
109.6093434175955
 20
-94.9999999999999
 40
1.5
  0
CIRCLE
  5
84
100
AcDbEntity
  8
0
  6
ByLayer
 62
  256
370
   -1
100
AcDbCircle
 10
76.8046717087978
 20
-107.8046717087977
 40
1
  0
CIRCLE
  5
85
100
AcDbEntity
  8
0
  6
ByLayer
 62
  256
370
   -1
100
AcDbCircle
 10
70.3700000000002
 20
-101.3700000000001
 40
1.5
  0
CIRCLE
  5
86
100
AcDbEntity
  8
0
  6
ByLayer
 62
  256
370
   -1
100
AcDbCircle
 10
64
 20
-95
 40
1.5
  0
CIRCLE
  5
87
100
AcDbEntity
  8
0
  6
ByLayer
 62
  256
370
   -1
100
AcDbCircle
 10
76.8046717087978
 20
-127.8046717087977
 40
1
  0
CIRCLE
  5
88
100
AcDbEntity
  8
0
  6
ByLayer
 62
  256
370
   -1
100
AcDbCircle
 10
70.3700000000002
 20
-134.2393434175953
 40
1.5
  0
CIRCLE
  5
89
100
AcDbEntity
  8
0
  6
ByLayer
 62
  256
370
   -1
100
AcDbCircle
 10
64.0000000000001
 20
-140.6093434175955
 40
1.5
  0
CIRCLE
  5
8A
100
AcDbEntity
  8
0
  6
ByLayer
 62
  256
370
   -1
100
AcDbCircle
 10
96.8046717087978
 20
-127.8046717087977
 40
1
  0
CIRCLE
  5
8B
100
AcDbEntity
  8
0
  6
ByLayer
 62
  256
370
   -1
100
AcDbCircle
 10
103.2393434175954
 20
-134.2393434175953
 40
1.5
  0
CIRCLE
  5
8C
100
AcDbEntity
  8
0
  6
ByLayer
 62
  256
370
   -1
100
AcDbCircle
 10
109.6093434175956
 20
-140.6093434175954
 40
1.5
  0
CIRCLE
  5
8D
100
AcDbEntity
  8
0
  6
ByLayer
 62
  256
370
   -1
100
AcDbCircle
 10
122
 20
-95
 40
1.5
  0
CIRCLE
  5
8E
100
AcDbEntity
  8
0
  6
ByLayer
 62
  256
370
   -1
100
AcDbCircle
 10
154.8693434175952
 20
-95
 40
1.5
  0
CIRCLE
  5
8F
100
AcDbEntity
  8
0
  6
ByLayer
 62
  256
370
   -1
100
AcDbCircle
 10
154.8693434175952
 20
-127.8693434175952
 40
1.5
  0
CIRCLE
  5
90
100
AcDbEntity
  8
0
  6
ByLayer
 62
  256
370
   -1
100
AcDbCircle
 10
122
 20
-127.8693434175952
 40
1.5
  0
LWPOLYLINE
  5
91
100
AcDbEntity
  8
0
  6
ByLayer
 62
  256
370
   -1
100
AcDbPolyline
 90
  113
 70
    1
 43
0
 10
109.0000000000001
 20
-8.760000000000026
 42
-0.9999999999999999
 10
108.9999999999999
 20
-17.23999999999999
 10
95.11885410631254
 20
-17.2475262190415
 10
82.76714316549803
 20
-17.25273865899027
 10
71.9448671775566
 20
-17.25563731984626
 10
62.65202614248798
 20
-17.25622220160936
 10
54.88862006029232
 20
-17.25449330427973
 10
48.65464893096958
 20
-17.25045062785728
 10
43.9501127545198
 20
-17.24409417234203
 10
40.77501153094293
 20
-17.23542393773398
 10
38.47286725652712
 20
-17.26680800640872
 10
36.38720192756045
 20
-17.3806144607418
 10
34.51801554404297
 20
-17.57684330073319
 10
32.86530810597467
 20
-17.85549452638294
 10
31.42907961335553
 20
-18.21656813769104
 10
30.20933006618557
 20
-18.66006413465749
 10
29.20605946446475
 20
-19.18598251728226
 10
28.41926780819313
 20
-19.79432328556538
 10
27.74859538156864
 20
-20.42234156818137
 10
27.09368246878923
 20
-21.00729249380468
 10
26.45452906985491
 20
-21.54917606243534
 10
25.83113518476566
 20
-22.04799227407337
 10
25.22350081352152
 20
-22.50374112871872
 10
24.63162595612247
 20
-22.91642262637144
 10
24.0555106125685
 20
-23.2860367670315
 10
23.49515478285962
 20
-23.61258355069891
 10
22.9327237134891
 20
-23.896472414863
 10
22.35038265095021
 20
-24.13811279701306
 10
21.74813159524297
 20
-24.33750469714911
 10
21.12597054636736
 20
-24.49464811527116
 10
20.48389950432336
 20
-24.60954305137918
 10
19.82191846911102
 20
-24.68218950547319
 10
19.14002744073031
 20
-24.7125874775532
 10
18.43822641918122
 20
-24.70073696761918
 10
17.71083061104783
 20
-24.63545786872643
 10
16.95215522291422
 20
-24.50557007393024
 10
16.16220025478036
 20
-24.31107358323059
 10
15.34096570664626
 20
-24.05196839662749
 10
14.48845157851191
 20
-23.72825451412095
 10
13.60465787037734
 20
-23.33993193571094
 10
12.68958458224252
 20
-22.88700066139751
 10
11.74323171410748
 20
-22.36946069118061
 10
10.7867673166943
 20
-21.82386820243475
 10
9.841359440725093
 20
-21.2867793725345
 10
8.907008086199845
 20
-20.7581942014798
 10
7.983713253118559
 20
-20.23811268927066
 10
7.071474941481249
 20
-19.7265348359071
 10
6.170293151287893
 20
-19.22346064138912
 10
5.280167882538514
 20
-18.7288901057167
 10
4.401099135233103
 20
-18.24282322888986
 10
3.582154929061133
 20
-17.73931594945991
 10
2.872403283712103
 20
-17.19242420597816
 10
2.271844199185978
 20
-16.60214799844461
 10
1.780477675482807
 20
-15.96848732685928
 10
1.398303712602562
 20
-15.29144219122216
 10
1.125322310545243
 20
-14.57101259153322
 10
0.9615334693108437
 20
-13.80719852779251
 10
0.9069371888993771
 20
-13
 10
0.9615334693108437
 20
-12.19280147220751
 10
1.125322310545236
 20
-11.4289874084668
 10
1.398303712602562
 20
-10.70855780877786
 10
1.780477675482807
 20
-10.03151267314072
 10
2.271844199185992
 20
-9.397852001555407
 10
2.872403283712096
 20
-8.807575794021858
 10
3.58215492906114
 20
-8.260684050540114
 10
4.401099135233103
 20
-7.757176771110153
 10
5.280167882538514
 20
-7.271109894283306
 10
6.1702931512879
 20
-6.77653935861089
 10
7.071474941481256
 20
-6.273465164092897
 10
7.983713253118559
 20
-5.761887310729342
 10
8.907008086199852
 20
-5.241805798520204
 10
9.841359440725093
 20
-4.713220627465518
 10
10.78676731669432
 20
-4.176131797565247
 10
11.74323171410749
 20
-3.630539308819401
 10
12.68958458224255
 20
-3.112999338602506
 10
13.60465787037736
 20
-2.66006806428905
 10
14.48845157851193
 20
-2.271745485879059
 10
15.34096570664626
 20
-1.94803160337252
 10
16.16220025478036
 20
-1.688926416769412
 10
16.95215522291422
 20
-1.494429926069763
 10
17.71083061104785
 20
-1.364542131273566
 10
18.43822641918122
 20
-1.299263032380829
 10
19.14002744073031
 20
-1.287412522446814
 10
19.82191846911102
 20
-1.317810494526817
 10
20.48389950432336
 20
-1.390456948620837
 10
21.12597054636736
 20
-1.505351884728853
 10
21.74813159524297
 20
-1.6624953028509
 10
22.35038265095022
 20
-1.861887202986942
 10
22.9327237134891
 20
-2.103527585137016
 10
23.49515478285962
 20
-2.387416449301092
 10
24.0555106125685
 20
-2.71396323296851
 10
24.63162595612247
 20
-3.083577373628565
 10
25.22350081352152
 20
-3.496258871281292
 10
25.83113518476566
 20
-3.952007725926663
 10
26.45452906985491
 20
-4.450823937564671
 10
27.09368246878922
 20
-4.992707506195337
 10
27.74859538156863
 20
-5.577658431818641
 10
28.41926780819313
 20
-6.205676714434624
 10
29.20605946446477
 20
-6.814017482717738
 10
30.20933006618557
 20
-7.339935865342518
 10
31.42907961335552
 20
-7.783431862308959
 10
32.86530810597467
 20
-8.144505473617059
 10
34.51801554404297
 20
-8.423156699266826
 10
36.38720192756046
 20
-8.619385539258225
 10
38.47286725652712
 20
-8.733191993591291
 10
40.77501153094293
 20
-8.764576062266023
 10
43.9501127545198
 20
-8.755905827657983
 10
48.65464893096959
 20
-8.749549372142731
 10
54.88862006029232
 20
-8.745506695720294
 10
62.65202614248799
 20
-8.743777798390632
 10
71.94486717755657
 20
-8.744362680153742
 10
82.76714316549811
 20
-8.747261341009683
 10
95.11885410631263
 20
-8.752473780958439
  0
LWPOLYLINE
  5
92
100
AcDbEntity
  8
0
  6
ByLayer
 62
  256
370
   -1
100
AcDbPolyline
 90
  113
 70
    1
 43
0
 10
109.0000000000001
 20
-35.76000000000003
 42
-0.9999999999999999
 10
108.9999999999999
 20
-44.23999999999999
 10
95.11885410631254
 20
-44.2475262190415
 10
82.76714316549803
 20
-44.25273865899027
 10
71.9448671775566
 20
-44.25563731984626
 10
62.65202614248798
 20
-44.25622220160936
 10
54.88862006029232
 20
-44.25449330427973
 10
48.65464893096958
 20
-44.25045062785728
 10
43.9501127545198
 20
-44.24409417234203
 10
40.77501153094293
 20
-44.23542393773398
 10
38.47286725652712
 20
-44.26680800640872
 10
36.38720192756045
 20
-44.3806144607418
 10
34.51801554404297
 20
-44.57684330073319
 10
32.86530810597467
 20
-44.85549452638294
 10
31.42907961335553
 20
-45.21656813769104
 10
30.20933006618557
 20
-45.66006413465749
 10
29.20605946446475
 20
-46.18598251728226
 10
28.41926780819313
 20
-46.79432328556538
 10
27.74859538156864
 20
-47.42234156818137
 10
27.09368246878923
 20
-48.00729249380468
 10
26.45452906985491
 20
-48.54917606243534
 10
25.83113518476566
 20
-49.04799227407337
 10
25.22350081352152
 20
-49.50374112871872
 10
24.63162595612247
 20
-49.91642262637144
 10
24.0555106125685
 20
-50.2860367670315
 10
23.49515478285962
 20
-50.61258355069891
 10
22.9327237134891
 20
-50.896472414863
 10
22.35038265095021
 20
-51.13811279701306
 10
21.74813159524297
 20
-51.33750469714911
 10
21.12597054636736
 20
-51.49464811527116
 10
20.48389950432336
 20
-51.60954305137918
 10
19.82191846911102
 20
-51.68218950547319
 10
19.14002744073031
 20
-51.7125874775532
 10
18.43822641918122
 20
-51.70073696761918
 10
17.71083061104783
 20
-51.63545786872643
 10
16.95215522291422
 20
-51.50557007393024
 10
16.16220025478036
 20
-51.31107358323059
 10
15.34096570664626
 20
-51.05196839662749
 10
14.48845157851191
 20
-50.72825451412095
 10
13.60465787037734
 20
-50.33993193571094
 10
12.68958458224252
 20
-49.88700066139751
 10
11.74323171410748
 20
-49.36946069118061
 10
10.7867673166943
 20
-48.82386820243475
 10
9.841359440725093
 20
-48.2867793725345
 10
8.907008086199845
 20
-47.7581942014798
 10
7.983713253118559
 20
-47.23811268927066
 10
7.071474941481249
 20
-46.7265348359071
 10
6.170293151287893
 20
-46.22346064138912
 10
5.280167882538514
 20
-45.7288901057167
 10
4.401099135233103
 20
-45.24282322888986
 10
3.582154929061133
 20
-44.73931594945991
 10
2.872403283712103
 20
-44.19242420597816
 10
2.271844199185978
 20
-43.60214799844461
 10
1.780477675482807
 20
-42.96848732685928
 10
1.398303712602562
 20
-42.29144219122216
 10
1.125322310545243
 20
-41.57101259153322
 10
0.9615334693108437
 20
-40.80719852779251
 10
0.9069371888993771
 20
-40
 10
0.9615334693108437
 20
-39.19280147220751
 10
1.125322310545236
 20
-38.4289874084668
 10
1.398303712602562
 20
-37.70855780877786
 10
1.780477675482807
 20
-37.03151267314072
 10
2.271844199185992
 20
-36.39785200155541
 10
2.872403283712096
 20
-35.80757579402186
 10
3.58215492906114
 20
-35.26068405054011
 10
4.401099135233103
 20
-34.75717677111015
 10
5.280167882538514
 20
-34.27110989428331
 10
6.1702931512879
 20
-33.77653935861089
 10
7.071474941481256
 20
-33.2734651640929
 10
7.983713253118559
 20
-32.76188731072934
 10
8.907008086199852
 20
-32.2418057985202
 10
9.841359440725093
 20
-31.71322062746552
 10
10.78676731669432
 20
-31.17613179756525
 10
11.74323171410749
 20
-30.6305393088194
 10
12.68958458224255
 20
-30.11299933860251
 10
13.60465787037736
 20
-29.66006806428905
 10
14.48845157851193
 20
-29.27174548587906
 10
15.34096570664626
 20
-28.94803160337252
 10
16.16220025478036
 20
-28.68892641676941
 10
16.95215522291422
 20
-28.49442992606976
 10
17.71083061104785
 20
-28.36454213127357
 10
18.43822641918122
 20
-28.29926303238083
 10
19.14002744073031
 20
-28.28741252244681
 10
19.82191846911102
 20
-28.31781049452682
 10
20.48389950432336
 20
-28.39045694862084
 10
21.12597054636736
 20
-28.50535188472885
 10
21.74813159524297
 20
-28.6624953028509
 10
22.35038265095022
 20
-28.86188720298694
 10
22.9327237134891
 20
-29.10352758513702
 10
23.49515478285962
 20
-29.38741644930109
 10
24.0555106125685
 20
-29.71396323296851
 10
24.63162595612247
 20
-30.08357737362856
 10
25.22350081352152
 20
-30.49625887128129
 10
25.83113518476566
 20
-30.95200772592666
 10
26.45452906985491
 20
-31.45082393756467
 10
27.09368246878922
 20
-31.99270750619534
 10
27.74859538156863
 20
-32.57765843181864
 10
28.41926780819313
 20
-33.20567671443462
 10
29.20605946446477
 20
-33.81401748271774
 10
30.20933006618557
 20
-34.33993586534252
 10
31.42907961335552
 20
-34.78343186230896
 10
32.86530810597467
 20
-35.14450547361706
 10
34.51801554404297
 20
-35.42315669926683
 10
36.38720192756046
 20
-35.61938553925823
 10
38.47286725652712
 20
-35.73319199359129
 10
40.77501153094293
 20
-35.76457606226602
 10
43.9501127545198
 20
-35.75590582765798
 10
48.65464893096959
 20
-35.74954937214273
 10
54.88862006029232
 20
-35.74550669572029
 10
62.65202614248799
 20
-35.74377779839063
 10
71.94486717755657
 20
-35.74436268015374
 10
82.76714316549811
 20
-35.74726134100968
 10
95.11885410631263
 20
-35.75247378095844
  0
LWPOLYLINE
  5
93
100
AcDbEntity
  8
0
  6
ByLayer
 62
  256
370
   -1
100
AcDbPolyline
 90
  113
 70
    1
 43
0
 10
35.99999999999989
 20
-30.23999999999999
 42
-0.9999999999999997
 10
36.00000000000006
 20
-21.76000000000001
 10
49.88114589368746
 20
-21.75247378095851
 10
62.23285683450197
 20
-21.74726134100975
 10
73.0551328224434
 20
-21.74436268015378
 10
82.34797385751202
 20
-21.74377779839065
 10
90.11137993970769
 20
-21.74550669572031
 10
96.34535106903041
 20
-21.74954937214275
 10
101.0498872454802
 20
-21.75590582765798
 10
104.2249884690571
 20
-21.76457606226606
 10
106.5271327434729
 20
-21.7331919935913
 10
108.6127980724395
 20
-21.61938553925822
 10
110.481984455957
 20
-21.42315669926685
 10
112.1346918940253
 20
-21.1445054736171
 10
113.5709203866445
 20
-20.78343186230899
 10
114.7906699338144
 20
-20.33993586534254
 10
115.7939405355353
 20
-19.81401748271779
 10
116.5807321918069
 20
-19.20567671443465
 10
117.2514046184314
 20
-18.57765843181866
 10
117.9063175312108
 20
-17.99270750619533
 10
118.5454709301451
 20
-17.45082393756471
 10
119.1688648152343
 20
-16.95200772592668
 10
119.7764991864785
 20
-16.4962588712813
 10
120.3683740438775
 20
-16.08357737362857
 10
120.9444893874315
 20
-15.71396323296852
 10
121.5048452171404
 20
-15.38741644930113
 10
122.0672762865109
 20
-15.10352758513702
 10
122.6496173490498
 20
-14.86188720298696
 10
123.251868404757
 20
-14.66249530285091
 10
123.8740294536327
 20
-14.50535188472887
 10
124.5161004956767
 20
-14.39045694862085
 10
125.178081530889
 20
-14.31781049452684
 10
125.8599725592697
 20
-14.28741252244683
 10
126.5617735808188
 20
-14.29926303238085
 10
127.2891693889522
 20
-14.36454213127359
 10
128.0478447770858
 20
-14.49442992606978
 10
128.8377997452196
 20
-14.68892641676942
 10
129.6590342933537
 20
-14.94803160337253
 10
130.5115484214881
 20
-15.27174548587908
 10
131.3953421296227
 20
-15.66006806428911
 10
132.3104154177575
 20
-16.11299933860252
 10
133.2567682858925
 20
-16.63053930881941
 10
134.2132326833057
 20
-17.17613179756526
 10
135.1586405592749
 20
-17.71322062746552
 10
136.0929919138001
 20
-18.24180579852023
 10
137.0162867468814
 20
-18.76188731072935
 10
137.9285250585187
 20
-19.27346516409293
 10
138.8297068487121
 20
-19.7765393586109
 10
139.7198321174615
 20
-20.27110989428334
 10
140.5989008647669
 20
-20.75717677111018
 10
141.4178450709389
 20
-21.26068405054011
 10
142.1275967162879
 20
-21.80757579402186
 10
142.728155800814
 20
-22.39785200155544
 10
143.2195223245172
 20
-23.03151267314075
 10
143.6016962873974
 20
-23.70855780877787
 10
143.8746776894548
 20
-24.42898740846681
 10
144.0384665306892
 20
-25.19280147220752
 10
144.0930628111006
 20
-26.00000000000003
 10
144.0384665306892
 20
-26.80719852779252
 10
143.8746776894548
 20
-27.57101259153323
 10
143.6016962873974
 20
-28.29144219122216
 10
143.2195223245172
 20
-28.9684873268593
 10
142.728155800814
 20
-29.60214799844462
 10
142.1275967162879
 20
-30.19242420597817
 10
141.4178450709389
 20
-30.73931594945992
 10
140.5989008647669
 20
-31.24282322888988
 10
139.7198321174615
 20
-31.72889010571672
 10
138.8297068487121
 20
-32.22346064138914
 10
137.9285250585187
 20
-32.72653483590713
 10
137.0162867468814
 20
-33.23811268927068
 10
136.0929919138001
 20
-33.75819420147982
 10
135.1586405592749
 20
-34.28677937253451
 10
134.2132326833057
 20
-34.82386820243478
 10
133.2567682858925
 20
-35.36946069118062
 10
132.3104154177574
 20
-35.88700066139752
 10
131.3953421296226
 20
-36.33993193571098
 10
130.5115484214881
 20
-36.72825451412098
 10
129.6590342933537
 20
-37.0519683966275
 10
128.8377997452196
 20
-37.31107358323061
 10
128.0478447770858
 20
-37.50557007393027
 10
127.2891693889522
 20
-37.63545786872646
 10
126.5617735808188
 20
-37.70073696761921
 10
125.8599725592697
 20
-37.71258747755321
 10
125.178081530889
 20
-37.68218950547322
 10
124.5161004956767
 20
-37.60954305137919
 10
123.8740294536327
 20
-37.49464811527118
 10
123.251868404757
 20
-37.33750469714913
 10
122.6496173490498
 20
-37.13811279701309
 10
122.0672762865109
 20
-36.89647241486301
 10
121.5048452171404
 20
-36.61258355069893
 10
120.9444893874315
 20
-36.28603676703152
 10
120.3683740438775
 20
-35.91642262637146
 10
119.7764991864785
 20
-35.50374112871873
 10
119.1688648152343
 20
-35.04799227407337
 10
118.5454709301451
 20
-34.54917606243535
 10
117.9063175312108
 20
-34.0072924938047
 10
117.2514046184314
 20
-33.42234156818139
 10
116.5807321918069
 20
-32.79432328556541
 10
115.7939405355352
 20
-32.1859825172823
 10
114.7906699338144
 20
-31.66006413465752
 10
113.5709203866445
 20
-31.21656813769107
 10
112.1346918940253
 20
-30.85549452638297
 10
110.481984455957
 20
-30.5768433007332
 10
108.6127980724395
 20
-30.38061446074181
 10
106.5271327434729
 20
-30.26680800640874
 10
104.2249884690571
 20
-30.235423937734
 10
101.0498872454802
 20
-30.24409417234205
 10
96.34535106903041
 20
-30.2504506278573
 10
90.11137993970769
 20
-30.25449330427973
 10
82.34797385751202
 20
-30.2562222016094
 10
73.05513282244343
 20
-30.25563731984629
 10
62.23285683450189
 20
-30.25273865899034
 10
49.8811458936874
 20
-30.24752621904157
  0
LWPOLYLINE
  5
94
100
AcDbEntity
  8
0
  6
ByLayer
 62
  256
370
   -1
100
AcDbPolyline
 90
    4
 70
    1
 43
0
 10
177.1373605445595
 20
-76
 42
1.000000000000004
 10
177.1373605445595
 20
-68
 10
5
 20
-68
 42
0.9999999999999999
 10
5
 20
-76
  0
LWPOLYLINE
  5
95
100
AcDbEntity
  8
0
  6
ByLayer
 62
  256
370
   -1
100
AcDbPolyline
 90
    4
 70
    1
 43
0
 10
177.1373605445595
 20
-87
 42
1.000000000000004
 10
177.1373605445595
 20
-79
 10
5
 20
-79
 42
0.9999999999999999
 10
5
 20
-87
  0
LWPOLYLINE
  5
96
100
AcDbEntity
  8
0
  6
ByLayer
 62
  256
370
   -1
100
AcDbPolyline
 90
   24
 70
    1
 43
0
 10
8.498132752231005
 20
-92.001867247769
 42
1.000000000000001
 10
2.501867247768999
 20
-97.9981327522309
 10
6.037401153701726
 20
-101.5336666581638
 42
-0.1993418171780809
 10
7.501860422668699
 20
-105.0774619777875
 10
7.501860422668823
 20
-130.531881439808
 42
-0.1993418171780804
 10
6.037401153701794
 20
-134.0756767594317
 10
2.501867247769098
 20
-137.6112106653645
 42
0.9999999999999997
 10
8.498132752231001
 20
-143.6074761698265
 10
12.03366665816385
 20
-140.0719422638937
 42
-0.1993418171780816
 10
15.57746197778759
 20
-138.6074829949268
 10
41.03188143980811
 20
-138.6074829949267
 42
-0.1993418171780807
 10
44.57567675943179
 20
-140.0719422638937
 10
48.11121066536461
 20
-143.6074761698264
 42
0.9999999999999999
 10
54.10747616982661
 20
-137.6112106653645
 10
50.57194226389387
 20
-134.0756767594316
 42
-0.1993418171780811
 10
49.1074829949269
 20
-130.5318814398079
 10
49.10748299492676
 20
-105.0774619777874
 42
-0.1993418171780809
 10
50.57194226389379
 20
-101.5336666581637
 10
54.1074761698265
 20
-97.9981327522309
 42
1
 10
48.11121066536461
 20
-92.0018672477689
 10
44.57567675943174
 20
-95.53740115370162
 42
-0.1993418171780811
 10
41.03188143980799
 20
-97.0018604226686
 10
15.5774619777875
 20
-97.00186042266873
 42
-0.1993418171780805
 10
12.0336666581638
 20
-95.53740115370169
  0
LWPOLYLINE
  5
97
100
AcDbEntity
  8
0
  6
ByLayer
 62
  256
370
   -1
100
AcDbPolyline
 90
   24
 70
    1
 43
0
 10
66.998132752231
 20
-92.001867247769
 42
1.000000000000001
 10
61.001867247769
 20
-97.9981327522309
 10
64.53740115370172
 20
-101.5336666581638
 42
-0.1993418171780807
 10
66.0018604226687
 20
-105.0774619777875
 10
66.00186042266883
 20
-130.531881439808
 42
-0.1993418171780807
 10
64.53740115370179
 20
-134.0756767594317
 10
61.0018672477691
 20
-137.6112106653645
 42
0.9999999999999986
 10
66.998132752231
 20
-143.6074761698265
 10
70.53366665816385
 20
-140.0719422638938
 42
-0.1993418171780815
 10
74.07746197778759
 20
-138.6074829949268
 10
99.53188143980812
 20
-138.6074829949267
 42
-0.1993418171780804
 10
103.0756767594318
 20
-140.0719422638937
 10
106.6112106653646
 20
-143.6074761698264
 42
0.9999999999999999
 10
112.6074761698266
 20
-137.6112106653645
 10
109.0719422638939
 20
-134.0756767594316
 42
-0.1993418171780801
 10
107.6074829949269
 20
-130.5318814398079
 10
107.6074829949268
 20
-105.0774619777874
 42
-0.1993418171780803
 10
109.0719422638938
 20
-101.5336666581637
 10
112.6074761698265
 20
-97.9981327522309
 42
1
 10
106.6112106653646
 20
-92.0018672477689
 10
103.0756767594317
 20
-95.53740115370162
 42
-0.1993418171780811
 10
99.53188143980799
 20
-97.0018604226686
 10
74.07746197778751
 20
-97.00186042266873
 42
-0.1993418171780808
 10
70.5336666581638
 20
-95.53740115370169
  0
LWPOLYLINE
  5
98
100
AcDbEntity
  8
0
  6
ByLayer
 62
  256
370
   -1
100
AcDbPolyline
 90
   28
 70
    1
 43
0
 10
121.9997862289834
 20
-102.7348503108221
 10
121.9997862289834
 20
-120.1344931067731
 42
-0.1988567709409821
 10
120.7696348060702
 20
-123.1034431070627
 10
119.0018672476942
 20
-124.871210665439
 42
1.000000000000001
 10
124.9981333575662
 20
-130.8674755644914
 10
126.7659003105326
 20
-129.099708611525
 42
-0.1988567709409821
 10
129.734850310822
 20
-127.8695571886118
 10
147.1344931067731
 20
-127.8695571886118
 42
-0.1988567709409811
 10
150.1034431070627
 20
-129.099708611525
 10
151.871210665439
 20
-130.867476169901
 42
0.9999999999999999
 10
157.8674755644914
 20
-124.871210060029
 10
156.099708611525
 20
-123.1034431070626
 42
-0.1988567709409818
 10
154.8695571886118
 20
-120.1344931067731
 10
154.8695571886118
 20
-102.7348503108221
 42
-0.1988567709409814
 10
156.099708611525
 20
-99.76590031053249
 10
157.867476169901
 20
-97.99813275215618
 42
0.9999999999999999
 10
151.871210060029
 20
-92.00186785310379
 10
150.1034431070626
 20
-93.76963480607021
 42
0.1989123673796582
 10
146.3895570925079
 20
-102.7357487915161
 10
146.3895570925079
 20
-104.7357487915161
 42
-0.414213562373095
 10
143.3895570925079
 20
-107.7357487915161
 10
133.4797863250873
 20
-107.7357487915161
 42
-0.414213562373095
 10
130.4797863250873
 20
-104.7357487915161
 10
130.4797863250873
 20
-102.7357487915161
 42
0.1989123673796579
 10
126.7659003105325
 20
-93.7696348060702
 10
124.9981327521562
 20
-92.00186724769418
 42
0.9999999999999999
 10
119.0018678531038
 20
-97.99813335756619
 10
120.7696348060702
 20
-99.7659003105326
 42
-0.1988567709409823
  0
ENDSEC
  0
SECTION
  2
OBJECTS
  0
DICTIONARY
  5
C
330
0
100
AcDbDictionary
281
    1
  3
ACAD_GROUP
350
D
  0
DICTIONARY
  5
D
330
C
100
AcDbDictionary
281
    1
  0
ENDSEC
  0
EOF
