999
dxfrw 0.6.3
  0
SECTION
  2
HEADER
  9
$ACADVER
  1
AC1021
  9
$DWGCODEPAGE
  3
ANSI_1252
  9
$INSBASE
 10
0
 20
0
 30
0
  9
$EXTMIN
 10
-3.074282015586867
 20
-288.5742820155869
 30
0
  9
$EXTMAX
 10
283.0742820155869
 20
-2.425717984413126
 30
0
  9
$LIMMIN
 10
0
 20
0
  9
$LIMMAX
 10
12
 20
9
  9
$ORTHOMODE
 70
    0
  9
$REGENMODE
 70
    1
  9
$FILLMODE
 70
    1
  9
$QTEXTMODE
 70
    0
  9
$MIRRTEXT
 70
    0
  9
$LTSCALE
 40
1
  9
$ATTMODE
 70
    1
  9
$TEXTSIZE
 40
0.2
  9
$TRACEWID
 40
0.05
  9
$TEXTSTYLE
  7
Standard
  9
$CLAYER
  8
top plate
  9
$CELTYPE
  6
ByLayer
  9
$CECOLOR
 62
  256
  9
$CELTSCALE
 40
1
  9
$DISPSILH
 70
    0
  9
$DIMSCALE
 40
1
  9
$DIMASZ
 40
2.5
  9
$DIMEXO
 40
0.625
  9
$DIMDLI
 40
5
  9
$DIMRND
 40
0
  9
$DIMDLE
 40
0
  9
$DIMEXE
 40
1.25
  9
$DIMTP
 40
0
  9
$DIMTM
 40
0
  9
$DIMTXT
 40
2.5
  9
$DIMCEN
 40
0.09
  9
$DIMTSZ
 40
0
  9
$DIMTOL
 70
    0
  9
$DIMLIM
 70
    0
  9
$DIMTIH
 70
    1
  9
$DIMTOH
 70
    1
  9
$DIMSE1
 70
    0
  9
$DIMSE2
 70
    0
  9
$DIMTAD
 70
    0
  9
$DIMZIN
 70
    8
  9
$DIMBLK
  1

  9
$DIMASO
 70
    1
  9
$DIMSHO
 70
    1
  9
$DIMPOST
  1

  9
$DIMAPOST
  1

  9
$DIMALT
 70
    0
  9
$DIMALTD
 70
    2
  9
$DIMALTF
 40
25.4
  9
$DIMLFAC
 40
1
  9
$DIMTOFL
 70
    0
  9
$DIMTVP
 40
0
  9
$DIMTIX
 70
    0
  9
$DIMSOXD
 70
    0
  9
$DIMSAH
 70
    0
  9
$DIMBLK1
  1

  9
$DIMBLK2
  1

  9
$DIMSTYLE
  2
Standard
  9
$DIMCLRD
 70
    0
  9
$DIMCLRE
 70
    0
  9
$DIMCLRT
 70
    0
  9
$DIMTFAC
 40
1
  9
$DIMGAP
 40
0.625
  9
$DIMJUST
 70
    0
  9
$DIMSD1
 70
    0
  9
$DIMSD2
 70
    0
  9
$DIMTOLJ
 70
    1
  9
$DIMTZIN
 70
    0
  9
$DIMALTZ
 70
    0
  9
$DIMALTTZ
 70
    0
  9
$DIMUPT
 70
    0
  9
$DIMDEC
 70
    4
  9
$DIMTDEC
 70
    4
  9
$DIMALTU
 70
    2
  9
$DIMALTTD
 70
    2
  9
$DIMTXSTY
  7
Standard
  9
$DIMAUNIT
 70
    0
  9
$DIMADEC
 70
    0
  9
$DIMALTRND
 40
0
  9
$DIMAZIN
 70
    2
  9
$DIMDSEP
 70
   46
  9
$DIMATFIT
 70
    3
  9
$DIMFRAC
 70
    0
  9
$DIMLDRBLK
  1

  9
$DIMLUNIT
 70
    2
  9
$DIMLWD
 70
   -2
  9
$DIMLWE
 70
   -2
  9
$DIMTMOVE
 70
    0
  9
$DIMFXL
 40
1
  9
$DIMFXLON
 70
    0
  9
$DIMJOGANG
 40
0.7853981633974483
  9
$DIMTFILL
 70
    0
  9
$DIMTFILLCLR
 70
    0
  9
$DIMARCSYM
 70
    0
  9
$DIMLTYPE
  6

  9
$DIMLTEX1
  6

  9
$DIMLTEX2
  6

  9
$LUNITS
 70
    2
  9
$LUPREC
 70
    4
  9
$SKETCHINC
 40
0.1
  9
$FILLETRAD
 40
0.5
  9
$AUNITS
 70
    0
  9
$AUPREC
 70
    0
  9
$MENU
  1
.
  9
$ELEVATION
 40
0
  9
$PELEVATION
 40
0
  9
$THICKNESS
 40
0
  9
$LIMCHECK
 70
    0
  9
$CHAMFERA
 40
0
  9
$CHAMFERB
 40
0
  9
$CHAMFERC
 40
0
  9
$CHAMFERD
 40
0
  9
$SKPOLY
 70
    0
  9
$USRTIMER
 70
    1
  9
$ANGBASE
 50
0
  9
$ANGDIR
 70
    0
  9
$PDMODE
 70
    0
  9
$PDSIZE
 40
0
  9
$PLINEWID
 40
0
  9
$SPLFRAME
 70
    0
  9
$SPLINETYPE
 70
    6
  9
$SPLINESEGS
 70
    8
  9
$HANDSEED
  5
20000
  9
$SURFTAB1
 70
    6
  9
$SURFTAB2
 70
    6
  9
$SURFTYPE
 70
    6
  9
$SURFU
 70
    6
  9
$SURFV
 70
    6
  9
$UCSBASE
  2

  9
$UCSNAME
  2

  9
$UCSORG
 10
0
 20
0
 30
0
  9
$UCSXDIR
 10
1
 20
0
 30
0
  9
$UCSYDIR
 10
0
 20
1
 30
0
  9
$UCSORTHOREF
  2

  9
$UCSORTHOVIEW
 70
    0
  9
$UCSORGTOP
 10
0
 20
0
 30
0
  9
$UCSORGBOTTOM
 10
0
 20
0
 30
0
  9
$UCSORGLEFT
 10
0
 20
0
 30
0
  9
$UCSORGRIGHT
 10
0
 20
0
 30
0
  9
$UCSORGFRONT
 10
0
 20
0
 30
0
  9
$UCSORGBACK
 10
0
 20
0
 30
0
  9
$PUCSBASE
  2

  9
$PUCSNAME
  2

  9
$PUCSORG
 10
0
 20
0
 30
0
  9
$PUCSXDIR
 10
1
 20
0
 30
0
  9
$PUCSYDIR
 10
0
 20
1
 30
0
  9
$PUCSORTHOREF
  2

  9
$PUCSORTHOVIEW
 70
    0
  9
$PUCSORGTOP
 10
0
 20
0
 30
0
  9
$PUCSORGBOTTOM
 10
0
 20
0
 30
0
  9
$PUCSORGLEFT
 10
0
 20
0
 30
0
  9
$PUCSORGRIGHT
 10
0
 20
0
 30
0
  9
$PUCSORGFRONT
 10
0
 20
0
 30
0
  9
$PUCSORGBACK
 10
0
 20
0
 30
0
  9
$USERI1
 70
    0
  9
$USERI2
 70
    0
  9
$USERI3
 70
    0
  9
$USERI4
 70
    0
  9
$USERI5
 70
    0
  9
$USERR1
 40
0
  9
$USERR2
 40
0
  9
$USERR3
 40
0
  9
$USERR4
 40
0
  9
$USERR5
 40
0
  9
$WORLDVIEW
 70
    1
  9
$SHADEDGE
 70
    3
  9
$SHADEDIF
 70
   70
  9
$TILEMODE
 70
    1
  9
$MAXACTVP
 70
   64
  9
$PINSBASE
 10
0
 20
0
 30
0
  9
$PLIMCHECK
 70
    0
  9
$PEXTMIN
 10
0
 20
0
 30
0
  9
$PEXTMAX
 10
0
 20
0
 30
0
  9
$GRIDMODE
 70
    1
  9
$SNAPSTYLE
 70
    0
  9
$PLIMMIN
 10
0
 20
0
  9
$PLIMMAX
 10
297
 20
210
  9
$UNITMODE
 70
    0
  9
$VISRETAIN
 70
    1
  9
$PLINEGEN
 70
    0
  9
$PSLTSCALE
 70
    1
  9
$TREEDEPTH
 70
 3020
  9
$CMLSTYLE
  2
Standard
  9
$CMLJUST
 70
    0
  9
$CMLSCALE
 40
1
  9
$PROXYGRAPHICS
 70
    1
  9
$MEASUREMENT
 70
    1
  9
$CELWEIGHT
370
   -1
  9
$ENDCAPS
280
    0
  9
$JOINSTYLE
280
    0
  9
$LWDISPLAY
290
    0
  9
$INSUNITS
 70
    4
  9
$HYPERLINKBASE
  1

  9
$STYLESHEET
  1

  9
$XEDIT
290
    1
  9
$CEPSNTYPE
380
    0
  9
$PSTYLEMODE
290
    1
  9
$EXTNAMES
290
    1
  9
$PSVPSCALE
 40
0
  9
$OLESTARTUP
290
    0
  9
$SORTENTS
280
  127
  9
$INDEXCTL
280
    0
  9
$HIDETEXT
280
    1
  9
$XCLIPFRAME
290
    2
  9
$HALOGAP
280
    0
  9
$OBSCOLOR
 70
  257
  9
$OBSLTYPE
280
    0
  9
$INTERSECTIONDISPLAY
280
    0
  9
$INTERSECTIONCOLOR
 70
  257
  9
$DIMASSOC
280
    2
  9
$PROJECTNAME
  1

  9
$CAMERADISPLAY
290
    0
  9
$LENSLENGTH
 40
50
  9
$CAMERAHEIGHT
 40
0
  9
$STEPSPERSEC
 40
2
  9
$STEPSIZE
 40
6
  9
$3DDWFPREC
 40
2
  9
$PSOLWIDTH
 40
0.25
  9
$PSOLHEIGHT
 40
4
  9
$LOFTANG1
 40
1.570796326794897
  9
$LOFTANG2
 40
1.570796326794897
  9
$LOFTMAG1
 40
0
  9
$LOFTMAG2
 40
0
  9
$LOFTPARAM
 70
    7
  9
$LOFTNORMALS
280
    1
  9
$LATITUDE
 40
37.795
  9
$LONGITUDE
 40
-122.394
  9
$NORTHDIRECTION
 40
0
  9
$TIMEZONE
 70
-8000
  9
$LIGHTGLYPHDISPLAY
280
    1
  9
$TILEMODELIGHTSYNCH
280
    1
  9
$SOLIDHIST
280
    0
  9
$SHOWHIST
280
    1
  9
$DWFFRAME
280
    2
  9
$DGNFRAME
280
    2
  9
$REALWORLDSCALE
290
    1
  9
$INTERFERECOLOR
 62
  256
  9
$CSHADOW
280
    0
  9
$SHADOWPLANELOCATION
 40
0
  0
ENDSEC
  0
SECTION
  2
CLASSES
  0
ENDSEC
  0
SECTION
  2
TABLES
  0
TABLE
  2
VPORT
  5
8
330
0
100
AcDbSymbolTable
 70
    1
  0
VPORT
  5
31
330
2
100
AcDbSymbolTableRecord
100
AcDbViewportTableRecord
  2
*ACTIVE
 70
    0
 10
0
 20
0
 11
1
 21
1
 12
201.5202106783886
 22
0.5067566069029052
 13
0
 23
0
 14
10
 24
10
 15
10
 25
10
 16
0
 26
0
 36
1
 17
0
 27
0
 37
0
 40
292.9053187898792
 41
1.794694348327566
 42
50
 43
0
 44
0
 50
0
 51
0
 71
    0
 72
  100
 73
    1
 74
    3
 75
    0
 76
    1
 77
    0
 78
    0
281
    0
 65
    1
110
0
120
0
130
0
111
1
121
0
131
0
112
0
122
1
132
0
 79
    0
146
0
348
10020
 60
    7
 61
    5
292
1
282
    1
141
0
142
0
 63
  250
421
3358443
  0
ENDTAB
  0
TABLE
  2
LTYPE
  5
5
330
0
100
AcDbSymbolTable
 70
    4
  0
LTYPE
  5
14
330
5
100
AcDbSymbolTableRecord
100
AcDbLinetypeTableRecord
  2
ByBlock
 70
    0
  3

 72
   65
 73
    0
 40
0
  0
LTYPE
  5
15
330
5
100
AcDbSymbolTableRecord
100
AcDbLinetypeTableRecord
  2
ByLayer
 70
    0
  3

 72
   65
 73
    0
 40
0
  0
LTYPE
  5
16
330
5
100
AcDbSymbolTableRecord
100
AcDbLinetypeTableRecord
  2
Continuous
 70
    0
  3
Solid line
 72
   65
 73
    0
 40
0
  0
LTYPE
  5
32
330
5
100
AcDbSymbolTableRecord
100
AcDbLinetypeTableRecord
  2
DOT
 70
    0
  3
Dot . . . . . . . . . . . . . . . . . . . . . .
 72
   65
 73
    2
 40
6.35
 49
0
 74
    0
 49
-6.35
 74
    0
  0
LTYPE
  5
33
330
5
100
AcDbSymbolTableRecord
100
AcDbLinetypeTableRecord
  2
DOTTINY
 70
    0
  3
Dot (.15x) .....................................
 72
   65
 73
    2
 40
0.9525
 49
0
 74
    0
 49
-0.9525
 74
    0
  0
LTYPE
  5
34
330
5
100
AcDbSymbolTableRecord
100
AcDbLinetypeTableRecord
  2
DOT2
 70
    0
  3
Dot (.5x) .....................................
 72
   65
 73
    2
 40
3.175
 49
0
 74
    0
 49
-3.175
 74
    0
  0
LTYPE
  5
35
330
5
100
AcDbSymbolTableRecord
100
AcDbLinetypeTableRecord
  2
DOTX2
 70
    0
  3
Dot (2x) .  .  .  .  .  .  .  .  .  .  .  .  .
 72
   65
 73
    2
 40
12.7
 49
0
 74
    0
 49
-12.7
 74
    0
  0
LTYPE
  5
36
330
5
100
AcDbSymbolTableRecord
100
AcDbLinetypeTableRecord
  2
DASHED
 70
    0
  3
Dashed _ _ _ _ _ _ _ _ _ _ _ _ _ _ _ _ _
 72
   65
 73
    2
 40
19.05
 49
12.7
 74
    0
 49
-6.35
 74
    0
  0
LTYPE
  5
37
330
5
100
AcDbSymbolTableRecord
100
AcDbLinetypeTableRecord
  2
DASHEDTINY
 70
    0
  3
Dashed (.15x) _ _ _ _ _ _ _ _ _ _ _ _ _ _ _ _ _
 72
   65
 73
    2
 40
2.8575
 49
1.905
 74
    0
 49
-0.9525
 74
    0
  0
LTYPE
  5
38
330
5
100
AcDbSymbolTableRecord
100
AcDbLinetypeTableRecord
  2
DASHED2
 70
    0
  3
Dashed (.5x) _ _ _ _ _ _ _ _ _ _ _ _ _ _ _ _ _
 72
   65
 73
    2
 40
9.524999999999999
 49
6.35
 74
    0
 49
-3.175
 74
    0
  0
LTYPE
  5
39
330
5
100
AcDbSymbolTableRecord
100
AcDbLinetypeTableRecord
  2
DASHEDX2
 70
    0
  3
Dashed (2x) ____  ____  ____  ____  ____  ___
 72
   65
 73
    2
 40
38.09999999999999
 49
25.4
 74
    0
 49
-12.7
 74
    0
  0
LTYPE
  5
3A
330
5
100
AcDbSymbolTableRecord
100
AcDbLinetypeTableRecord
  2
DASHDOT
 70
    0
  3
Dash dot __ . __ . __ . __ . __ . __ . __ . __
 72
   65
 73
    4
 40
25.4
 49
12.7
 74
    0
 49
-6.35
 74
    0
 49
0
 74
    0
 49
-6.35
 74
    0
  0
LTYPE
  5
3B
330
5
100
AcDbSymbolTableRecord
100
AcDbLinetypeTableRecord
  2
DASHDOTTINY
 70
    0
  3
Dash dot (.15x) _._._._._._._._._._._._._._._.
 72
   65
 73
    4
 40
3.81
 49
1.905
 74
    0
 49
-0.9525
 74
    0
 49
0
 74
    0
 49
-0.9525
 74
    0
  0
LTYPE
  5
3C
330
5
100
AcDbSymbolTableRecord
100
AcDbLinetypeTableRecord
  2
DASHDOT2
 70
    0
  3
Dash dot (.5x) _._._._._._._._._._._._._._._.
 72
   65
 73
    4
 40
12.7
 49
6.35
 74
    0
 49
-3.175
 74
    0
 49
0
 74
    0
 49
-3.175
 74
    0
  0
LTYPE
  5
3D
330
5
100
AcDbSymbolTableRecord
100
AcDbLinetypeTableRecord
  2
DASHDOTX2
 70
    0
  3
Dash dot (2x) ____  .  ____  .  ____  .  ___
 72
   65
 73
    4
 40
50.8
 49
25.4
 74
    0
 49
-12.7
 74
    0
 49
0
 74
    0
 49
-12.7
 74
    0
  0
LTYPE
  5
3E
330
5
100
AcDbSymbolTableRecord
100
AcDbLinetypeTableRecord
  2
DIVIDE
 70
    0
  3
Divide ____ . . ____ . . ____ . . ____ . . ____
 72
   65
 73
    6
 40
31.75
 49
12.7
 74
    0
 49
-6.35
 74
    0
 49
0
 74
    0
 49
-6.35
 74
    0
 49
0
 74
    0
 49
-6.35
 74
    0
  0
LTYPE
  5
3F
330
5
100
AcDbSymbolTableRecord
100
AcDbLinetypeTableRecord
  2
DIVIDETINY
 70
    0
  3
Divide (.15x) __..__..__..__..__..__..__..__.._
 72
   65
 73
    6
 40
4.7625
 49
1.905
 74
    0
 49
-0.9525
 74
    0
 49
0
 74
    0
 49
-0.9525
 74
    0
 49
0
 74
    0
 49
-0.9525
 74
    0
  0
LTYPE
  5
40
330
5
100
AcDbSymbolTableRecord
100
AcDbLinetypeTableRecord
  2
DIVIDE2
 70
    0
  3
Divide (.5x) __..__..__..__..__..__..__..__.._
 72
   65
 73
    6
 40
15.875
 49
6.35
 74
    0
 49
-3.175
 74
    0
 49
0
 74
    0
 49
-3.175
 74
    0
 49
0
 74
    0
 49
-3.175
 74
    0
  0
LTYPE
  5
41
330
5
100
AcDbSymbolTableRecord
100
AcDbLinetypeTableRecord
  2
DIVIDEX2
 70
    0
  3
Divide (2x) ________  .  .  ________  .  .  _
 72
   65
 73
    6
 40
63.5
 49
25.4
 74
    0
 49
-12.7
 74
    0
 49
0
 74
    0
 49
-12.7
 74
    0
 49
0
 74
    0
 49
-12.7
 74
    0
  0
LTYPE
  5
42
330
5
100
AcDbSymbolTableRecord
100
AcDbLinetypeTableRecord
  2
BORDER
 70
    0
  3
Border __ __ . __ __ . __ __ . __ __ . __ __ .
 72
   65
 73
    6
 40
44.45
 49
12.7
 74
    0
 49
-6.35
 74
    0
 49
12.7
 74
    0
 49
-6.35
 74
    0
 49
0
 74
    0
 49
-6.35
 74
    0
  0
LTYPE
  5
43
330
5
100
AcDbSymbolTableRecord
100
AcDbLinetypeTableRecord
  2
BORDERTINY
 70
    0
  3
Border (.15x) __.__.__.__.__.__.__.__.__.__.__.
 72
   65
 73
    6
 40
6.6675
 49
1.905
 74
    0
 49
-0.9525
 74
    0
 49
1.905
 74
    0
 49
-0.9525
 74
    0
 49
0
 74
    0
 49
-0.9525
 74
    0
  0
LTYPE
  5
44
330
5
100
AcDbSymbolTableRecord
100
AcDbLinetypeTableRecord
  2
BORDER2
 70
    0
  3
Border (.5x) __.__.__.__.__.__.__.__.__.__.__.
 72
   65
 73
    6
 40
22.225
 49
6.35
 74
    0
 49
-3.175
 74
    0
 49
6.35
 74
    0
 49
-3.175
 74
    0
 49
0
 74
    0
 49
-3.175
 74
    0
  0
LTYPE
  5
45
330
5
100
AcDbSymbolTableRecord
100
AcDbLinetypeTableRecord
  2
BORDERX2
 70
    0
  3
Border (2x) ____  ____  .  ____  ____  .  ___
 72
   65
 73
    6
 40
88.89999999999999
 49
25.4
 74
    0
 49
-12.7
 74
    0
 49
25.4
 74
    0
 49
-12.7
 74
    0
 49
0
 74
    0
 49
-12.7
 74
    0
  0
LTYPE
  5
46
330
5
100
AcDbSymbolTableRecord
100
AcDbLinetypeTableRecord
  2
CENTER
 70
    0
  3
Center ____ _ ____ _ ____ _ ____ _ ____ _ ____
 72
   65
 73
    4
 40
50.8
 49
31.75
 74
    0
 49
-6.35
 74
    0
 49
6.35
 74
    0
 49
-6.35
 74
    0
  0
LTYPE
  5
47
330
5
100
AcDbSymbolTableRecord
100
AcDbLinetypeTableRecord
  2
CENTERTINY
 70
    0
  3
Center (.15x) ___ _ ___ _ ___ _ ___ _ ___ _ ___
 72
   65
 73
    4
 40
7.62
 49
4.7625
 74
    0
 49
-0.9525
 74
    0
 49
0.9525
 74
    0
 49
-0.9525
 74
    0
  0
LTYPE
  5
48
330
5
100
AcDbSymbolTableRecord
100
AcDbLinetypeTableRecord
  2
CENTER2
 70
    0
  3
Center (.5x) ___ _ ___ _ ___ _ ___ _ ___ _ ___
 72
   65
 73
    4
 40
28.575
 49
19.05
 74
    0
 49
-3.175
 74
    0
 49
3.175
 74
    0
 49
-3.175
 74
    0
  0
LTYPE
  5
49
330
5
100
AcDbSymbolTableRecord
100
AcDbLinetypeTableRecord
  2
CENTERX2
 70
    0
  3
Center (2x) ________  __  ________  __  _____
 72
   65
 73
    4
 40
101.6
 49
63.5
 74
    0
 49
-12.7
 74
    0
 49
12.7
 74
    0
 49
-12.7
 74
    0
  0
ENDTAB
  0
TABLE
  2
LAYER
  5
2
330
0
100
AcDbSymbolTable
 70
    1
  0
LAYER
  5
10
330
2
100
AcDbSymbolTableRecord
100
AcDbLayerTableRecord
  2
0
 70
    0
 62
  256
  6
CONTINUOUS
370
   25
390
F
  0
LAYER
  5
4A
330
2
100
AcDbSymbolTableRecord
100
AcDbLayerTableRecord
  2
Defpoints
 70
    0
 62
    1
  6
CONTINUOUS
290
0
370
   -3
390
F
  0
LAYER
  5
4B
330
2
100
AcDbSymbolTableRecord
100
AcDbLayerTableRecord
  2
arms
 70
    0
 62
    7
  6
CONTINUOUS
370
   25
390
F
  0
LAYER
  5
4C
330
2
100
AcDbSymbolTableRecord
100
AcDbLayerTableRecord
  2
bottom plate
 70
    0
 62
    4
  6
CONTINUOUS
370
   25
390
F
  0
LAYER
  5
4D
330
2
100
AcDbSymbolTableRecord
100
AcDbLayerTableRecord
  2
motors
 70
    0
 62
    5
  6
CONTINUOUS
370
   25
390
F
  0
LAYER
  5
4E
330
2
100
AcDbSymbolTableRecord
100
AcDbLayerTableRecord
  2
props
 70
    0
 62
    2
  6
CONTINUOUS
370
   25
390
F
  0
LAYER
  5
4F
330
2
100
AcDbSymbolTableRecord
100
AcDbLayerTableRecord
  2
reinforcement
 70
    0
 62
    6
  6
CONTINUOUS
370
   25
390
F
  0
LAYER
  5
50
330
2
100
AcDbSymbolTableRecord
100
AcDbLayerTableRecord
  2
top plate
 70
    0
 62
    3
  6
CONTINUOUS
370
   25
390
F
  0
ENDTAB
  0
TABLE
  2
STYLE
  5
3
330
0
100
AcDbSymbolTable
 70
    3
  0
STYLE
  5
51
330
2
100
AcDbSymbolTableRecord
100
AcDbTextStyleTableRecord
  2
Standard
 70
    0
 40
0
 41
1
 50
0
 71
    0
 42
1
  3
txt
  4

  0
ENDTAB
  0
TABLE
  2
VIEW
  5
6
330
0
100
AcDbSymbolTable
 70
    0
  0
ENDTAB
  0
TABLE
  2
UCS
  5
7
330
0
100
AcDbSymbolTable
 70
    0
  0
ENDTAB
  0
TABLE
  2
APPID
  5
9
330
0
100
AcDbSymbolTable
 70
    1
  0
APPID
  5
12
330
9
100
AcDbSymbolTableRecord
100
AcDbRegAppTableRecord
  2
ACAD
 70
    0
  0
APPID
  5
52
330
9
100
AcDbSymbolTableRecord
100
AcDbRegAppTableRecord
  2
LibreCad
 70
    0
  0
ENDTAB
  0
TABLE
  2
DIMSTYLE
  5
A
330
0
100
AcDbSymbolTable
 70
    1
100
AcDbDimStyleTable
 71
    1
  0
DIMSTYLE
105
53
330
A
100
AcDbSymbolTableRecord
100
AcDbDimStyleTableRecord
  2
Standard
 70
    0
 40
1
 41
2.5
 42
0.625
 43
0.38
 44
1.25
 45
0
 46
0
 47
0
 48
0
 49
1
140
2.5
141
0.09
142
0
143
25.4
144
1
145
0
146
1
147
0.625
148
0
 71
    0
 72
    0
 73
    1
 74
    1
 75
    0
 76
    0
 77
    0
 78
    8
 79
    2
170
    0
171
    2
172
    0
173
    0
174
    0
175
    0
176
    0
177
    0
178
    0
179
    0
271
    4
272
    4
273
    2
274
    2
275
    0
276
    0
277
    2
278
   46
279
    0
280
    0
281
    0
282
    0
283
    1
284
    0
285
    0
286
    0
288
    0
289
    3
340
Standard
341

371
   -2
372
   -2
  0
ENDTAB
  0
TABLE
  2
BLOCK_RECORD
  5
1
330
0
100
AcDbSymbolTable
 70
    2
  0
BLOCK_RECORD
  5
1F
330
1
100
AcDbSymbolTableRecord
100
AcDbBlockTableRecord
  2
*Model_Space
 70
    0
280
    1
281
    0
  0
BLOCK_RECORD
  5
1E
330
1
100
AcDbSymbolTableRecord
100
AcDbBlockTableRecord
  2
*Paper_Space
 70
    0
280
    1
281
    0
  0
ENDTAB
  0
ENDSEC
  0
SECTION
  2
BLOCKS
  0
BLOCK
  5
20
330
1F
100
AcDbEntity
  8
0
100
AcDbBlockBegin
  2
*Model_Space
 70
    0
 10
0
 20
0
 30
0
  3
*Model_Space
  1

  0
ENDBLK
  5
21
330
1F
100
AcDbEntity
  8
0
100
AcDbBlockEnd
  0
BLOCK
  5
1C
330
1B
100
AcDbEntity
  8
0
100
AcDbBlockBegin
  2
*Paper_Space
 70
    0
 10
0
 20
0
 30
0
  3
*Paper_Space
  1

  0
ENDBLK
  5
1D
330
1F
100
AcDbEntity
  8
0
100
AcDbBlockEnd
  0
ENDSEC
  0
SECTION
  2
ENTITIES
  0
CIRCLE
  5
54
100
AcDbEntity
  8
bottom plate
  6
ByLayer
 62
  256
370
   -1
100
AcDbCircle
 10
140
 20
-145.5
 40
5.119751269282875
  0
CIRCLE
  5
55
100
AcDbEntity
  8
bottom plate
  6
ByLayer
 62
  256
370
   -1
100
AcDbCircle
 10
150
 20
-135.5
 40
1
  0
CIRCLE
  5
56
100
AcDbEntity
  8
bottom plate
  6
ByLayer
 62
  256
370
   -1
100
AcDbCircle
 10
156.4346717087976
 20
-129.0653282912024
 40
1.5
  0
CIRCLE
  5
57
100
AcDbEntity
  8
bottom plate
  6
ByLayer
 62
  256
370
   -1
100
AcDbCircle
 10
162.8046717087977
 20
-122.6953282912022
 40
1.5
  0
CIRCLE
  5
58
100
AcDbEntity
  8
bottom plate
  6
ByLayer
 62
  256
370
   -1
100
AcDbCircle
 10
130
 20
-135.5
 40
1
  0
CIRCLE
  5
59
100
AcDbEntity
  8
bottom plate
  6
ByLayer
 62
  256
370
   -1
100
AcDbCircle
 10
123.5653282912024
 20
-129.0653282912024
 40
1.5
  0
CIRCLE
  5
5A
100
AcDbEntity
  8
bottom plate
  6
ByLayer
 62
  256
370
   -1
100
AcDbCircle
 10
117.1953282912022
 20
-122.6953282912023
 40
1.5
  0
CIRCLE
  5
5B
100
AcDbEntity
  8
bottom plate
  6
ByLayer
 62
  256
370
   -1
100
AcDbCircle
 10
130
 20
-155.5
 40
1
  0
CIRCLE
  5
5C
100
AcDbEntity
  8
bottom plate
  6
ByLayer
 62
  256
370
   -1
100
AcDbCircle
 10
123.5653282912024
 20
-161.9346717087976
 40
1.5
  0
CIRCLE
  5
5D
100
AcDbEntity
  8
bottom plate
  6
ByLayer
 62
  256
370
   -1
100
AcDbCircle
 10
117.1953282912023
 20
-168.3046717087978
 40
1.5
  0
CIRCLE
  5
5E
100
AcDbEntity
  8
bottom plate
  6
ByLayer
 62
  256
370
   -1
100
AcDbCircle
 10
150
 20
-155.5
 40
1
  0
CIRCLE
  5
5F
100
AcDbEntity
  8
bottom plate
  6
ByLayer
 62
  256
370
   -1
100
AcDbCircle
 10
156.4346717087976
 20
-161.9346717087976
 40
1.5
  0
CIRCLE
  5
60
100
AcDbEntity
  8
bottom plate
  6
ByLayer
 62
  256
370
   -1
100
AcDbCircle
 10
162.8046717087978
 20
-168.3046717087977
 40
1.5
  0
LWPOLYLINE
  5
61
100
AcDbEntity
  8
bottom plate
  6
ByLayer
 62
  256
370
   -1
100
AcDbPolyline
 90
    2
 70
    0
 43
0
 10
159.8065389565668
 20
-171.3028044610287
 42
0.9999999999999952
 10
165.8028044610288
 20
-165.3065389565668
 42
0.9999999999999952
  0
LINE
  5
62
100
AcDbEntity
  8
bottom plate
  6
ByLayer
 62
  256
370
   -1
100
AcDbLine
 10
165.8028044610288
 20
-165.3065389565668
 11
162.267270555096
 21
-161.7710050506339
  0
LINE
  5
63
100
AcDbEntity
  8
bottom plate
  6
ByLayer
 62
  256
370
   -1
100
AcDbLine
 10
159.8065389565668
 20
-171.3028044610287
 11
156.271005050634
 21
-167.767270555096
  0
ARC
  5
64
100
AcDbEntity
  8
bottom plate
  6
ByLayer
 62
  256
370
   -1
100
AcDbCircle
 10
152.7354711447013
 20
-171.3028044610287
 40
5
100
AcDbArc
 50
45.00000000000051
 51
90.09466887053607
  0
ARC
  5
65
100
AcDbEntity
  8
bottom plate
  6
ByLayer
 62
  256
370
   -1
100
AcDbCircle
 10
165.8028044610288
 20
-158.2354711447012
 40
5
100
AcDbArc
 50
179.9053311294645
 51
225.0000000000001
  0
LWPOLYLINE
  5
66
100
AcDbEntity
  8
bottom plate
  6
ByLayer
 62
  256
370
   -1
100
AcDbPolyline
 90
    2
 70
    0
 43
0
 10
165.8028044610287
 20
-125.6934610434332
 42
0.9999999999999977
 10
159.8065389565668
 20
-119.6971955389712
 42
0.9999999999999977
  0
LINE
  5
67
100
AcDbEntity
  8
bottom plate
  6
ByLayer
 62
  256
370
   -1
100
AcDbLine
 10
159.8065389565668
 20
-119.6971955389712
 11
156.2710050506339
 21
-123.232729444904
  0
LINE
  5
68
100
AcDbEntity
  8
bottom plate
  6
ByLayer
 62
  256
370
   -1
100
AcDbLine
 10
165.8028044610287
 20
-125.6934610434332
 11
162.267270555096
 21
-129.228994949366
  0
ARC
  5
69
100
AcDbEntity
  8
bottom plate
  6
ByLayer
 62
  256
370
   -1
100
AcDbCircle
 10
165.8028044610287
 20
-132.7645288552987
 40
5
100
AcDbArc
 50
135.0000000000005
 51
180.0946688705361
  0
ARC
  5
6A
100
AcDbEntity
  8
bottom plate
  6
ByLayer
 62
  256
370
   -1
100
AcDbCircle
 10
152.7354711447012
 20
-119.6971955389712
 40
5
100
AcDbArc
 50
269.9053311294645
 51
315.0000000000002
  0
LWPOLYLINE
  5
6B
100
AcDbEntity
  8
bottom plate
  6
ByLayer
 62
  256
370
   -1
100
AcDbPolyline
 90
    2
 70
    0
 43
0
 10
120.1934610434332
 20
-119.6971955389713
 42
0.9999999999999986
 10
114.1971955389712
 20
-125.6934610434332
 42
0.9999999999999986
  0
LINE
  5
6C
100
AcDbEntity
  8
bottom plate
  6
ByLayer
 62
  256
370
   -1
100
AcDbLine
 10
114.1971955389712
 20
-125.6934610434332
 11
117.732729444904
 21
-129.2289949493661
  0
LINE
  5
6D
100
AcDbEntity
  8
bottom plate
  6
ByLayer
 62
  256
370
   -1
100
AcDbLine
 10
120.1934610434332
 20
-119.6971955389713
 11
123.728994949366
 21
-123.232729444904
  0
ARC
  5
6E
100
AcDbEntity
  8
bottom plate
  6
ByLayer
 62
  256
370
   -1
100
AcDbCircle
 10
127.2645288552987
 20
-119.6971955389713
 40
5
100
AcDbArc
 50
225.0000000000005
 51
270.0946688705361
  0
ARC
  5
6F
100
AcDbEntity
  8
bottom plate
  6
ByLayer
 62
  256
370
   -1
100
AcDbCircle
 10
114.1971955389712
 20
-132.7645288552988
 40
5
100
AcDbArc
 50
359.9053311294645
 51
45.00000000000015
  0
LWPOLYLINE
  5
70
100
AcDbEntity
  8
bottom plate
  6
ByLayer
 62
  256
370
   -1
100
AcDbPolyline
 90
    2
 70
    0
 43
0
 10
114.1971955389713
 20
-165.3065389565668
 42
0.9999999999999963
 10
120.1934610434332
 20
-171.3028044610288
 42
0.9999999999999963
  0
LINE
  5
71
100
AcDbEntity
  8
bottom plate
  6
ByLayer
 62
  256
370
   -1
100
AcDbLine
 10
120.1934610434332
 20
-171.3028044610288
 11
123.7289949493661
 21
-167.767270555096
  0
LINE
  5
72
100
AcDbEntity
  8
bottom plate
  6
ByLayer
 62
  256
370
   -1
100
AcDbLine
 10
114.1971955389713
 20
-165.3065389565668
 11
117.732729444904
 21
-161.771005050634
  0
ARC
  5
73
100
AcDbEntity
  8
bottom plate
  6
ByLayer
 62
  256
370
   -1
100
AcDbCircle
 10
114.1971955389713
 20
-158.2354711447013
 40
5
100
AcDbArc
 50
315.0000000000005
 51
0.09466887053606445
  0
ARC
  5
74
100
AcDbEntity
  8
bottom plate
  6
ByLayer
 62
  256
370
   -1
100
AcDbCircle
 10
127.2645288552988
 20
-171.3028044610288
 40
5
100
AcDbArc
 50
89.9053311294645
 51
135.0000000000001
  0
LINE
  5
75
100
AcDbEntity
  8
bottom plate
  6
ByLayer
 62
  256
370
   -1
100
AcDbLine
 10
127.2727902689897
 20
-124.697188713871
 11
152.7272097310102
 21
-124.6971887138709
  0
LINE
  5
76
100
AcDbEntity
  8
bottom plate
  6
ByLayer
 62
  256
370
   -1
100
AcDbLine
 10
119.1971887138709
 20
-132.7727902689898
 11
119.197188713871
 21
-158.2272097310103
  0
LINE
  5
77
100
AcDbEntity
  8
bottom plate
  6
ByLayer
 62
  256
370
   -1
100
AcDbLine
 10
127.2727902689898
 20
-166.3028112861291
 11
152.7272097310103
 21
-166.302811286129
  0
LINE
  5
78
100
AcDbEntity
  8
bottom plate
  6
ByLayer
 62
  256
370
   -1
100
AcDbLine
 10
160.8028112861291
 20
-158.2272097310102
 11
160.802811286129
 21
-132.7727902689897
  0
CIRCLE
  5
79
100
AcDbEntity
  8
props
  6
ByLayer
 62
  256
370
   -1
100
AcDbCircle
 10
59.92571798441313
 20
-65.42571798441313
 40
63
  0
CIRCLE
  5
7A
100
AcDbEntity
  8
arms
  6
ByLayer
 62
  256
370
   -1
100
AcDbCircle
 10
53.9294524799512
 20
-65.42571798441313
 40
1
  0
CIRCLE
  5
7B
100
AcDbEntity
  8
arms
  6
ByLayer
 62
  256
370
   -1
100
AcDbCircle
 10
59.92571798441313
 20
-59.4294524799512
 40
1
  0
CIRCLE
  5
7C
100
AcDbEntity
  8
arms
  6
ByLayer
 62
  256
370
   -1
100
AcDbCircle
 10
59.92571798441313
 20
-71.42198348887504
 40
1
  0
CIRCLE
  5
7D
100
AcDbEntity
  8
arms
  6
ByLayer
 62
  256
370
   -1
100
AcDbCircle
 10
65.92198348887504
 20
-65.42571798441313
 40
1
  0
CIRCLE
  5
7E
100
AcDbEntity
  8
arms
  6
ByLayer
 62
  256
370
   -1
100
AcDbCircle
 10
59.92571798441313
 20
-65.42571798441313
 40
2.5
  0
CIRCLE
  5
7F
100
AcDbEntity
  8
motors
  6
ByLayer
 62
  256
370
   -1
100
AcDbCircle
 10
59.92571798441313
 20
-65.42571798441313
 40
10
  0
CIRCLE
  5
80
100
AcDbEntity
  8
arms
  6
ByLayer
 62
  256
370
   -1
100
AcDbCircle
 10
117.1953282912024
 20
-122.6953282912024
 40
1.5
  0
CIRCLE
  5
81
100
AcDbEntity
  8
arms
  6
ByLayer
 62
  256
370
   -1
100
AcDbCircle
 10
123.5653282912024
 20
-129.0653282912024
 40
1.5
  0
SPLINE
  5
82
100
AcDbEntity
  8
arms
  6
ByLayer
 62
  256
370
   -1
100
AcDbSpline
210
0
220
0
230
0
 70
    8
 71
    2
 72
   19
 73
   16
 74
    0
 42
1e-007
 43
1e-007
 40
0
 40
0
 40
0
 40
0.07142857142857142
 40
0.1428571428571428
 40
0.2142857142857143
 40
0.2857142857142857
 40
0.3571428571428572
 40
0.4285714285714285
 40
0.5
 40
0.5714285714285714
 40
0.6428571428571429
 40
0.7142857142857143
 40
0.7857142857142857
 40
0.8571428571428571
 40
0.9285714285714286
 40
1
 40
1
 40
1
 10
120.5671955389714
 20
-132.0634610434333
 30
0
 10
79.1178787777292
 20
-90.66326336190561
 30
0
 10
65.53827984384401
 20
-76.97248320995371
 30
0
 10
58.02538826935938
 20
-76.80843317843747
 30
0
 10
53.17469696913722
 20
-75.40857123849116
 30
0
 10
49.33493027334494
 20
-71.19573782272556
 30
0
 10
47.00346718498398
 20
-62.64349639878175
 30
0
 10
44.78753346972789
 20
-54.97644768677159
 30
0
 10
49.47644768677159
 20
-50.28753346972789
 30
0
 10
57.14349639878175
 20
-52.50346718498399
 30
0
 10
65.69573782272558
 20
-54.83493027334494
 30
0
 10
69.90857123849116
 20
-58.67469696913722
 30
0
 10
71.30843317843747
 20
-63.52538826935938
 30
0
 10
71.47248320995371
 20
-71.03827984384401
 30
0
 10
85.16326336190561
 20
-84.6178787777292
 30
0
 10
126.5634610434334
 20
-126.0671955389714
 30
0
  0
CIRCLE
  5
83
100
AcDbEntity
  8
props
  6
ByLayer
 62
  256
370
   -1
100
AcDbCircle
 10
59.92571798441313
 20
-225.5742820155869
 40
63
  0
CIRCLE
  5
84
100
AcDbEntity
  8
arms
  6
ByLayer
 62
  256
370
   -1
100
AcDbCircle
 10
59.92571798441313
 20
-231.5705475200488
 40
1
  0
CIRCLE
  5
85
100
AcDbEntity
  8
arms
  6
ByLayer
 62
  256
370
   -1
100
AcDbCircle
 10
53.92945247995121
 20
-225.5742820155869
 40
1
  0
CIRCLE
  5
86
100
AcDbEntity
  8
arms
  6
ByLayer
 62
  256
370
   -1
100
AcDbCircle
 10
65.92198348887504
 20
-225.5742820155869
 40
1
  0
CIRCLE
  5
87
100
AcDbEntity
  8
arms
  6
ByLayer
 62
  256
370
   -1
100
AcDbCircle
 10
59.92571798441313
 20
-219.578016511125
 40
1
  0
CIRCLE
  5
88
100
AcDbEntity
  8
arms
  6
ByLayer
 62
  256
370
   -1
100
AcDbCircle
 10
59.92571798441313
 20
-225.5742820155869
 40
2.5
  0
CIRCLE
  5
89
100
AcDbEntity
  8
motors
  6
ByLayer
 62
  256
370
   -1
100
AcDbCircle
 10
59.92571798441313
 20
-225.5742820155869
 40
10
  0
CIRCLE
  5
8A
100
AcDbEntity
  8
arms
  6
ByLayer
 62
  256
370
   -1
100
AcDbCircle
 10
117.1953282912024
 20
-168.3046717087976
 40
1.5
  0
CIRCLE
  5
8B
100
AcDbEntity
  8
arms
  6
ByLayer
 62
  256
370
   -1
100
AcDbCircle
 10
123.5653282912024
 20
-161.9346717087976
 40
1.5
  0
SPLINE
  5
8C
100
AcDbEntity
  8
arms
  6
ByLayer
 62
  256
370
   -1
100
AcDbSpline
210
0
220
0
230
0
 70
    8
 71
    2
 72
   19
 73
   16
 74
    0
 42
1e-007
 43
1e-007
 40
0
 40
0
 40
0
 40
0.07142857142857142
 40
0.1428571428571428
 40
0.2142857142857143
 40
0.2857142857142857
 40
0.3571428571428572
 40
0.4285714285714285
 40
0.5
 40
0.5714285714285714
 40
0.6428571428571429
 40
0.7142857142857143
 40
0.7857142857142857
 40
0.8571428571428571
 40
0.9285714285714286
 40
1
 40
1
 40
1
 10
126.5634610434333
 20
-164.9328044610286
 30
0
 10
85.16326336190561
 20
-206.3821212222708
 30
0
 10
71.47248320995371
 20
-219.961720156156
 30
0
 10
71.30843317843747
 20
-227.4746117306406
 30
0
 10
69.90857123849116
 20
-232.3253030308628
 30
0
 10
65.69573782272556
 20
-236.165069726655
 30
0
 10
57.14349639878174
 20
-238.496532815016
 30
0
 10
49.47644768677158
 20
-240.7124665302721
 30
0
 10
44.78753346972788
 20
-236.0235523132284
 30
0
 10
47.00346718498398
 20
-228.3565036012182
 30
0
 10
49.33493027334493
 20
-219.8042621772744
 30
0
 10
53.17469696913722
 20
-215.5914287615088
 30
0
 10
58.02538826935938
 20
-214.1915668215625
 30
0
 10
65.53827984384401
 20
-214.0275167900463
 30
0
 10
79.1178787777292
 20
-200.3367366380944
 30
0
 10
120.5671955389714
 20
-158.9365389565666
 30
0
  0
CIRCLE
  5
8D
100
AcDbEntity
  8
props
  6
ByLayer
 62
  256
370
   -1
100
AcDbCircle
 10
220.0742820155868
 20
-225.5742820155869
 40
63
  0
CIRCLE
  5
8E
100
AcDbEntity
  8
arms
  6
ByLayer
 62
  256
370
   -1
100
AcDbCircle
 10
226.0705475200488
 20
-225.5742820155869
 40
1
  0
CIRCLE
  5
8F
100
AcDbEntity
  8
arms
  6
ByLayer
 62
  256
370
   -1
100
AcDbCircle
 10
220.0742820155868
 20
-231.5705475200488
 40
1
  0
CIRCLE
  5
90
100
AcDbEntity
  8
arms
  6
ByLayer
 62
  256
370
   -1
100
AcDbCircle
 10
220.0742820155868
 20
-219.578016511125
 40
1
  0
CIRCLE
  5
91
100
AcDbEntity
  8
arms
  6
ByLayer
 62
  256
370
   -1
100
AcDbCircle
 10
214.0780165111249
 20
-225.5742820155869
 40
1
  0
CIRCLE
  5
92
100
AcDbEntity
  8
arms
  6
ByLayer
 62
  256
370
   -1
100
AcDbCircle
 10
220.0742820155868
 20
-225.5742820155869
 40
2.5
  0
CIRCLE
  5
93
100
AcDbEntity
  8
motors
  6
ByLayer
 62
  256
370
   -1
100
AcDbCircle
 10
220.0742820155868
 20
-225.5742820155869
 40
10
  0
CIRCLE
  5
94
100
AcDbEntity
  8
arms
  6
ByLayer
 62
  256
370
   -1
100
AcDbCircle
 10
162.8046717087976
 20
-168.3046717087976
 40
1.5
  0
CIRCLE
  5
95
100
AcDbEntity
  8
arms
  6
ByLayer
 62
  256
370
   -1
100
AcDbCircle
 10
156.4346717087976
 20
-161.9346717087976
 40
1.5
  0
SPLINE
  5
96
100
AcDbEntity
  8
arms
  6
ByLayer
 62
  256
370
   -1
100
AcDbSpline
210
0
220
0
230
0
 70
    8
 71
    2
 72
   19
 73
   16
 74
    0
 42
1e-007
 43
1e-007
 40
0
 40
0
 40
0
 40
0.07142857142857142
 40
0.1428571428571428
 40
0.2142857142857143
 40
0.2857142857142857
 40
0.3571428571428572
 40
0.4285714285714285
 40
0.5
 40
0.5714285714285714
 40
0.6428571428571429
 40
0.7142857142857143
 40
0.7857142857142857
 40
0.8571428571428571
 40
0.9285714285714286
 40
1
 40
1
 40
1
 10
159.4328044610286
 20
-158.9365389565667
 30
0
 10
200.8821212222708
 20
-200.3367366380944
 30
0
 10
214.461720156156
 20
-214.0275167900463
 30
0
 10
221.9746117306406
 20
-214.1915668215625
 30
0
 10
226.8253030308628
 20
-215.5914287615088
 30
0
 10
230.665069726655
 20
-219.8042621772744
 30
0
 10
232.996532815016
 20
-228.3565036012183
 30
0
 10
235.2124665302721
 20
-236.0235523132284
 30
0
 10
230.5235523132284
 20
-240.7124665302721
 30
0
 10
222.8565036012182
 20
-238.496532815016
 30
0
 10
214.3042621772744
 20
-236.1650697266551
 30
0
 10
210.0914287615088
 20
-232.3253030308628
 30
0
 10
208.6915668215625
 20
-227.4746117306406
 30
0
 10
208.5275167900463
 20
-219.961720156156
 30
0
 10
194.8367366380944
 20
-206.3821212222708
 30
0
 10
153.4365389565666
 20
-164.9328044610286
 30
0
  0
CIRCLE
  5
97
100
AcDbEntity
  8
props
  6
ByLayer
 62
  256
370
   -1
100
AcDbCircle
 10
220.0742820155869
 20
-65.42571798441314
 40
63
  0
CIRCLE
  5
98
100
AcDbEntity
  8
arms
  6
ByLayer
 62
  256
370
   -1
100
AcDbCircle
 10
220.0742820155869
 20
-59.42945247995122
 40
1
  0
CIRCLE
  5
99
100
AcDbEntity
  8
arms
  6
ByLayer
 62
  256
370
   -1
100
AcDbCircle
 10
226.0705475200488
 20
-65.42571798441314
 40
1
  0
CIRCLE
  5
9A
100
AcDbEntity
  8
arms
  6
ByLayer
 62
  256
370
   -1
100
AcDbCircle
 10
214.078016511125
 20
-65.42571798441314
 40
1
  0
CIRCLE
  5
9B
100
AcDbEntity
  8
arms
  6
ByLayer
 62
  256
370
   -1
100
AcDbCircle
 10
220.0742820155869
 20
-71.42198348887506
 40
1
  0
CIRCLE
  5
9C
100
AcDbEntity
  8
arms
  6
ByLayer
 62
  256
370
   -1
100
AcDbCircle
 10
220.0742820155869
 20
-65.42571798441314
 40
2.5
  0
CIRCLE
  5
9D
100
AcDbEntity
  8
motors
  6
ByLayer
 62
  256
370
   -1
100
AcDbCircle
 10
220.0742820155869
 20
-65.42571798441314
 40
10
  0
CIRCLE
  5
9E
100
AcDbEntity
  8
arms
  6
ByLayer
 62
  256
370
   -1
100
AcDbCircle
 10
162.8046717087976
 20
-122.6953282912024
 40
1.5
  0
CIRCLE
  5
9F
100
AcDbEntity
  8
arms
  6
ByLayer
 62
  256
370
   -1
100
AcDbCircle
 10
156.4346717087976
 20
-129.0653282912024
 40
1.5
  0
SPLINE
  5
A0
100
AcDbEntity
  8
arms
  6
ByLayer
 62
  256
370
   -1
100
AcDbSpline
210
0
220
0
230
0
 70
    8
 71
    2
 72
   19
 73
   16
 74
    0
 42
1e-007
 43
1e-007
 40
0
 40
0
 40
0
 40
0.07142857142857142
 40
0.1428571428571428
 40
0.2142857142857143
 40
0.2857142857142857
 40
0.3571428571428572
 40
0.4285714285714285
 40
0.5
 40
0.5714285714285714
 40
0.6428571428571429
 40
0.7142857142857143
 40
0.7857142857142857
 40
0.8571428571428571
 40
0.9285714285714286
 40
1
 40
1
 40
1
 10
153.4365389565667
 20
-126.0671955389714
 30
0
 10
194.8367366380944
 20
-84.61787877772922
 30
0
 10
208.5275167900463
 20
-71.03827984384402
 30
0
 10
208.6915668215626
 20
-63.5253882693594
 30
0
 10
210.0914287615089
 20
-58.67469696913724
 30
0
 10
214.3042621772745
 20
-54.83493027334496
 30
0
 10
222.8565036012183
 20
-52.50346718498399
 30
0
 10
230.5235523132284
 20
-50.2875334697279
 30
0
 10
235.2124665302721
 20
-54.9764476867716
 30
0
 10
232.996532815016
 20
-62.64349639878176
 30
0
 10
230.6650697266551
 20
-71.19573782272559
 30
0
 10
226.8253030308628
 20
-75.40857123849118
 30
0
 10
221.9746117306406
 20
-76.80843317843748
 30
0
 10
214.461720156156
 20
-76.97248320995372
 30
0
 10
200.8821212222708
 20
-90.66326336190562
 30
0
 10
159.4328044610286
 20
-132.0634610434334
 30
0
  0
ARC
  5
A1
100
AcDbEntity
  8
top plate
  6
ByLayer
 62
  256
370
   -1
100
AcDbCircle
 10
123.5653282912024
 20
-129.0653282912024
 40
4.240000000000048
100
AcDbArc
 50
45.00000000142985
 51
225
  0
LINE
  5
A2
100
AcDbEntity
  8
top plate
  6
ByLayer
 62
  256
370
   -1
100
AcDbLine
 10
120.5671961443062
 20
-132.0634616487686
 11
122.3349630972726
 21
-133.8312286017349
  0
ARC
  5
A3
100
AcDbEntity
  8
top plate
  6
ByLayer
 62
  256
370
   -1
100
AcDbCircle
 10
119.3651146162891
 20
-136.8010770827185
 40
4.2
100
AcDbArc
 50
0.01225694098445286
 51
45.00000000000014
  0
LINE
  5
A4
100
AcDbEntity
  8
top plate
  6
ByLayer
 62
  256
370
   -1
100
AcDbLine
 10
126.5634616487686
 20
-126.0671961443062
 11
128.3312286017349
 21
-127.8349630972726
  0
ARC
  5
A5
100
AcDbEntity
  8
top plate
  6
ByLayer
 62
  256
370
   -1
100
AcDbCircle
 10
123.5653282912024
 20
-161.9346717087976
 40
4.240000000000048
100
AcDbArc
 50
135.0000000014298
 51
315
  0
LINE
  5
A6
100
AcDbEntity
  8
top plate
  6
ByLayer
 62
  256
370
   -1
100
AcDbLine
 10
126.5634616487686
 20
-164.9328038556938
 11
128.3312286017349
 21
-163.1650369027274
  0
ARC
  5
A7
100
AcDbEntity
  8
top plate
  6
ByLayer
 62
  256
370
   -1
100
AcDbCircle
 10
131.3010770827185
 20
-166.1348853837109
 40
4.2
100
AcDbArc
 50
90.01225694098446
 51
135.0000000000001
  0
LINE
  5
A8
100
AcDbEntity
  8
top plate
  6
ByLayer
 62
  256
370
   -1
100
AcDbLine
 10
120.5671961443062
 20
-158.9365383512314
 11
122.3349630972726
 21
-157.1687713982651
  0
ARC
  5
A9
100
AcDbEntity
  8
top plate
  6
ByLayer
 62
  256
370
   -1
100
AcDbCircle
 10
119.3651146162891
 20
-154.1989229172815
 40
4.2
100
AcDbArc
 50
314.9999999999998
 51
359.9877430590155
  0
ARC
  5
AA
100
AcDbEntity
  8
top plate
  6
ByLayer
 62
  256
370
   -1
100
AcDbCircle
 10
156.4346717087976
 20
-161.9346717087976
 40
4.240000000000048
100
AcDbArc
 50
225.0000000014298
 51
45
  0
LINE
  5
AB
100
AcDbEntity
  8
top plate
  6
ByLayer
 62
  256
370
   -1
100
AcDbLine
 10
159.4328038556938
 20
-158.9365383512314
 11
157.6650369027274
 21
-157.1687713982651
  0
ARC
  5
AC
100
AcDbEntity
  8
top plate
  6
ByLayer
 62
  256
370
   -1
100
AcDbCircle
 10
160.6348853837109
 20
-154.1989229172815
 40
4.2
100
AcDbArc
 50
180.0122569409845
 51
225.0000000000001
  0
LINE
  5
AD
100
AcDbEntity
  8
top plate
  6
ByLayer
 62
  256
370
   -1
100
AcDbLine
 10
153.4365383512314
 20
-164.9328038556938
 11
151.6687713982651
 21
-163.1650369027274
  0
ARC
  5
AE
100
AcDbEntity
  8
top plate
  6
ByLayer
 62
  256
370
   -1
100
AcDbCircle
 10
148.6989229172815
 20
-166.1348853837109
 40
4.2
100
AcDbArc
 50
44.99999999999984
 51
89.98774305901553
  0
ARC
  5
AF
100
AcDbEntity
  8
top plate
  6
ByLayer
 62
  256
370
   -1
100
AcDbCircle
 10
156.4346717087976
 20
-129.0653282912024
 40
4.240000000000048
100
AcDbArc
 50
315.0000000014298
 51
134.9999999999999
  0
LINE
  5
B0
100
AcDbEntity
  8
top plate
  6
ByLayer
 62
  256
370
   -1
100
AcDbLine
 10
153.4365383512314
 20
-126.0671961443062
 11
151.6687713982651
 21
-127.8349630972726
  0
LINE
  5
B1
100
AcDbEntity
  8
top plate
  6
ByLayer
 62
  256
370
   -1
100
AcDbLine
 10
159.4328038556938
 20
-132.0634616487686
 11
157.6650369027274
 21
-133.8312286017349
  0
ARC
  5
B2
100
AcDbEntity
  8
top plate
  6
ByLayer
 62
  256
370
   -1
100
AcDbCircle
 10
160.6348853837109
 20
-136.8010770827185
 40
4.2
100
AcDbArc
 50
134.9999999999999
 51
179.9877430590155
  0
LINE
  5
B3
100
AcDbEntity
  8
top plate
  6
ByLayer
 62
  256
370
   -1
100
AcDbLine
 10
123.5651099072291
 20
-136.807366445274
 11
123.5651145201858
 21
-154.1998213979756
  0
LINE
  5
B4
100
AcDbEntity
  8
top plate
  6
ByLayer
 62
  256
370
   -1
100
AcDbLine
 10
148.6998213979756
 20
-161.9348854798142
 11
131.3001786020244
 21
-161.9348854798142
  0
LINE
  5
B5
100
AcDbEntity
  8
top plate
  6
ByLayer
 62
  256
370
   -1
100
AcDbLine
 10
156.4348900927709
 20
-154.192633554726
 11
156.4348854798142
 21
-136.8001786020244
  0
ARC
  5
B6
100
AcDbEntity
  8
top plate
  6
ByLayer
 62
  256
370
   -1
100
AcDbCircle
 10
119.3651146162891
 20
-136.8010770827185
 40
12.68000000000063
100
AcDbArc
 50
0
 51
45.00000000000004
  0
LINE
  5
B7
100
AcDbEntity
  8
top plate
  6
ByLayer
 62
  256
370
   -1
100
AcDbLine
 10
132.0451146162897
 20
-136.8010770827185
 11
132.0451146162897
 21
-138.8010770827185
  0
ARC
  5
B8
100
AcDbEntity
  8
top plate
  6
ByLayer
 62
  256
370
   -1
100
AcDbCircle
 10
135.0451146162897
 20
-138.8010770827185
 40
3
100
AcDbArc
 50
180
 51
270
  0
ARC
  5
B9
100
AcDbEntity
  8
top plate
  6
ByLayer
 62
  256
370
   -1
100
AcDbCircle
 10
160.6348853837109
 20
-136.8010770827185
 40
12.68000000000063
100
AcDbArc
 50
134.9999999999999
 51
180
  0
LINE
  5
BA
100
AcDbEntity
  8
top plate
  6
ByLayer
 62
  256
370
   -1
100
AcDbLine
 10
147.9548853837103
 20
-136.8010770827185
 11
147.9548853837103
 21
-138.8010770827185
  0
ARC
  5
BB
100
AcDbEntity
  8
top plate
  6
ByLayer
 62
  256
370
   -1
100
AcDbCircle
 10
144.9548853837103
 20
-138.8010770827185
 40
3
100
AcDbArc
 50
270
 51
0
  0
LINE
  5
BC
100
AcDbEntity
  8
top plate
  6
ByLayer
 62
  256
370
   -1
100
AcDbLine
 10
135.0451146162897
 20
-141.8010770827185
 11
144.9548853837103
 21
-141.8010770827185
  0
CIRCLE
  5
BD
100
AcDbEntity
  8
top plate
  6
ByLayer
 62
  256
370
   -1
100
AcDbCircle
 10
123.5653282912024
 20
-129.0653282912024
 40
1.5
  0
CIRCLE
  5
BE
100
AcDbEntity
  8
top plate
  6
ByLayer
 62
  256
370
   -1
100
AcDbCircle
 10
156.4346717087976
 20
-129.0653282912024
 40
1.5
  0
CIRCLE
  5
BF
100
AcDbEntity
  8
top plate
  6
ByLayer
 62
  256
370
   -1
100
AcDbCircle
 10
156.4346717087976
 20
-161.9346717087976
 40
1.5
  0
CIRCLE
  5
C0
100
AcDbEntity
  8
top plate
  6
ByLayer
 62
  256
370
   -1
100
AcDbCircle
 10
123.5653282912024
 20
-161.9346717087976
 40
1.5
  0
CIRCLE
  5
C1
100
AcDbEntity
  8
reinforcement
  6
ByLayer
 62
  256
370
   -1
100
AcDbCircle
 10
53.93318697548928
 20
-65.42571798441313
 40
1
  0
CIRCLE
  5
C2
100
AcDbEntity
  8
reinforcement
  6
ByLayer
 62
  256
370
   -1
100
AcDbCircle
 10
65.92571798441313
 20
-65.42571798441313
 40
1
  0
ARC
  5
C3
100
AcDbEntity
  8
reinforcement
  6
ByLayer
 62
  256
370
   -1
100
AcDbCircle
 10
53.93318697548928
 20
-65.42571798441313
 40
4
100
AcDbArc
 50
90
 51
270
  0
CIRCLE
  5
C4
100
AcDbEntity
  8
reinforcement
  6
ByLayer
 62
  256
370
   -1
100
AcDbCircle
 10
214.078016511125
 20
-65.42571798441311
 40
1
  0
CIRCLE
  5
C5
100
AcDbEntity
  8
reinforcement
  6
ByLayer
 62
  256
370
   -1
100
AcDbCircle
 10
226.0705475200488
 20
-65.42571798441314
 40
1
  0
ARC
  5
C6
100
AcDbEntity
  8
reinforcement
  6
ByLayer
 62
  256
370
   -1
100
AcDbCircle
 10
226.0705475200488
 20
-65.42571798441314
 40
3.999999999999979
100
AcDbArc
 50
269.9999999999996
 51
90.0000000000004
  0
LINE
  5
C7
100
AcDbEntity
  8
reinforcement
  6
ByLayer
 62
  256
370
   -1
100
AcDbLine
 10
226.0705475200488
 20
-61.42571798441316
 11
53.93318697548928
 21
-61.42571798441313
  0
LINE
  5
C8
100
AcDbEntity
  8
reinforcement
  6
ByLayer
 62
  256
370
   -1
100
AcDbLine
 10
53.93318697548928
 20
-69.42571798441313
 11
226.0705475200488
 21
-69.42571798441313
  0
LWPOLYLINE
  5
C9
100
AcDbEntity
  8
arms
  6
ByLayer
 62
  256
370
   -1
100
AcDbPolyline
 90
    2
 70
    0
 43
0
 10
120.5671955389714
 20
-132.0634610434334
 42
0.9999999999999977
 10
126.5634610434334
 20
-126.0671955389715
 42
0.9999999999999977
  0
LWPOLYLINE
  5
CA
100
AcDbEntity
  8
arms
  6
ByLayer
 62
  256
370
   -1
100
AcDbPolyline
 90
    2
 70
    0
 43
0
 10
126.5634610434334
 20
-164.9328044610286
 42
0.9999999999999988
 10
120.5671955389715
 20
-158.9365389565666
 42
0.9999999999999988
  0
LWPOLYLINE
  5
CB
100
AcDbEntity
  8
arms
  6
ByLayer
 62
  256
370
   -1
100
AcDbPolyline
 90
    2
 70
    0
 43
0
 10
159.4328044610286
 20
-158.9365389565666
 42
0.999999999999995
 10
153.4365389565666
 20
-164.9328044610286
 42
0.999999999999995
  0
LWPOLYLINE
  5
CC
100
AcDbEntity
  8
arms
  6
ByLayer
 62
  256
370
   -1
100
AcDbPolyline
 90
    2
 70
    0
 43
0
 10
153.4365389565666
 20
-126.0671955389714
 42
0.9999999999999986
 10
159.4328044610286
 20
-132.0634610434334
 42
0.9999999999999986
  0
CIRCLE
  5
CD
100
AcDbEntity
  8
reinforcement
  6
ByLayer
 62
  256
370
   -1
100
AcDbCircle
 10
53.92945247995121
 20
-225.5742820155869
 40
1
  0
CIRCLE
  5
CE
100
AcDbEntity
  8
reinforcement
  6
ByLayer
 62
  256
370
   -1
100
AcDbCircle
 10
65.92198348887506
 20
-225.5742820155869
 40
1
  0
ARC
  5
CF
100
AcDbEntity
  8
reinforcement
  6
ByLayer
 62
  256
370
   -1
100
AcDbCircle
 10
53.92945247995121
 20
-225.5742820155869
 40
4
100
AcDbArc
 50
90
 51
270
  0
CIRCLE
  5
D0
100
AcDbEntity
  8
reinforcement
  6
ByLayer
 62
  256
370
   -1
100
AcDbCircle
 10
214.0742820155869
 20
-225.5742820155869
 40
1
  0
CIRCLE
  5
D1
100
AcDbEntity
  8
reinforcement
  6
ByLayer
 62
  256
370
   -1
100
AcDbCircle
 10
226.0668130245107
 20
-225.5742820155869
 40
1
  0
ARC
  5
D2
100
AcDbEntity
  8
reinforcement
  6
ByLayer
 62
  256
370
   -1
100
AcDbCircle
 10
226.0668130245107
 20
-225.5742820155869
 40
3.999999999999979
100
AcDbArc
 50
269.9999999999996
 51
90.0000000000004
  0
LINE
  5
D3
100
AcDbEntity
  8
reinforcement
  6
ByLayer
 62
  256
370
   -1
100
AcDbLine
 10
226.0668130245107
 20
-221.5742820155869
 11
53.92945247995121
 21
-221.5742820155869
  0
LINE
  5
D4
100
AcDbEntity
  8
reinforcement
  6
ByLayer
 62
  256
370
   -1
100
AcDbLine
 10
53.92945247995121
 20
-229.5742820155869
 11
226.0668130245107
 21
-229.5742820155869
  0
ENDSEC
  0
SECTION
  2
OBJECTS
  0
DICTIONARY
  5
C
330
0
100
AcDbDictionary
281
    1
  3
ACAD_GROUP
350
D
  0
DICTIONARY
  5
D
330
C
100
AcDbDictionary
281
    1
  0
ENDSEC
  0
EOF
