999
dxfrw 0.6.3
  0
SECTION
  2
HEADER
  9
$ACADVER
  1
AC1021
  9
$DWGCODEPAGE
  3
ANSI_1252
  9
$INSBASE
 10
0
 20
0
 30
0
  9
$EXTMIN
 10
1
 20
-148.8493434175955
 30
0
  9
$EXTMAX
 10
186.1480000000001
 20
-1.923835185320099
 30
0
  9
$LIMMIN
 10
0
 20
0
  9
$LIMMAX
 10
12
 20
9
  9
$ORTHOMODE
 70
    0
  9
$REGENMODE
 70
    1
  9
$FILLMODE
 70
    1
  9
$QTEXTMODE
 70
    0
  9
$MIRRTEXT
 70
    0
  9
$LTSCALE
 40
1
  9
$ATTMODE
 70
    1
  9
$TEXTSIZE
 40
0.2
  9
$TRACEWID
 40
0.05
  9
$TEXTSTYLE
  7
STANDARD
  9
$CLAYER
  8
0
  9
$CELTYPE
  6
BYLAYER
  9
$CECOLOR
 62
  256
  9
$CELTSCALE
 40
1
  9
$DISPSILH
 70
    0
  9
$DIMSCALE
 40
1
  9
$DIMASZ
 40
2.5
  9
$DIMEXO
 40
0.625
  9
$DIMDLI
 40
5
  9
$DIMRND
 40
0
  9
$DIMDLE
 40
0
  9
$DIMEXE
 40
1.25
  9
$DIMTP
 40
0
  9
$DIMTM
 40
0
  9
$DIMTXT
 40
2.5
  9
$DIMCEN
 40
0.09
  9
$DIMTSZ
 40
0
  9
$DIMTOL
 70
    0
  9
$DIMLIM
 70
    0
  9
$DIMTIH
 70
    1
  9
$DIMTOH
 70
    1
  9
$DIMSE1
 70
    0
  9
$DIMSE2
 70
    0
  9
$DIMTAD
 70
    0
  9
$DIMZIN
 70
    8
  9
$DIMBLK
  1

  9
$DIMASO
 70
    1
  9
$DIMSHO
 70
    1
  9
$DIMPOST
  1

  9
$DIMAPOST
  1

  9
$DIMALT
 70
    0
  9
$DIMALTD
 70
    2
  9
$DIMALTF
 40
25.4
  9
$DIMLFAC
 40
1
  9
$DIMTOFL
 70
    0
  9
$DIMTVP
 40
0
  9
$DIMTIX
 70
    0
  9
$DIMSOXD
 70
    0
  9
$DIMSAH
 70
    0
  9
$DIMBLK1
  1

  9
$DIMBLK2
  1

  9
$DIMSTYLE
  2
STANDARD
  9
$DIMCLRD
 70
    0
  9
$DIMCLRE
 70
    0
  9
$DIMCLRT
 70
    0
  9
$DIMTFAC
 40
1
  9
$DIMGAP
 40
0.625
  9
$DIMJUST
 70
    0
  9
$DIMSD1
 70
    0
  9
$DIMSD2
 70
    0
  9
$DIMTOLJ
 70
    0
  9
$DIMTZIN
 70
    8
  9
$DIMALTZ
 70
    0
  9
$DIMALTTZ
 70
    0
  9
$DIMUPT
 70
    0
  9
$DIMDEC
 70
    4
  9
$DIMTDEC
 70
    2
  9
$DIMALTU
 70
    2
  9
$DIMALTTD
 70
    3
  9
$DIMTXSTY
  7
STANDARD
  9
$DIMAUNIT
 70
    0
  9
$DIMADEC
 70
    0
  9
$DIMALTRND
 40
0
  9
$DIMAZIN
 70
    0
  9
$DIMDSEP
 70
   44
  9
$DIMATFIT
 70
    3
  9
$DIMFRAC
 70
    0
  9
$DIMLDRBLK
  1
STANDARD
  9
$DIMLUNIT
 70
    2
  9
$DIMLWD
 70
   -2
  9
$DIMLWE
 70
   -2
  9
$DIMTMOVE
 70
    0
  9
$DIMFXL
 40
1
  9
$DIMFXLON
 70
    0
  9
$DIMJOGANG
 40
0.7854
  9
$DIMTFILL
 70
    0
  9
$DIMTFILLCLR
 70
    0
  9
$DIMARCSYM
 70
    0
  9
$DIMLTYPE
  6

  9
$DIMLTEX1
  6

  9
$DIMLTEX2
  6

  9
$LUNITS
 70
    2
  9
$LUPREC
 70
    4
  9
$SKETCHINC
 40
0.1
  9
$FILLETRAD
 40
0.5
  9
$AUNITS
 70
    0
  9
$AUPREC
 70
    0
  9
$MENU
  1
.
  9
$ELEVATION
 40
0
  9
$PELEVATION
 40
0
  9
$THICKNESS
 40
0
  9
$LIMCHECK
 70
    0
  9
$CHAMFERA
 40
0
  9
$CHAMFERB
 40
0
  9
$CHAMFERC
 40
0
  9
$CHAMFERD
 40
0
  9
$SKPOLY
 70
    0
  9
$USRTIMER
 70
    1
  9
$ANGBASE
 50
0
  9
$ANGDIR
 70
    0
  9
$PDMODE
 70
    0
  9
$PDSIZE
 40
0
  9
$PLINEWID
 40
0
  9
$SPLFRAME
 70
    0
  9
$SPLINETYPE
 70
    6
  9
$SPLINESEGS
 70
    8
  9
$HANDSEED
  5
20000
  9
$SURFTAB1
 70
    6
  9
$SURFTAB2
 70
    6
  9
$SURFTYPE
 70
    6
  9
$SURFU
 70
    6
  9
$SURFV
 70
    6
  9
$UCSBASE
  2

  9
$UCSNAME
  2

  9
$UCSORG
 10
0
 20
0
 30
0
  9
$UCSXDIR
 10
1
 20
0
 30
0
  9
$UCSYDIR
 10
0
 20
1
 30
0
  9
$UCSORTHOREF
  2

  9
$UCSORTHOVIEW
 70
    0
  9
$UCSORGTOP
 10
0
 20
0
 30
0
  9
$UCSORGBOTTOM
 10
0
 20
0
 30
0
  9
$UCSORGLEFT
 10
0
 20
0
 30
0
  9
$UCSORGRIGHT
 10
0
 20
0
 30
0
  9
$UCSORGFRONT
 10
0
 20
0
 30
0
  9
$UCSORGBACK
 10
0
 20
0
 30
0
  9
$PUCSBASE
  2

  9
$PUCSNAME
  2

  9
$PUCSORG
 10
0
 20
0
 30
0
  9
$PUCSXDIR
 10
1
 20
0
 30
0
  9
$PUCSYDIR
 10
0
 20
1
 30
0
  9
$PUCSORTHOREF
  2

  9
$PUCSORTHOVIEW
 70
    0
  9
$PUCSORGTOP
 10
0
 20
0
 30
0
  9
$PUCSORGBOTTOM
 10
0
 20
0
 30
0
  9
$PUCSORGLEFT
 10
0
 20
0
 30
0
  9
$PUCSORGRIGHT
 10
0
 20
0
 30
0
  9
$PUCSORGFRONT
 10
0
 20
0
 30
0
  9
$PUCSORGBACK
 10
0
 20
0
 30
0
  9
$USERI1
 70
    0
  9
$USERI2
 70
    0
  9
$USERI3
 70
    0
  9
$USERI4
 70
    0
  9
$USERI5
 70
    0
  9
$USERR1
 40
0
  9
$USERR2
 40
0
  9
$USERR3
 40
0
  9
$USERR4
 40
0
  9
$USERR5
 40
0
  9
$WORLDVIEW
 70
    1
  9
$SHADEDGE
 70
    3
  9
$SHADEDIF
 70
   70
  9
$TILEMODE
 70
    1
  9
$MAXACTVP
 70
   64
  9
$PINSBASE
 10
0
 20
0
 30
0
  9
$PLIMCHECK
 70
    0
  9
$PEXTMIN
 10
0
 20
0
 30
0
  9
$PEXTMAX
 10
0
 20
0
 30
0
  9
$GRIDMODE
 70
    1
  9
$SNAPSTYLE
 70
    0
  9
$PLIMMIN
 10
0
 20
0
  9
$PLIMMAX
 10
297
 20
210
  9
$UNITMODE
 70
    0
  9
$VISRETAIN
 70
    1
  9
$PLINEGEN
 70
    0
  9
$PSLTSCALE
 70
    1
  9
$TREEDEPTH
 70
 3020
  9
$CMLSTYLE
  2
Standard
  9
$CMLJUST
 70
    0
  9
$CMLSCALE
 40
20
  9
$PROXYGRAPHICS
 70
    1
  9
$MEASUREMENT
 70
    1
  9
$CELWEIGHT
370
   -1
  9
$ENDCAPS
280
    0
  9
$JOINSTYLE
280
    0
  9
$LWDISPLAY
290
    0
  9
$INSUNITS
 70
    4
  9
$HYPERLINKBASE
  1

  9
$STYLESHEET
  1

  9
$XEDIT
290
    1
  9
$CEPSNTYPE
380
    0
  9
$PSTYLEMODE
290
    1
  9
$EXTNAMES
290
    1
  9
$PSVPSCALE
 40
1
  9
$OLESTARTUP
290
    0
  9
$SORTENTS
280
  127
  9
$INDEXCTL
280
    0
  9
$HIDETEXT
280
    1
  9
$XCLIPFRAME
290
    0
  9
$HALOGAP
280
    0
  9
$OBSCOLOR
 70
  257
  9
$OBSLTYPE
280
    0
  9
$INTERSECTIONDISPLAY
280
    0
  9
$INTERSECTIONCOLOR
 70
  257
  9
$DIMASSOC
280
    1
  9
$PROJECTNAME
  1

  9
$CAMERADISPLAY
290
    0
  9
$LENSLENGTH
 40
50
  9
$CAMERAHEIGHT
 40
0
  9
$STEPSPERSEC
 40
2
  9
$STEPSIZE
 40
50
  9
$3DDWFPREC
 40
2
  9
$PSOLWIDTH
 40
5
  9
$PSOLHEIGHT
 40
80
  9
$LOFTANG1
 40
1.570796326794897
  9
$LOFTANG2
 40
1.570796326794897
  9
$LOFTMAG1
 40
0
  9
$LOFTMAG2
 40
0
  9
$LOFTPARAM
 70
    7
  9
$LOFTNORMALS
280
    1
  9
$LATITUDE
 40
1
  9
$LONGITUDE
 40
1
  9
$NORTHDIRECTION
 40
0
  9
$TIMEZONE
 70
-8000
  9
$LIGHTGLYPHDISPLAY
280
    1
  9
$TILEMODELIGHTSYNCH
280
    1
  9
$SOLIDHIST
280
    1
  9
$SHOWHIST
280
    1
  9
$DWFFRAME
280
    2
  9
$DGNFRAME
280
    0
  9
$REALWORLDSCALE
290
    1
  9
$INTERFERECOLOR
 62
    1
  9
$CSHADOW
280
    0
  9
$SHADOWPLANELOCATION
 40
0
  0
ENDSEC
  0
SECTION
  2
CLASSES
  0
ENDSEC
  0
SECTION
  2
TABLES
  0
TABLE
  2
VPORT
  5
8
330
0
100
AcDbSymbolTable
 70
    1
  0
VPORT
  5
31
330
2
100
AcDbSymbolTableRecord
100
AcDbViewportTableRecord
  2
*ACTIVE
 70
    0
 10
0
 20
0
 11
1
 21
1
 12
121.1997115531961
 22
35.69918273576648
 13
0
 23
0
 14
10
 24
10
 15
10
 25
10
 16
0
 26
0
 36
1
 17
0
 27
0
 37
0
 40
171.0010576348593
 41
1.794694348327566
 42
50
 43
0
 44
0
 50
0
 51
0
 71
    0
 72
  100
 73
    1
 74
    3
 75
    0
 76
    1
 77
    0
 78
    0
281
    0
 65
    1
110
0
120
0
130
0
111
1
121
0
131
0
112
0
122
1
132
0
 79
    0
146
0
348
10020
 60
    7
 61
    5
292
1
282
    1
141
0
142
0
 63
  250
421
3358443
  0
ENDTAB
  0
TABLE
  2
LTYPE
  5
5
330
0
100
AcDbSymbolTable
 70
    4
  0
LTYPE
  5
14
330
5
100
AcDbSymbolTableRecord
100
AcDbLinetypeTableRecord
  2
ByBlock
 70
    0
  3

 72
   65
 73
    0
 40
0
  0
LTYPE
  5
15
330
5
100
AcDbSymbolTableRecord
100
AcDbLinetypeTableRecord
  2
ByLayer
 70
    0
  3

 72
   65
 73
    0
 40
0
  0
LTYPE
  5
16
330
5
100
AcDbSymbolTableRecord
100
AcDbLinetypeTableRecord
  2
Continuous
 70
    0
  3
Solid line
 72
   65
 73
    0
 40
0
  0
LTYPE
  5
32
330
5
100
AcDbSymbolTableRecord
100
AcDbLinetypeTableRecord
  2
DOT
 70
    0
  3
Dot . . . . . . . . . . . . . . . . . . . . . .
 72
   65
 73
    2
 40
6.35
 49
0
 74
    0
 49
-6.35
 74
    0
  0
LTYPE
  5
33
330
5
100
AcDbSymbolTableRecord
100
AcDbLinetypeTableRecord
  2
DOTTINY
 70
    0
  3
Dot (.15x) .....................................
 72
   65
 73
    2
 40
0.9525
 49
0
 74
    0
 49
-0.9525
 74
    0
  0
LTYPE
  5
34
330
5
100
AcDbSymbolTableRecord
100
AcDbLinetypeTableRecord
  2
DOT2
 70
    0
  3
Dot (.5x) .....................................
 72
   65
 73
    2
 40
3.175
 49
0
 74
    0
 49
-3.175
 74
    0
  0
LTYPE
  5
35
330
5
100
AcDbSymbolTableRecord
100
AcDbLinetypeTableRecord
  2
DOTX2
 70
    0
  3
Dot (2x) .  .  .  .  .  .  .  .  .  .  .  .  .
 72
   65
 73
    2
 40
12.7
 49
0
 74
    0
 49
-12.7
 74
    0
  0
LTYPE
  5
36
330
5
100
AcDbSymbolTableRecord
100
AcDbLinetypeTableRecord
  2
DASHED
 70
    0
  3
Dashed _ _ _ _ _ _ _ _ _ _ _ _ _ _ _ _ _
 72
   65
 73
    2
 40
19.05
 49
12.7
 74
    0
 49
-6.35
 74
    0
  0
LTYPE
  5
37
330
5
100
AcDbSymbolTableRecord
100
AcDbLinetypeTableRecord
  2
DASHEDTINY
 70
    0
  3
Dashed (.15x) _ _ _ _ _ _ _ _ _ _ _ _ _ _ _ _ _
 72
   65
 73
    2
 40
2.8575
 49
1.905
 74
    0
 49
-0.9525
 74
    0
  0
LTYPE
  5
38
330
5
100
AcDbSymbolTableRecord
100
AcDbLinetypeTableRecord
  2
DASHED2
 70
    0
  3
Dashed (.5x) _ _ _ _ _ _ _ _ _ _ _ _ _ _ _ _ _
 72
   65
 73
    2
 40
9.524999999999999
 49
6.35
 74
    0
 49
-3.175
 74
    0
  0
LTYPE
  5
39
330
5
100
AcDbSymbolTableRecord
100
AcDbLinetypeTableRecord
  2
DASHEDX2
 70
    0
  3
Dashed (2x) ____  ____  ____  ____  ____  ___
 72
   65
 73
    2
 40
38.09999999999999
 49
25.4
 74
    0
 49
-12.7
 74
    0
  0
LTYPE
  5
3A
330
5
100
AcDbSymbolTableRecord
100
AcDbLinetypeTableRecord
  2
DASHDOT
 70
    0
  3
Dash dot __ . __ . __ . __ . __ . __ . __ . __
 72
   65
 73
    4
 40
25.4
 49
12.7
 74
    0
 49
-6.35
 74
    0
 49
0
 74
    0
 49
-6.35
 74
    0
  0
LTYPE
  5
3B
330
5
100
AcDbSymbolTableRecord
100
AcDbLinetypeTableRecord
  2
DASHDOTTINY
 70
    0
  3
Dash dot (.15x) _._._._._._._._._._._._._._._.
 72
   65
 73
    4
 40
3.81
 49
1.905
 74
    0
 49
-0.9525
 74
    0
 49
0
 74
    0
 49
-0.9525
 74
    0
  0
LTYPE
  5
3C
330
5
100
AcDbSymbolTableRecord
100
AcDbLinetypeTableRecord
  2
DASHDOT2
 70
    0
  3
Dash dot (.5x) _._._._._._._._._._._._._._._.
 72
   65
 73
    4
 40
12.7
 49
6.35
 74
    0
 49
-3.175
 74
    0
 49
0
 74
    0
 49
-3.175
 74
    0
  0
LTYPE
  5
3D
330
5
100
AcDbSymbolTableRecord
100
AcDbLinetypeTableRecord
  2
DASHDOTX2
 70
    0
  3
Dash dot (2x) ____  .  ____  .  ____  .  ___
 72
   65
 73
    4
 40
50.8
 49
25.4
 74
    0
 49
-12.7
 74
    0
 49
0
 74
    0
 49
-12.7
 74
    0
  0
LTYPE
  5
3E
330
5
100
AcDbSymbolTableRecord
100
AcDbLinetypeTableRecord
  2
DIVIDE
 70
    0
  3
Divide ____ . . ____ . . ____ . . ____ . . ____
 72
   65
 73
    6
 40
31.75
 49
12.7
 74
    0
 49
-6.35
 74
    0
 49
0
 74
    0
 49
-6.35
 74
    0
 49
0
 74
    0
 49
-6.35
 74
    0
  0
LTYPE
  5
3F
330
5
100
AcDbSymbolTableRecord
100
AcDbLinetypeTableRecord
  2
DIVIDETINY
 70
    0
  3
Divide (.15x) __..__..__..__..__..__..__..__.._
 72
   65
 73
    6
 40
4.7625
 49
1.905
 74
    0
 49
-0.9525
 74
    0
 49
0
 74
    0
 49
-0.9525
 74
    0
 49
0
 74
    0
 49
-0.9525
 74
    0
  0
LTYPE
  5
40
330
5
100
AcDbSymbolTableRecord
100
AcDbLinetypeTableRecord
  2
DIVIDE2
 70
    0
  3
Divide (.5x) __..__..__..__..__..__..__..__.._
 72
   65
 73
    6
 40
15.875
 49
6.35
 74
    0
 49
-3.175
 74
    0
 49
0
 74
    0
 49
-3.175
 74
    0
 49
0
 74
    0
 49
-3.175
 74
    0
  0
LTYPE
  5
41
330
5
100
AcDbSymbolTableRecord
100
AcDbLinetypeTableRecord
  2
DIVIDEX2
 70
    0
  3
Divide (2x) ________  .  .  ________  .  .  _
 72
   65
 73
    6
 40
63.5
 49
25.4
 74
    0
 49
-12.7
 74
    0
 49
0
 74
    0
 49
-12.7
 74
    0
 49
0
 74
    0
 49
-12.7
 74
    0
  0
LTYPE
  5
42
330
5
100
AcDbSymbolTableRecord
100
AcDbLinetypeTableRecord
  2
BORDER
 70
    0
  3
Border __ __ . __ __ . __ __ . __ __ . __ __ .
 72
   65
 73
    6
 40
44.45
 49
12.7
 74
    0
 49
-6.35
 74
    0
 49
12.7
 74
    0
 49
-6.35
 74
    0
 49
0
 74
    0
 49
-6.35
 74
    0
  0
LTYPE
  5
43
330
5
100
AcDbSymbolTableRecord
100
AcDbLinetypeTableRecord
  2
BORDERTINY
 70
    0
  3
Border (.15x) __.__.__.__.__.__.__.__.__.__.__.
 72
   65
 73
    6
 40
6.6675
 49
1.905
 74
    0
 49
-0.9525
 74
    0
 49
1.905
 74
    0
 49
-0.9525
 74
    0
 49
0
 74
    0
 49
-0.9525
 74
    0
  0
LTYPE
  5
44
330
5
100
AcDbSymbolTableRecord
100
AcDbLinetypeTableRecord
  2
BORDER2
 70
    0
  3
Border (.5x) __.__.__.__.__.__.__.__.__.__.__.
 72
   65
 73
    6
 40
22.225
 49
6.35
 74
    0
 49
-3.175
 74
    0
 49
6.35
 74
    0
 49
-3.175
 74
    0
 49
0
 74
    0
 49
-3.175
 74
    0
  0
LTYPE
  5
45
330
5
100
AcDbSymbolTableRecord
100
AcDbLinetypeTableRecord
  2
BORDERX2
 70
    0
  3
Border (2x) ____  ____  .  ____  ____  .  ___
 72
   65
 73
    6
 40
88.89999999999999
 49
25.4
 74
    0
 49
-12.7
 74
    0
 49
25.4
 74
    0
 49
-12.7
 74
    0
 49
0
 74
    0
 49
-12.7
 74
    0
  0
LTYPE
  5
46
330
5
100
AcDbSymbolTableRecord
100
AcDbLinetypeTableRecord
  2
CENTER
 70
    0
  3
Center ____ _ ____ _ ____ _ ____ _ ____ _ ____
 72
   65
 73
    4
 40
50.8
 49
31.75
 74
    0
 49
-6.35
 74
    0
 49
6.35
 74
    0
 49
-6.35
 74
    0
  0
LTYPE
  5
47
330
5
100
AcDbSymbolTableRecord
100
AcDbLinetypeTableRecord
  2
CENTERTINY
 70
    0
  3
Center (.15x) ___ _ ___ _ ___ _ ___ _ ___ _ ___
 72
   65
 73
    4
 40
7.62
 49
4.7625
 74
    0
 49
-0.9525
 74
    0
 49
0.9525
 74
    0
 49
-0.9525
 74
    0
  0
LTYPE
  5
48
330
5
100
AcDbSymbolTableRecord
100
AcDbLinetypeTableRecord
  2
CENTER2
 70
    0
  3
Center (.5x) ___ _ ___ _ ___ _ ___ _ ___ _ ___
 72
   65
 73
    4
 40
28.575
 49
19.05
 74
    0
 49
-3.175
 74
    0
 49
3.175
 74
    0
 49
-3.175
 74
    0
  0
LTYPE
  5
49
330
5
100
AcDbSymbolTableRecord
100
AcDbLinetypeTableRecord
  2
CENTERX2
 70
    0
  3
Center (2x) ________  __  ________  __  _____
 72
   65
 73
    4
 40
101.6
 49
63.5
 74
    0
 49
-12.7
 74
    0
 49
12.7
 74
    0
 49
-12.7
 74
    0
  0
ENDTAB
  0
TABLE
  2
LAYER
  5
2
330
0
100
AcDbSymbolTable
 70
    1
  0
LAYER
  5
10
330
2
100
AcDbSymbolTableRecord
100
AcDbLayerTableRecord
  2
0
 70
    0
 62
  256
  6
CONTINUOUS
370
   -3
390
F
  0
ENDTAB
  0
TABLE
  2
STYLE
  5
3
330
0
100
AcDbSymbolTable
 70
    3
  0
STYLE
  5
4A
330
2
100
AcDbSymbolTableRecord
100
AcDbTextStyleTableRecord
  2
Standard
 70
    0
 40
0
 41
1
 50
0
 71
    0
 42
1
  3
txt
  4

  0
ENDTAB
  0
TABLE
  2
VIEW
  5
6
330
0
100
AcDbSymbolTable
 70
    0
  0
ENDTAB
  0
TABLE
  2
UCS
  5
7
330
0
100
AcDbSymbolTable
 70
    0
  0
ENDTAB
  0
TABLE
  2
APPID
  5
9
330
0
100
AcDbSymbolTable
 70
    1
  0
APPID
  5
12
330
9
100
AcDbSymbolTableRecord
100
AcDbRegAppTableRecord
  2
ACAD
 70
    0
  0
APPID
  5
4B
330
9
100
AcDbSymbolTableRecord
100
AcDbRegAppTableRecord
  2
LibreCad
 70
    0
  0
ENDTAB
  0
TABLE
  2
DIMSTYLE
  5
A
330
0
100
AcDbSymbolTable
 70
    1
100
AcDbDimStyleTable
 71
    1
  0
DIMSTYLE
105
4C
330
A
100
AcDbSymbolTableRecord
100
AcDbDimStyleTableRecord
  2
Standard
 70
    0
 40
1
 41
2.5
 42
0.625
 43
0.38
 44
1.25
 45
0
 46
0
 47
0
 48
0
 49
1
140
2.5
141
0.09
142
0
143
25.4
144
1
145
0
146
1
147
0.625
148
0
 71
    0
 72
    0
 73
    1
 74
    1
 75
    0
 76
    0
 77
    0
 78
    8
 79
    0
170
    0
171
    2
172
    0
173
    0
174
    0
175
    0
176
    0
177
    0
178
    0
179
    0
271
    4
272
    4
273
    2
274
    2
275
    0
276
    0
277
    2
278
    0
279
    0
280
    0
281
    0
282
    0
283
    1
284
    0
285
    0
286
    0
288
    0
289
    3
340
standard
341

371
   -2
372
   -2
  0
ENDTAB
  0
TABLE
  2
BLOCK_RECORD
  5
1
330
0
100
AcDbSymbolTable
 70
    2
  0
BLOCK_RECORD
  5
1F
330
1
100
AcDbSymbolTableRecord
100
AcDbBlockTableRecord
  2
*Model_Space
 70
    0
280
    1
281
    0
  0
BLOCK_RECORD
  5
1E
330
1
100
AcDbSymbolTableRecord
100
AcDbBlockTableRecord
  2
*Paper_Space
 70
    0
280
    1
281
    0
  0
ENDTAB
  0
ENDSEC
  0
SECTION
  2
BLOCKS
  0
BLOCK
  5
20
330
1F
100
AcDbEntity
  8
0
100
AcDbBlockBegin
  2
*Model_Space
 70
    0
 10
0
 20
0
 30
0
  3
*Model_Space
  1

  0
ENDBLK
  5
21
330
1F
100
AcDbEntity
  8
0
100
AcDbBlockEnd
  0
BLOCK
  5
1C
330
1B
100
AcDbEntity
  8
0
100
AcDbBlockBegin
  2
*Paper_Space
 70
    0
 10
0
 20
0
 30
0
  3
*Paper_Space
  1

  0
ENDBLK
  5
1D
330
1F
100
AcDbEntity
  8
0
100
AcDbBlockEnd
  0
ENDSEC
  0
SECTION
  2
ENTITIES
  0
CIRCLE
  5
4D
100
AcDbEntity
  8
0
  6
ByLayer
 62
  256
370
   -1
100
AcDbCircle
 10
27
 20
-13
 40
2.5
  0
CIRCLE
  5
4E
100
AcDbEntity
  8
0
  6
ByLayer
 62
  256
370
   -1
100
AcDbCircle
 10
32.30330085889909
 20
-18.30330085889911
 40
1.5
  0
CIRCLE
  5
4F
100
AcDbEntity
  8
0
  6
ByLayer
 62
  256
370
   -1
100
AcDbCircle
 10
21.69669914110091
 20
-18.30330085889911
 40
1.5
  0
CIRCLE
  5
50
100
AcDbEntity
  8
0
  6
ByLayer
 62
  256
370
   -1
100
AcDbCircle
 10
14.27207793864216
 20
-13
 40
3
  0
CIRCLE
  5
51
100
AcDbEntity
  8
0
  6
ByLayer
 62
  256
370
   -1
100
AcDbCircle
 10
21.69669914110091
 20
-7.696699141100897
 40
1.5
  0
CIRCLE
  5
52
100
AcDbEntity
  8
0
  6
ByLayer
 62
  256
370
   -1
100
AcDbCircle
 10
32.30330085889909
 20
-7.696699141100893
 40
1.5
  0
CIRCLE
  5
53
100
AcDbEntity
  8
0
  6
ByLayer
 62
  256
370
   -1
100
AcDbCircle
 10
107.9914596076833
 20
-13.00000000000009
 40
1.5
  0
CIRCLE
  5
54
100
AcDbEntity
  8
0
  6
ByLayer
 62
  256
370
   -1
100
AcDbCircle
 10
116.9999999999999
 20
-13.00000000000009
 40
1.5
  0
CIRCLE
  5
55
100
AcDbEntity
  8
0
  6
ByLayer
 62
  256
370
   -1
100
AcDbCircle
 10
27
 20
-39
 40
2.5
  0
CIRCLE
  5
56
100
AcDbEntity
  8
0
  6
ByLayer
 62
  256
370
   -1
100
AcDbCircle
 10
32.30330085889909
 20
-44.30330085889911
 40
1.5
  0
CIRCLE
  5
57
100
AcDbEntity
  8
0
  6
ByLayer
 62
  256
370
   -1
100
AcDbCircle
 10
21.69669914110091
 20
-44.30330085889911
 40
1.5
  0
CIRCLE
  5
58
100
AcDbEntity
  8
0
  6
ByLayer
 62
  256
370
   -1
100
AcDbCircle
 10
14.27207793864216
 20
-39
 40
3
  0
CIRCLE
  5
59
100
AcDbEntity
  8
0
  6
ByLayer
 62
  256
370
   -1
100
AcDbCircle
 10
21.69669914110091
 20
-33.69669914110089
 40
1.5
  0
CIRCLE
  5
5A
100
AcDbEntity
  8
0
  6
ByLayer
 62
  256
370
   -1
100
AcDbCircle
 10
32.30330085889909
 20
-33.69669914110089
 40
1.5
  0
CIRCLE
  5
5B
100
AcDbEntity
  8
0
  6
ByLayer
 62
  256
370
   -1
100
AcDbCircle
 10
107.9914596076833
 20
-39.00000000000009
 40
1.5
  0
CIRCLE
  5
5C
100
AcDbEntity
  8
0
  6
ByLayer
 62
  256
370
   -1
100
AcDbCircle
 10
116.9999999999999
 20
-39.00000000000009
 40
1.5
  0
CIRCLE
  5
5D
100
AcDbEntity
  8
0
  6
ByLayer
 62
  256
370
   -1
100
AcDbCircle
 10
137.9999999999999
 20
-52.0000000000001
 40
2.5
  0
CIRCLE
  5
5E
100
AcDbEntity
  8
0
  6
ByLayer
 62
  256
370
   -1
100
AcDbCircle
 10
132.6966991411008
 20
-46.69669914110099
 40
1.5
  0
CIRCLE
  5
5F
100
AcDbEntity
  8
0
  6
ByLayer
 62
  256
370
   -1
100
AcDbCircle
 10
143.303300858899
 20
-46.69669914110099
 40
1.5
  0
CIRCLE
  5
60
100
AcDbEntity
  8
0
  6
ByLayer
 62
  256
370
   -1
100
AcDbCircle
 10
150.7279220613577
 20
-52.0000000000001
 40
3
  0
CIRCLE
  5
61
100
AcDbEntity
  8
0
  6
ByLayer
 62
  256
370
   -1
100
AcDbCircle
 10
143.303300858899
 20
-57.30330085889921
 40
1.5
  0
CIRCLE
  5
62
100
AcDbEntity
  8
0
  6
ByLayer
 62
  256
370
   -1
100
AcDbCircle
 10
132.6966991411008
 20
-57.30330085889921
 40
1.5
  0
CIRCLE
  5
63
100
AcDbEntity
  8
0
  6
ByLayer
 62
  256
370
   -1
100
AcDbCircle
 10
57.0085403923166
 20
-52
 40
1.5
  0
CIRCLE
  5
64
100
AcDbEntity
  8
0
  6
ByLayer
 62
  256
370
   -1
100
AcDbCircle
 10
47.99999999999994
 20
-52
 40
1.5
  0
CIRCLE
  5
65
100
AcDbEntity
  8
0
  6
ByLayer
 62
  256
370
   -1
100
AcDbCircle
 10
137.9999999999999
 20
-26.0000000000001
 40
2.5
  0
CIRCLE
  5
66
100
AcDbEntity
  8
0
  6
ByLayer
 62
  256
370
   -1
100
AcDbCircle
 10
132.6966991411008
 20
-20.69669914110099
 40
1.5
  0
CIRCLE
  5
67
100
AcDbEntity
  8
0
  6
ByLayer
 62
  256
370
   -1
100
AcDbCircle
 10
143.303300858899
 20
-20.69669914110099
 40
1.5
  0
CIRCLE
  5
68
100
AcDbEntity
  8
0
  6
ByLayer
 62
  256
370
   -1
100
AcDbCircle
 10
150.7279220613577
 20
-26.0000000000001
 40
3
  0
CIRCLE
  5
69
100
AcDbEntity
  8
0
  6
ByLayer
 62
  256
370
   -1
100
AcDbCircle
 10
143.303300858899
 20
-31.30330085889921
 40
1.5
  0
CIRCLE
  5
6A
100
AcDbEntity
  8
0
  6
ByLayer
 62
  256
370
   -1
100
AcDbCircle
 10
132.6966991411008
 20
-31.30330085889921
 40
1.5
  0
CIRCLE
  5
6B
100
AcDbEntity
  8
0
  6
ByLayer
 62
  256
370
   -1
100
AcDbCircle
 10
57.0085403923166
 20
-26
 40
1.5
  0
CIRCLE
  5
6C
100
AcDbEntity
  8
0
  6
ByLayer
 62
  256
370
   -1
100
AcDbCircle
 10
47.99999999999994
 20
-26
 40
1.5
  0
CIRCLE
  5
6D
100
AcDbEntity
  8
0
  6
ByLayer
 62
  256
370
   -1
100
AcDbCircle
 10
28.3046717087978
 20
-121.8046717087977
 40
5.119751269282875
  0
CIRCLE
  5
6E
100
AcDbEntity
  8
0
  6
ByLayer
 62
  256
370
   -1
100
AcDbCircle
 10
38.3046717087978
 20
-111.8046717087977
 40
1
  0
CIRCLE
  5
6F
100
AcDbEntity
  8
0
  6
ByLayer
 62
  256
370
   -1
100
AcDbCircle
 10
44.73934341759539
 20
-105.3700000000001
 40
1.5
  0
CIRCLE
  5
70
100
AcDbEntity
  8
0
  6
ByLayer
 62
  256
370
   -1
100
AcDbCircle
 10
51.10934341759551
 20
-98.9999999999999
 40
1.5
  0
CIRCLE
  5
71
100
AcDbEntity
  8
0
  6
ByLayer
 62
  256
370
   -1
100
AcDbCircle
 10
18.3046717087978
 20
-111.8046717087977
 40
1
  0
CIRCLE
  5
72
100
AcDbEntity
  8
0
  6
ByLayer
 62
  256
370
   -1
100
AcDbCircle
 10
11.8700000000002
 20
-105.3700000000001
 40
1.5
  0
CIRCLE
  5
73
100
AcDbEntity
  8
0
  6
ByLayer
 62
  256
370
   -1
100
AcDbCircle
 10
5.5
 20
-99
 40
1.5
  0
CIRCLE
  5
74
100
AcDbEntity
  8
0
  6
ByLayer
 62
  256
370
   -1
100
AcDbCircle
 10
18.3046717087978
 20
-131.8046717087977
 40
1
  0
CIRCLE
  5
75
100
AcDbEntity
  8
0
  6
ByLayer
 62
  256
370
   -1
100
AcDbCircle
 10
11.8700000000002
 20
-138.2393434175953
 40
1.5
  0
CIRCLE
  5
76
100
AcDbEntity
  8
0
  6
ByLayer
 62
  256
370
   -1
100
AcDbCircle
 10
5.500000000000099
 20
-144.6093434175955
 40
1.5
  0
CIRCLE
  5
77
100
AcDbEntity
  8
0
  6
ByLayer
 62
  256
370
   -1
100
AcDbCircle
 10
38.3046717087978
 20
-131.8046717087977
 40
1
  0
CIRCLE
  5
78
100
AcDbEntity
  8
0
  6
ByLayer
 62
  256
370
   -1
100
AcDbCircle
 10
44.73934341759539
 20
-138.2393434175953
 40
1.5
  0
CIRCLE
  5
79
100
AcDbEntity
  8
0
  6
ByLayer
 62
  256
370
   -1
100
AcDbCircle
 10
51.1093434175956
 20
-144.6093434175954
 40
1.5
  0
CIRCLE
  5
7A
100
AcDbEntity
  8
0
  6
ByLayer
 62
  256
370
   -1
100
AcDbCircle
 10
86.8046717087978
 20
-121.8046717087977
 40
5.119751269282875
  0
CIRCLE
  5
7B
100
AcDbEntity
  8
0
  6
ByLayer
 62
  256
370
   -1
100
AcDbCircle
 10
96.8046717087978
 20
-111.8046717087977
 40
1
  0
CIRCLE
  5
7C
100
AcDbEntity
  8
0
  6
ByLayer
 62
  256
370
   -1
100
AcDbCircle
 10
103.2393434175954
 20
-105.3700000000001
 40
1.5
  0
CIRCLE
  5
7D
100
AcDbEntity
  8
0
  6
ByLayer
 62
  256
370
   -1
100
AcDbCircle
 10
109.6093434175955
 20
-98.9999999999999
 40
1.5
  0
CIRCLE
  5
7E
100
AcDbEntity
  8
0
  6
ByLayer
 62
  256
370
   -1
100
AcDbCircle
 10
76.8046717087978
 20
-111.8046717087977
 40
1
  0
CIRCLE
  5
7F
100
AcDbEntity
  8
0
  6
ByLayer
 62
  256
370
   -1
100
AcDbCircle
 10
70.3700000000002
 20
-105.3700000000001
 40
1.5
  0
CIRCLE
  5
80
100
AcDbEntity
  8
0
  6
ByLayer
 62
  256
370
   -1
100
AcDbCircle
 10
64
 20
-99
 40
1.5
  0
CIRCLE
  5
81
100
AcDbEntity
  8
0
  6
ByLayer
 62
  256
370
   -1
100
AcDbCircle
 10
76.8046717087978
 20
-131.8046717087977
 40
1
  0
CIRCLE
  5
82
100
AcDbEntity
  8
0
  6
ByLayer
 62
  256
370
   -1
100
AcDbCircle
 10
70.3700000000002
 20
-138.2393434175953
 40
1.5
  0
CIRCLE
  5
83
100
AcDbEntity
  8
0
  6
ByLayer
 62
  256
370
   -1
100
AcDbCircle
 10
64.0000000000001
 20
-144.6093434175955
 40
1.5
  0
CIRCLE
  5
84
100
AcDbEntity
  8
0
  6
ByLayer
 62
  256
370
   -1
100
AcDbCircle
 10
96.8046717087978
 20
-131.8046717087977
 40
1
  0
CIRCLE
  5
85
100
AcDbEntity
  8
0
  6
ByLayer
 62
  256
370
   -1
100
AcDbCircle
 10
103.2393434175954
 20
-138.2393434175953
 40
1.5
  0
CIRCLE
  5
86
100
AcDbEntity
  8
0
  6
ByLayer
 62
  256
370
   -1
100
AcDbCircle
 10
109.6093434175956
 20
-144.6093434175954
 40
1.5
  0
CIRCLE
  5
87
100
AcDbEntity
  8
0
  6
ByLayer
 62
  256
370
   -1
100
AcDbCircle
 10
122
 20
-99
 40
1.5
  0
CIRCLE
  5
88
100
AcDbEntity
  8
0
  6
ByLayer
 62
  256
370
   -1
100
AcDbCircle
 10
154.8693434175952
 20
-99
 40
1.5
  0
CIRCLE
  5
89
100
AcDbEntity
  8
0
  6
ByLayer
 62
  256
370
   -1
100
AcDbCircle
 10
154.8693434175952
 20
-131.8693434175952
 40
1.5
  0
CIRCLE
  5
8A
100
AcDbEntity
  8
0
  6
ByLayer
 62
  256
370
   -1
100
AcDbCircle
 10
122
 20
-131.8693434175952
 40
1.5
  0
LWPOLYLINE
  5
8B
100
AcDbEntity
  8
0
  6
ByLayer
 62
  256
370
   -1
100
AcDbPolyline
 90
   24
 70
    1
 43
0
 10
8.498132752231012
 20
-96.001867247769
 42
1.000000000000001
 10
2.501867247769004
 20
-101.9981327522309
 10
6.037401153701734
 20
-105.5336666581638
 42
-0.1993418171780811
 10
7.501860422668699
 20
-109.0774619777875
 10
7.501860422668822
 20
-134.531881439808
 42
-0.1993418171780804
 10
6.037401153701797
 20
-138.0756767594317
 10
2.501867247769084
 20
-141.6112106653645
 42
0.9999999999999974
 10
8.498132752230987
 20
-147.6074761698265
 10
12.03366665816385
 20
-144.0719422638937
 42
-0.1993418171780816
 10
15.57746197778759
 20
-142.6074829949268
 10
41.03188143980811
 20
-142.6074829949267
 42
-0.1993418171780815
 10
44.57567675943181
 20
-144.0719422638937
 10
48.11121066536461
 20
-147.6074761698264
 42
0.9999999999999999
 10
54.10747616982661
 20
-141.6112106653645
 10
50.57194226389385
 20
-138.0756767594316
 42
-0.1993418171780813
 10
49.1074829949269
 20
-134.5318814398079
 10
49.10748299492676
 20
-109.0774619777874
 42
-0.1993418171780809
 10
50.57194226389379
 20
-105.5336666581637
 10
54.1074761698265
 20
-101.9981327522309
 42
1
 10
48.11121066536461
 20
-96.0018672477689
 10
44.57567675943173
 20
-99.53740115370162
 42
-0.1993418171780811
 10
41.03188143980799
 20
-101.0018604226686
 10
15.5774619777875
 20
-101.0018604226687
 42
-0.1993418171780802
 10
12.0336666581638
 20
-99.53740115370169
  0
LWPOLYLINE
  5
8C
100
AcDbEntity
  8
0
  6
ByLayer
 62
  256
370
   -1
100
AcDbPolyline
 90
   24
 70
    1
 43
0
 10
66.998132752231
 20
-96.001867247769
 42
1.000000000000001
 10
61.001867247769
 20
-101.9981327522309
 10
64.53740115370172
 20
-105.5336666581638
 42
-0.1993418171780811
 10
66.0018604226687
 20
-109.0774619777875
 10
66.00186042266883
 20
-134.531881439808
 42
-0.1993418171780809
 10
64.53740115370179
 20
-138.0756767594317
 10
61.00186724776908
 20
-141.6112106653645
 42
0.9999999999999979
 10
66.99813275223099
 20
-147.6074761698265
 10
70.53366665816385
 20
-144.0719422638938
 42
-0.199341817178081
 10
74.07746197778759
 20
-142.6074829949268
 10
99.53188143980812
 20
-142.6074829949267
 42
-0.1993418171780799
 10
103.0756767594318
 20
-144.0719422638937
 10
106.6112106653646
 20
-147.6074761698264
 42
0.9999999999999999
 10
112.6074761698266
 20
-141.6112106653645
 10
109.0719422638939
 20
-138.0756767594316
 42
-0.1993418171780808
 10
107.6074829949269
 20
-134.5318814398079
 10
107.6074829949268
 20
-109.0774619777874
 42
-0.1993418171780798
 10
109.0719422638938
 20
-105.5336666581637
 10
112.6074761698265
 20
-101.9981327522309
 42
0.9999999999999988
 10
106.6112106653646
 20
-96.0018672477689
 10
103.0756767594317
 20
-99.53740115370164
 42
-0.1993418171780811
 10
99.53188143980799
 20
-101.0018604226686
 10
74.07746197778751
 20
-101.0018604226687
 42
-0.1993418171780808
 10
70.5336666581638
 20
-99.53740115370169
  0
LWPOLYLINE
  5
8D
100
AcDbEntity
  8
0
  6
ByLayer
 62
  256
370
   -1
100
AcDbPolyline
 90
   28
 70
    1
 43
0
 10
121.9997862289834
 20
-106.7348503108221
 10
121.9997862289834
 20
-124.1344931067731
 42
-0.1988567709409823
 10
120.7696348060702
 20
-127.1034431070627
 10
119.0018672476942
 20
-128.871210665439
 42
0.9999999999999999
 10
124.9981333575662
 20
-134.8674755644914
 10
126.7659003105326
 20
-133.099708611525
 42
-0.1988567709409821
 10
129.734850310822
 20
-131.8695571886118
 10
147.1344931067731
 20
-131.8695571886118
 42
-0.1988567709409817
 10
150.1034431070627
 20
-133.099708611525
 10
151.871210665439
 20
-134.867476169901
 42
0.9999999999999999
 10
157.8674755644914
 20
-128.871210060029
 10
156.099708611525
 20
-127.1034431070626
 42
-0.1988567709409812
 10
154.8695571886118
 20
-124.1344931067731
 10
154.8695571886118
 20
-106.7348503108221
 42
-0.1988567709409801
 10
156.099708611525
 20
-103.7659003105325
 10
157.867476169901
 20
-101.9981327521562
 42
1.000000000000001
 10
151.871210060029
 20
-96.00186785310379
 10
150.1034431070626
 20
-97.76963480607021
 42
0.1989123673796585
 10
146.3895570925079
 20
-106.7357487915161
 10
146.3895570925079
 20
-108.7357487915161
 42
-0.414213562373095
 10
143.3895570925079
 20
-111.7357487915161
 10
133.4797863250873
 20
-111.7357487915161
 42
-0.414213562373095
 10
130.4797863250873
 20
-108.7357487915161
 10
130.4797863250873
 20
-106.7357487915161
 42
0.1989123673796579
 10
126.7659003105325
 20
-97.7696348060702
 10
124.9981327521562
 20
-96.00186724769418
 42
1.000000000000001
 10
119.0018678531038
 20
-101.9981333575662
 10
120.7696348060702
 20
-103.7659003105326
 42
-0.1988567709409825
  0
CIRCLE
  5
8E
100
AcDbEntity
  8
0
  6
ByLayer
 62
  256
370
   -1
100
AcDbCircle
 10
21
 20
-86
 40
1.5
  0
CIRCLE
  5
8F
100
AcDbEntity
  8
0
  6
ByLayer
 62
  256
370
   -1
100
AcDbCircle
 10
6
 20
-86
 40
1.5
  0
CIRCLE
  5
90
100
AcDbEntity
  8
0
  6
ByLayer
 62
  256
370
   -1
100
AcDbCircle
 10
181.1480000000001
 20
-86.00000000000003
 40
1.5
  0
CIRCLE
  5
91
100
AcDbEntity
  8
0
  6
ByLayer
 62
  256
370
   -1
100
AcDbCircle
 10
166.1480000000001
 20
-86.00000000000003
 40
1.5
  0
CIRCLE
  5
92
100
AcDbEntity
  8
0
  6
ByLayer
 62
  256
370
   -1
100
AcDbCircle
 10
21
 20
-72
 40
1.5
  0
CIRCLE
  5
93
100
AcDbEntity
  8
0
  6
ByLayer
 62
  256
370
   -1
100
AcDbCircle
 10
6
 20
-72
 40
1.5
  0
CIRCLE
  5
94
100
AcDbEntity
  8
0
  6
ByLayer
 62
  256
370
   -1
100
AcDbCircle
 10
181.1480000000001
 20
-72.00000000000003
 40
1.5
  0
CIRCLE
  5
95
100
AcDbEntity
  8
0
  6
ByLayer
 62
  256
370
   -1
100
AcDbCircle
 10
166.1480000000001
 20
-72.00000000000003
 40
1.5
  0
LWPOLYLINE
  5
96
100
AcDbEntity
  8
0
  6
ByLayer
 62
  256
370
   -1
100
AcDbPolyline
 90
    4
 70
    1
 43
0
 10
6
 20
-67
 42
0.9999999999999999
 10
5.999999999999999
 20
-77
 10
181.1480000000001
 20
-77.00000000000003
 42
0.9999999999999999
 10
181.1480000000001
 20
-67.00000000000003
  0
LWPOLYLINE
  5
97
100
AcDbEntity
  8
0
  6
ByLayer
 62
  256
370
   -1
100
AcDbPolyline
 90
    4
 70
    1
 43
0
 10
6
 20
-81
 42
0.9999999999999999
 10
5.999999999999999
 20
-91
 10
181.1480000000001
 20
-91.00000000000003
 42
0.9999999999999999
 10
181.1480000000001
 20
-81.00000000000003
  0
LWPOLYLINE
  5
98
100
AcDbEntity
  8
0
  6
ByLayer
 62
  256
370
   -1
100
AcDbPolyline
 90
  113
 70
    1
 43
0
 10
116.9999999999998
 20
-8.760000000000062
 42
-1.000000000000002
 10
116.9999999999999
 20
-17.2400000000001
 10
103.1455952988416
 20
-17.24788969752604
 10
90.8741079356144
 20
-17.25419257292797
 10
80.18553791031829
 20
-17.2589086262059
 10
71.07988522295327
 20
-17.26203785735983
 10
63.55714987351936
 20
-17.26358026638976
 10
57.61733186201655
 20
-17.2635358532957
 10
53.26043118844485
 20
-17.26190461807763
 10
50.48644785280425
 20
-17.25868656073556
 10
48.5725882605162
 20
-17.29911998293091
 10
46.79605881700212
 20
-17.42844318632508
 10
45.15685952226202
 20
-17.64665617091807
 10
43.65499037629592
 20
-17.9537589367099
 10
42.2904513791038
 20
-18.34975148370056
 10
41.06324253068566
 20
-18.83463381189004
 10
39.9733638310415
 20
-19.40840592127834
 10
39.02081528017132
 20
-20.07106781186548
 10
38.13693180368814
 20
-20.7450289626839
 10
37.25304832720495
 20
-21.3526988527661
 10
36.36916485072177
 20
-21.89407748211205
 10
35.48528137423858
 20
-22.36916485072176
 10
34.6013978977554
 20
-22.77796095859523
 10
33.71751442127221
 20
-23.12046580573247
 10
32.83363094478903
 20
-23.39667939213346
 10
31.94974746830584
 20
-23.60660171779821
 10
31.06033972009464
 20
-23.76680559791079
 10
30.1598834284274
 20
-23.89386384765524
 10
29.24837859330411
 20
-23.98777646703158
 10
28.32582521472479
 20
-24.04854345603981
 10
27.39222329268943
 20
-24.07616481467991
 10
26.44757282719802
 20
-24.07064054295189
 10
25.49187381825057
 20
-24.03197064085575
 10
24.52512626584709
 20
-23.96015510839149
 10
23.55837871344361
 20
-23.85519394555911
 10
22.60267970449617
 20
-23.71708715235861
 10
21.65802923900476
 20
-23.54583472878999
 10
20.7244273169694
 20
-23.34143667485326
 10
19.80187393839007
 20
-23.1038929905484
 10
18.89036910326679
 20
-22.83320367587542
 10
17.98991281159955
 20
-22.52936873083434
 10
17.10050506338834
 20
-22.19238815542512
 10
16.17795168480902
 20
-21.82226194964779
 10
15.17805850203741
 20
-21.41899011350233
 10
14.10082551507353
 20
-20.98257264698876
 10
12.94625272391737
 20
-20.51300955010707
 10
11.71434012856893
 20
-20.01030082285726
 10
10.40508772902821
 20
-19.47444646523932
 10
9.018495525295219
 20
-18.90544647725328
 10
7.554563517369942
 20
-18.30330085889911
 10
6.151398498452886
 20
-17.67353388190484
 10
4.947107261744546
 20
-17.02166981799849
 10
3.941689807244923
 20
-16.34770866718006
 10
3.135146134954017
 20
-15.65165042944956
 10
2.527476244871827
 20
-14.93349510480697
 10
2.118680136998354
 20
-14.1932426932523
 10
1.908757811333598
 20
-13.43089319478556
 10
1.897709267877559
 20
-12.64644660940673
 10
2.068961691446177
 20
-11.86752429575592
 10
2.405942266855392
 20
-11.12174761247324
 10
2.908650994105203
 20
-10.40911655955867
 10
3.577087873195612
 20
-9.729631137012221
 10
4.411252904126618
 20
-9.083291344833892
 10
5.411146086898222
 20
-8.470097183023684
 10
6.576767421510421
 20
-7.890048651581594
 10
7.908116907963219
 20
-7.343145750507624
 10
9.289184839968195
 20
-6.823864208073753
 10
10.60396151123693
 20
-6.326679752551962
 10
11.85244692176943
 20
-5.851592383942251
 10
13.03464107156569
 20
-5.398602102244618
 10
14.15054396062571
 20
-4.967708907459066
 10
15.20015558894949
 20
-4.558912799585594
 10
16.18347595653704
 20
-4.1722137786242
 10
17.10050506338834
 20
-3.807611844574886
 10
17.98991281159955
 20
-3.470631269165672
 10
18.89036910326679
 20
-3.166796324124577
 10
19.80187393839007
 20
-2.896107009451602
 10
20.7244273169694
 20
-2.658563325146746
 10
21.65802923900476
 20
-2.45416527121001
 10
22.60267970449616
 20
-2.282912847641393
 10
23.55837871344361
 20
-2.144806054440895
 10
24.52512626584709
 20
-2.039844891608517
 10
25.49187381825057
 20
-1.968029359144258
 10
26.44757282719802
 20
-1.929359457048119
 10
27.39222329268942
 20
-1.923835185320099
 10
28.32582521472479
 20
-1.951456543960199
 10
29.24837859330411
 20
-2.012223532968417
 10
30.1598834284274
 20
-2.106136152344756
 10
31.06033972009464
 20
-2.233194402089214
 10
31.94974746830584
 20
-2.39339828220179
 10
32.83363094478903
 20
-2.603320607866546
 10
33.71751442127221
 20
-2.879534194267541
 10
34.6013978977554
 20
-3.222039041404775
 10
35.48528137423858
 20
-3.630835149278247
 10
36.36916485072177
 20
-4.105922517887958
 10
37.25304832720495
 20
-4.647301147233909
 10
38.13693180368814
 20
-5.254971037316099
 10
39.02081528017132
 20
-5.928932188134526
 10
39.9733638310415
 20
-6.591594078721662
 10
41.06324253068566
 20
-7.165366188109972
 10
42.29045137910379
 20
-7.650248516299458
 10
43.65499037629593
 20
-8.046241063290118
 10
45.15685952226203
 20
-8.353343829081956
 10
46.79605881700213
 20
-8.571556813674968
 10
48.57258826051621
 20
-8.700880017069156
 10
50.48644785280426
 20
-8.74131343926452
 10
53.26043118844487
 20
-8.73809538192247
 10
57.61733186201656
 20
-8.736464146704419
 10
63.55714987351935
 20
-8.736419733610367
 10
71.07988522295325
 20
-8.737962142640313
 10
80.18553791031825
 20
-8.74109137379426
 10
90.87410793561435
 20
-8.745807427072204
 10
103.1455952988415
 20
-8.752110302474151
  0
LWPOLYLINE
  5
99
100
AcDbEntity
  8
0
  6
ByLayer
 62
  256
370
   -1
100
AcDbPolyline
 90
  113
 70
    1
 43
0
 10
48.00000000000006
 20
-30.23999999999999
 10
61.85440470115834
 20
-30.24788969752594
 10
74.12589206438554
 20
-30.25419257292789
 10
84.81446208968163
 20
-30.25890862620584
 10
93.92011477704663
 20
-30.26203785735978
 10
101.4428501264805
 20
-30.26358026638973
 10
107.3826681379833
 20
-30.26353585329568
 10
111.739568811555
 20
-30.26190461807763
 10
114.5135521471956
 20
-30.25868656073558
 10
116.4274117394837
 20
-30.29911998293094
 10
118.2039411829978
 20
-30.42844318632513
 10
119.8431404777378
 20
-30.64665617091814
 10
121.345009623704
 20
-30.95375893670997
 10
122.7095486208961
 20
-31.34975148370063
 10
123.9367574693142
 20
-31.83463381189012
 10
125.0266361689584
 20
-32.40840592127843
 10
125.9791847198286
 20
-33.07106781186557
 10
126.8630681963117
 20
-33.745028962684
 10
127.7469516727949
 20
-34.35269885276619
 10
128.6308351492781
 20
-34.89407748211214
 10
129.5147186257613
 20
-35.36916485072184
 10
130.3986021022445
 20
-35.77796095859532
 10
131.2824855787277
 20
-36.12046580573256
 10
132.1663690552109
 20
-36.39667939213355
 10
133.050252531694
 20
-36.60660171779831
 10
133.9396602799052
 20
-36.76680559791088
 10
134.8401165715725
 20
-36.89386384765534
 10
135.7516214066958
 20
-36.98777646703168
 10
136.6741747852751
 20
-37.04854345603989
 10
137.6077767073104
 20
-37.07616481468
 10
138.5524271728019
 20
-37.07064054295198
 10
139.5081261817493
 20
-37.03197064085584
 10
140.4748737341528
 20
-36.96015510839158
 10
141.4416212865563
 20
-36.85519394555921
 10
142.3973202955037
 20
-36.71708715235871
 10
143.3419707609951
 20
-36.54583472879008
 10
144.2755726830305
 20
-36.34143667485336
 10
145.1981260616098
 20
-36.1038929905485
 10
146.1096308967331
 20
-35.83320367587552
 10
147.0100871884003
 20
-35.52936873083443
 10
147.8994949366115
 20
-35.19238815542521
 10
148.8165240434629
 20
-34.8277862213759
 10
149.7998444110504
 20
-34.4410872004145
 10
150.8494560393742
 20
-34.03229109254103
 10
151.9653589284342
 20
-33.60139789775548
 10
153.1475530782304
 20
-33.14840761605785
 10
154.3960384887629
 20
-32.67332024744814
 10
155.7108151600317
 20
-32.17613579192634
 10
157.0918830920367
 20
-31.65685424949248
 10
158.4232325784895
 20
-31.10995134841851
 10
159.5888539131017
 20
-30.52990281697642
 10
160.5887470958733
 20
-29.91670865516621
 10
161.4229121268042
 20
-29.27036886298788
 10
162.0913490058947
 20
-28.59088344044144
 10
162.5940577331445
 20
-27.87825238752687
 10
162.9310383085537
 20
-27.13247570424418
 10
163.1022907321223
 20
-26.35355339059338
 10
163.0912421886663
 20
-25.56910680521455
 10
162.8813198630015
 20
-24.80675730674781
 10
162.472523755128
 20
-24.06650489519314
 10
161.8648538650459
 20
-23.34834957055055
 10
161.058310192755
 20
-22.65229133282005
 10
160.0528927382553
 20
-21.97833018200162
 10
158.848601501547
 20
-21.32646611809527
 10
157.4454364826299
 20
-20.696699141101
 10
155.9815044747046
 20
-20.09455352274683
 10
154.5949122709717
 20
-19.52555353476078
 10
153.2856598714309
 20
-18.98969917714285
 10
152.0537472760825
 20
-18.48699044989304
 10
150.8991744849264
 20
-18.01742735301135
 10
149.8219414979625
 20
-17.58100988649777
 10
148.8220483151909
 20
-17.17773805035232
 10
147.8994949366115
 20
-16.80761184457499
 10
147.0100871884003
 20
-16.47063126916577
 10
146.1096308967331
 20
-16.16679632412468
 10
145.1981260616098
 20
-15.8961070094517
 10
144.2755726830305
 20
-15.65856332514684
 10
143.3419707609951
 20
-15.4541652712101
 10
142.3973202955037
 20
-15.28291284764149
 10
141.4416212865563
 20
-15.14480605444099
 10
140.4748737341528
 20
-15.03984489160861
 10
139.5081261817493
 20
-14.96802935914435
 10
138.5524271728019
 20
-14.92935945704821
 10
137.6077767073104
 20
-14.92383518532019
 10
136.6741747852751
 20
-14.95145654396029
 10
135.7516214066958
 20
-15.01222353296851
 10
134.8401165715725
 20
-15.10613615234485
 10
133.9396602799052
 20
-15.2331944020893
 10
133.050252531694
 20
-15.39339828220188
 10
132.1663690552109
 20
-15.60332060786664
 10
131.2824855787277
 20
-15.87953419426763
 10
130.3986021022445
 20
-16.22203904140486
 10
129.5147186257613
 20
-16.63083514927834
 10
128.6308351492781
 20
-17.10592251788805
 10
127.7469516727949
 20
-17.647301147234
 10
126.8630681963117
 20
-18.25497103731619
 10
125.9791847198286
 20
-18.92893218813462
 10
125.0266361689584
 20
-19.59159407872176
 10
123.9367574693142
 20
-20.16536618811006
 10
122.7095486208961
 20
-20.65024851629954
 10
121.345009623704
 20
-21.04624106329019
 10
119.8431404777379
 20
-21.35334382908202
 10
118.2039411829978
 20
-21.57155681367502
 10
116.4274117394837
 20
-21.7008800170692
 10
114.5135521471956
 20
-21.74131343926454
 10
111.739568811555
 20
-21.73809538192247
 10
107.3826681379833
 20
-21.7364641467044
 10
101.4428501264806
 20
-21.73641973361033
 10
93.92011477704662
 20
-21.73796214264026
 10
84.8144620896816
 20
-21.74109137379419
 10
74.1258920643855
 20
-21.74580742707213
 10
61.85440470115827
 20
-21.75211030247406
 10
47.99999999999994
 20
-21.75999999999998
 42
0.9999999999999999
  0
LWPOLYLINE
  5
9A
100
AcDbEntity
  8
0
  6
ByLayer
 62
  256
370
   -1
100
AcDbPolyline
 90
  113
 70
    1
 43
0
 10
116.9999999999998
 20
-34.76000000000009
 10
103.1455952988415
 20
-34.75211030247415
 10
90.87410793561435
 20
-34.74580742707221
 10
80.18553791031825
 20
-34.74109137379426
 10
71.07988522295325
 20
-34.73796214264031
 10
63.55714987351935
 20
-34.73641973361036
 10
57.61733186201656
 20
-34.73646414670441
 10
53.26043118844487
 20
-34.73809538192247
 10
50.48644785280426
 20
-34.74131343926452
 10
48.57258826051621
 20
-34.70088001706915
 10
46.79605881700213
 20
-34.57155681367497
 10
45.15685952226203
 20
-34.35334382908195
 10
43.65499037629593
 20
-34.04624106329012
 10
42.29045137910379
 20
-33.65024851629946
 10
41.06324253068566
 20
-33.16536618810997
 10
39.9733638310415
 20
-32.59159407872166
 10
39.02081528017132
 20
-31.92893218813452
 10
38.13693180368814
 20
-31.2549710373161
 10
37.25304832720495
 20
-30.64730114723391
 10
36.36916485072177
 20
-30.10592251788796
 10
35.48528137423858
 20
-29.63083514927825
 10
34.6013978977554
 20
-29.22203904140477
 10
33.71751442127221
 20
-28.87953419426754
 10
32.83363094478903
 20
-28.60332060786655
 10
31.94974746830584
 20
-28.39339828220179
 10
31.06033972009464
 20
-28.23319440208921
 10
30.1598834284274
 20
-28.10613615234475
 10
29.24837859330411
 20
-28.01222353296842
 10
28.32582521472479
 20
-27.9514565439602
 10
27.39222329268942
 20
-27.9238351853201
 10
26.44757282719802
 20
-27.92935945704812
 10
25.49187381825057
 20
-27.96802935914426
 10
24.52512626584709
 20
-28.03984489160852
 10
23.55837871344361
 20
-28.1448060544409
 10
22.60267970449616
 20
-28.28291284764139
 10
21.65802923900476
 20
-28.45416527121001
 10
20.7244273169694
 20
-28.65856332514674
 10
19.80187393839007
 20
-28.8961070094516
 10
18.89036910326679
 20
-29.16679632412458
 10
17.98991281159955
 20
-29.47063126916567
 10
17.10050506338834
 20
-29.80761184457489
 10
16.18347595653704
 20
-30.1722137786242
 10
15.20015558894949
 20
-30.55891279958559
 10
14.15054396062571
 20
-30.96770890745907
 10
13.03464107156569
 20
-31.39860210224462
 10
11.85244692176943
 20
-31.85159238394225
 10
10.60396151123693
 20
-32.32667975255196
 10
9.289184839968195
 20
-32.82386420807375
 10
7.908116907963219
 20
-33.34314575050762
 10
6.576767421510421
 20
-33.89004865158159
 10
5.411146086898222
 20
-34.47009718302368
 10
4.411252904126618
 20
-35.08329134483389
 10
3.577087873195612
 20
-35.72963113701222
 10
2.908650994105203
 20
-36.40911655955867
 10
2.405942266855392
 20
-37.12174761247323
 10
2.068961691446177
 20
-37.86752429575591
 10
1.897709267877559
 20
-38.64644660940672
 10
1.908757811333598
 20
-39.43089319478555
 10
2.118680136998354
 20
-40.1932426932523
 10
2.527476244871827
 20
-40.93349510480697
 10
3.135146134954017
 20
-41.65165042944955
 10
3.941689807244923
 20
-42.34770866718006
 10
4.947107261744546
 20
-43.02166981799849
 10
6.151398498452886
 20
-43.67353388190484
 10
7.554563517369942
 20
-44.30330085889911
 10
9.018495525295219
 20
-44.90544647725328
 10
10.40508772902821
 20
-45.47444646523932
 10
11.71434012856893
 20
-46.01030082285726
 10
12.94625272391737
 20
-46.51300955010707
 10
14.10082551507353
 20
-46.98257264698876
 10
15.17805850203741
 20
-47.41899011350233
 10
16.17795168480902
 20
-47.82226194964778
 10
17.10050506338834
 20
-48.19238815542512
 10
17.98991281159955
 20
-48.52936873083434
 10
18.89036910326679
 20
-48.83320367587542
 10
19.80187393839007
 20
-49.1038929905484
 10
20.7244273169694
 20
-49.34143667485326
 10
21.65802923900476
 20
-49.54583472878999
 10
22.60267970449617
 20
-49.71708715235862
 10
23.55837871344361
 20
-49.85519394555911
 10
24.52512626584709
 20
-49.96015510839149
 10
25.49187381825057
 20
-50.03197064085574
 10
26.44757282719802
 20
-50.07064054295189
 10
27.39222329268943
 20
-50.07616481467991
 10
28.32582521472479
 20
-50.0485434560398
 10
29.24837859330411
 20
-49.98777646703159
 10
30.1598834284274
 20
-49.89386384765525
 10
31.06033972009464
 20
-49.7668055979108
 10
31.94974746830584
 20
-49.60660171779821
 10
32.83363094478903
 20
-49.39667939213346
 10
33.71751442127221
 20
-49.12046580573247
 10
34.6013978977554
 20
-48.77796095859523
 10
35.48528137423858
 20
-48.36916485072175
 10
36.36916485072177
 20
-47.89407748211204
 10
37.25304832720495
 20
-47.3526988527661
 10
38.13693180368814
 20
-46.7450289626839
 10
39.02081528017132
 20
-46.07106781186548
 10
39.9733638310415
 20
-45.40840592127834
 10
41.06324253068566
 20
-44.83463381189004
 10
42.2904513791038
 20
-44.34975148370056
 10
43.65499037629592
 20
-43.9537589367099
 10
45.15685952226202
 20
-43.64665617091808
 10
46.79605881700212
 20
-43.42844318632508
 10
48.5725882605162
 20
-43.2991199829309
 10
50.48644785280425
 20
-43.25868656073556
 10
53.26043118844485
 20
-43.26190461807763
 10
57.61733186201655
 20
-43.2635358532957
 10
63.55714987351936
 20
-43.26358026638977
 10
71.07988522295327
 20
-43.26203785735983
 10
80.18553791031829
 20
-43.25890862620589
 10
90.8741079356144
 20
-43.25419257292797
 10
103.1455952988416
 20
-43.24788969752603
 10
116.9999999999999
 20
-43.24000000000011
 42
1.000000000000002
  0
LWPOLYLINE
  5
9B
100
AcDbEntity
  8
0
  6
ByLayer
 62
  256
370
   -1
100
AcDbPolyline
 90
  113
 70
    1
 43
0
 10
48.00000000000006
 20
-56.23999999999998
 42
-0.9999999999999999
 10
47.99999999999994
 20
-47.75999999999999
 10
61.85440470115827
 20
-47.75211030247407
 10
74.1258920643855
 20
-47.74580742707213
 10
84.8144620896816
 20
-47.74109137379421
 10
93.92011477704662
 20
-47.73796214264026
 10
101.4428501264806
 20
-47.73641973361033
 10
107.3826681379833
 20
-47.73646414670441
 10
111.739568811555
 20
-47.73809538192246
 10
114.5135521471956
 20
-47.74131343926454
 10
116.4274117394837
 20
-47.70088001706919
 10
118.2039411829978
 20
-47.57155681367502
 10
119.8431404777379
 20
-47.35334382908202
 10
121.345009623704
 20
-47.04624106329019
 10
122.7095486208961
 20
-46.65024851629953
 10
123.9367574693142
 20
-46.16536618811006
 10
125.0266361689584
 20
-45.59159407872175
 10
125.9791847198286
 20
-44.92893218813462
 10
126.8630681963117
 20
-44.25497103731618
 10
127.7469516727949
 20
-43.647301147234
 10
128.6308351492781
 20
-43.10592251788804
 10
129.5147186257613
 20
-42.63083514927833
 10
130.3986021022445
 20
-42.22203904140486
 10
131.2824855787277
 20
-41.87953419426763
 10
132.1663690552109
 20
-41.60332060786664
 10
133.050252531694
 20
-41.39339828220188
 10
133.9396602799052
 20
-41.2331944020893
 10
134.8401165715725
 20
-41.10613615234485
 10
135.7516214066958
 20
-41.01222353296851
 10
136.6741747852751
 20
-40.95145654396029
 10
137.6077767073104
 20
-40.92383518532019
 10
138.5524271728019
 20
-40.92935945704821
 10
139.5081261817493
 20
-40.96802935914435
 10
140.4748737341528
 20
-41.03984489160861
 10
141.4416212865563
 20
-41.14480605444099
 10
142.3973202955037
 20
-41.28291284764149
 10
143.3419707609951
 20
-41.45416527121011
 10
144.2755726830305
 20
-41.65856332514684
 10
145.1981260616098
 20
-41.8961070094517
 10
146.1096308967331
 20
-42.16679632412468
 10
147.0100871884003
 20
-42.47063126916576
 10
147.8994949366115
 20
-42.80761184457499
 10
148.8220483151909
 20
-43.17773805035232
 10
149.8219414979625
 20
-43.58100988649777
 10
150.8991744849264
 20
-44.01742735301135
 10
152.0537472760825
 20
-44.48699044989304
 10
153.2856598714309
 20
-44.98969917714285
 10
154.5949122709717
 20
-45.52555353476077
 10
155.9815044747046
 20
-46.09455352274682
 10
157.4454364826299
 20
-46.69669914110099
 10
158.848601501547
 20
-47.32646611809525
 10
160.0528927382553
 20
-47.97833018200161
 10
161.058310192755
 20
-48.65229133282003
 10
161.8648538650459
 20
-49.34834957055054
 10
162.472523755128
 20
-50.06650489519313
 10
162.8813198630015
 20
-50.8067573067478
 10
163.0912421886663
 20
-51.56910680521455
 10
163.1022907321223
 20
-52.35355339059337
 10
162.9310383085537
 20
-53.13247570424418
 10
162.5940577331445
 20
-53.87825238752686
 10
162.0913490058947
 20
-54.59088344044144
 10
161.4229121268042
 20
-55.27036886298788
 10
160.5887470958733
 20
-55.9167086551662
 10
159.5888539131017
 20
-56.52990281697642
 10
158.4232325784895
 20
-57.10995134841851
 10
157.0918830920367
 20
-57.65685424949248
 10
155.7108151600317
 20
-58.17613579192635
 10
154.3960384887629
 20
-58.67332024744814
 10
153.1475530782304
 20
-59.14840761605785
 10
151.9653589284342
 20
-59.60139789775548
 10
150.8494560393742
 20
-60.03229109254103
 10
149.7998444110504
 20
-60.4410872004145
 10
148.8165240434629
 20
-60.8277862213759
 10
147.8994949366115
 20
-61.19238815542521
 10
147.0100871884003
 20
-61.52936873083443
 10
146.1096308967331
 20
-61.83320367587552
 10
145.1981260616098
 20
-62.1038929905485
 10
144.2755726830305
 20
-62.34143667485336
 10
143.3419707609951
 20
-62.54583472879009
 10
142.3973202955037
 20
-62.71708715235871
 10
141.4416212865563
 20
-62.85519394555921
 10
140.4748737341528
 20
-62.96015510839158
 10
139.5081261817493
 20
-63.03197064085584
 10
138.5524271728019
 20
-63.07064054295198
 10
137.6077767073104
 20
-63.07616481468
 10
136.6741747852751
 20
-63.04854345603989
 10
135.7516214066958
 20
-62.98777646703168
 10
134.8401165715725
 20
-62.89386384765534
 10
133.9396602799052
 20
-62.76680559791088
 10
133.050252531694
 20
-62.60660171779831
 10
132.1663690552109
 20
-62.39667939213355
 10
131.2824855787277
 20
-62.12046580573256
 10
130.3986021022445
 20
-61.77796095859532
 10
129.5147186257613
 20
-61.36916485072184
 10
128.6308351492781
 20
-60.89407748211214
 10
127.7469516727949
 20
-60.35269885276619
 10
126.8630681963117
 20
-59.745028962684
 10
125.9791847198286
 20
-59.07106781186557
 10
125.0266361689584
 20
-58.40840592127844
 10
123.9367574693142
 20
-57.83463381189013
 10
122.7095486208961
 20
-57.34975148370065
 10
121.345009623704
 20
-56.95375893670998
 10
119.8431404777378
 20
-56.64665617091815
 10
118.2039411829978
 20
-56.42844318632514
 10
116.4274117394837
 20
-56.29911998293095
 10
114.5135521471956
 20
-56.25868656073558
 10
111.739568811555
 20
-56.26190461807764
 10
107.3826681379833
 20
-56.26353585329568
 10
101.4428501264805
 20
-56.26358026638972
 10
93.92011477704663
 20
-56.26203785735979
 10
84.81446208968163
 20
-56.25890862620584
 10
74.12589206438554
 20
-56.25419257292788
 10
61.85440470115834
 20
-56.24788969752594
  0
ENDSEC
  0
SECTION
  2
OBJECTS
  0
DICTIONARY
  5
C
330
0
100
AcDbDictionary
281
    1
  3
ACAD_GROUP
350
D
  0
DICTIONARY
  5
D
330
C
100
AcDbDictionary
281
    1
  0
ENDSEC
  0
EOF
